<?xml version="1.0" encoding="utf-8"?>
<!-- Generator: Adobe Illustrator 16.0.0, SVG Export Plug-In . SVG Version: 6.00 Build 0)  -->
<!DOCTYPE svg PUBLIC "-//W3C//DTD SVG 1.1//EN" "http://www.w3.org/Graphics/SVG/1.1/DTD/svg11.dtd">
<svg version="1.1" id="Layer_1" xmlns="http://www.w3.org/2000/svg" xmlns:xlink="http://www.w3.org/1999/xlink" x="0px" y="0px"
	 width="81.418px" height="81.417px" viewBox="0 0 81.418 81.417" enable-background="new 0 0 81.418 81.417" xml:space="preserve">
<g>
	<g>
		<g>
			<path fill="#181819" d="M81.547,40.76c0,2.475-0.219,4.865-0.631,7.201c-0.303,1.678-0.688,3.326-1.211,4.92
				c-0.191,0.66-0.41,1.291-0.631,1.895c-1.264,3.436-2.969,6.682-5.057,9.619c-0.303,0.414-0.607,0.828-0.906,1.211
				c-0.357,0.467-0.715,0.934-1.102,1.375c-0.74,0.881-1.537,1.73-2.361,2.555c-0.277,0.277-0.551,0.551-0.826,0.797
				c-0.549,0.551-1.125,1.074-1.732,1.568c-0.383,0.33-0.797,0.66-1.207,0.99c-1.432,1.125-2.916,2.143-4.48,3.049
				c-0.496,0.303-1.018,0.576-1.541,0.854c-0.52,0.273-1.043,0.547-1.566,0.797c-0.219,0.111-0.438,0.221-0.658,0.301
				c-0.826,0.414-1.705,0.77-2.584,1.102c-0.771,0.273-1.512,0.52-2.281,0.74c-0.578,0.193-1.182,0.387-1.785,0.523
				c-0.551,0.137-1.127,0.273-1.678,0.383c-0.494,0.111-0.99,0.221-1.512,0.305c-0.439,0.082-0.906,0.162-1.373,0.219
				c-0.498,0.055-0.992,0.137-1.484,0.164c-0.469,0.057-0.908,0.084-1.375,0.109c-0.908,0.084-1.842,0.111-2.775,0.111
				c-0.99,0-1.951-0.055-2.889-0.111C16.74,79.954,0,62.334,0,40.76C0,18.248,18.277,0,40.789,0
				C63.297,0,81.547,18.248,81.547,40.76z"/>
		</g>
		<g>
			<g>
				<path fill="#FDCE30" d="M48.217,56.956h-7.621l-3.027-7.877H23.705l-2.863,7.877h-7.43L26.92,22.271h7.406L48.217,56.956z
					 M35.322,43.235l-4.781-12.871l-4.684,12.871H35.322z"/>
				<path fill="#FDCE30" d="M64.006,48.959l6.625,1.115c-0.852,2.426-2.195,4.277-4.035,5.545c-1.836,1.271-4.133,1.904-6.893,1.904
					c-4.369,0-7.604-1.428-9.699-4.283c-1.66-2.287-2.486-5.172-2.486-8.658c0-4.164,1.09-7.424,3.264-9.782
					c2.178-2.359,4.928-3.537,8.256-3.537c3.74,0,6.689,1.234,8.85,3.703c2.162,2.471,3.195,6.25,3.102,11.344H54.33
					c0.049,1.973,0.586,3.506,1.611,4.6c1.025,1.096,2.303,1.646,3.832,1.646c1.039,0,1.916-0.285,2.625-0.852
					C63.107,51.137,63.645,50.223,64.006,48.959z M64.387,42.243c-0.047-1.926-0.545-3.389-1.492-4.389
					c-0.947-1.002-2.096-1.502-3.453-1.502c-1.451,0-2.65,0.527-3.598,1.584c-0.945,1.059-1.412,2.49-1.393,4.307H64.387
					L64.387,42.243z"/>
			</g>
		</g>
	</g>
</g>
</svg>
