<?xml version="1.0" encoding="utf-8"?>
<!-- Generator: Adobe Illustrator 16.0.0, SVG Export Plug-In . SVG Version: 6.00 Build 0)  -->
<!DOCTYPE svg PUBLIC "-//W3C//DTD SVG 1.1//EN" "http://www.w3.org/Graphics/SVG/1.1/DTD/svg11.dtd">
<svg version="1.1" id="Layer_1" xmlns="http://www.w3.org/2000/svg" xmlns:xlink="http://www.w3.org/1999/xlink" x="0px" y="0px"
	 width="48px" height="48px" viewBox="0 0 48 48" enable-background="new 0 0 48 48" xml:space="preserve">
<g>
	<path fill="#181819" d="M24,0C10.75,0,0,10.75,0,24s10.75,24,24,24s24-10.75,24-24S37.25,0,24,0z M27.56,16.73h6.78v1.94h-6.78
		V16.73z M23.47,29.38c-0.3,0.49-0.67,0.9-1.12,1.23c-0.5,0.38-1.1,0.64-1.79,0.779c-0.68,0.15-1.43,0.221-2.23,0.221H11.2V16h7.65
		c1.92,0.03,3.29,0.58,4.09,1.66c0.49,0.67,0.73,1.46,0.73,2.38c0,0.96-0.24,1.73-0.73,2.3c-0.27,0.33-0.68,0.62-1.21,0.89
		c0.81,0.29,1.42,0.75,1.83,1.38c0.41,0.63,0.62,1.39,0.62,2.29C24.18,27.82,23.94,28.65,23.47,29.38z M36.79,26.68H28.27
		c0.051,1.16,0.461,1.971,1.23,2.44c0.46,0.29,1.03,0.43,1.69,0.43c0.689,0,1.26-0.17,1.689-0.52c0.24-0.2,0.45-0.46,0.63-0.8h3.13
		c-0.09,0.68-0.47,1.38-1.14,2.09C34.46,31.44,32.99,32,31.1,32c-1.56,0-2.93-0.47-4.119-1.42c-1.19-0.95-1.78-2.49-1.78-4.62
		c0-2,0.53-3.53,1.6-4.6c1.08-1.07,2.47-1.6,4.19-1.6c1.02,0,1.93,0.18,2.75,0.54c0.819,0.36,1.49,0.93,2.02,1.7
		c0.48,0.69,0.79,1.49,0.931,2.39C36.77,24.92,36.81,25.69,36.79,26.68z"/>
	<path fill="#181819" d="M33.62,24.7H28.35c0.11-0.76,0.381-1.35,0.811-1.79c0.439-0.44,1.05-0.66,1.83-0.66
		c0.72,0,1.33,0.21,1.819,0.62C33.29,23.29,33.56,23.89,33.62,24.7z"/>
	<path fill="#181819" d="M20.52,20.4c0,0.65-0.22,1.11-0.64,1.37c-0.44,0.25-0.99,0.38-1.68,0.38h-3.85v-3.44h3.45
		c0.76,0,1.38,0.08,1.87,0.24C20.23,19.19,20.52,19.67,20.52,20.4z"/>
	<path fill="#181819" d="M20.84,26.68c0,0.95-0.35,1.601-1.04,1.94c-0.38,0.18-0.92,0.28-1.61,0.28h-3.84v-4.16h3.9
		c0.68,0,1.21,0.09,1.58,0.26C20.5,25.3,20.84,25.86,20.84,26.68z"/>
</g>
</svg>
