<?xml version="1.0" encoding="utf-8"?>
<!-- Generator: Adobe Illustrator 16.0.0, SVG Export Plug-In . SVG Version: 6.00 Build 0)  -->
<!DOCTYPE svg PUBLIC "-//W3C//DTD SVG 1.1//EN" "http://www.w3.org/Graphics/SVG/1.1/DTD/svg11.dtd">
<svg version="1.1" id="Layer_1" xmlns="http://www.w3.org/2000/svg" xmlns:xlink="http://www.w3.org/1999/xlink" x="0px" y="0px"
	 width="48px" height="48px" viewBox="0 0 48 48" enable-background="new 0 0 48 48" xml:space="preserve">
<g>
	<circle fill="#FFFFFF" cx="24" cy="24" r="24"/>
	<rect x="27.559" y="16.728" fill="#181819" width="6.779" height="1.942"/>
	<path fill="#181819" d="M33.74,20.3c-0.816-0.361-1.732-0.542-2.752-0.542c-1.715,0-3.106,0.536-4.184,1.601
		c-1.072,1.067-1.609,2.601-1.609,4.602c0,2.133,0.593,3.674,1.787,4.619C28.17,31.527,29.543,32,31.102,32
		c1.887,0,3.354-0.563,4.4-1.684c0.672-0.705,1.051-1.402,1.135-2.086h-3.123c-0.182,0.34-0.393,0.604-0.631,0.795
		c-0.436,0.352-1.004,0.529-1.697,0.529c-0.658,0-1.221-0.146-1.688-0.437c-0.77-0.466-1.174-1.277-1.225-2.435h8.522
		c0.015-0.996-0.021-1.763-0.103-2.292c-0.143-0.904-0.451-1.7-0.936-2.386C35.23,21.23,34.559,20.66,33.74,20.3z"/>
	<path fill="#181819" d="M18.845,16c1.93,0.028,3.295,0.582,4.1,1.663c0.483,0.664,0.726,1.457,0.726,2.382
		c0,0.952-0.242,1.72-0.731,2.299c-0.274,0.324-0.676,0.621-1.207,0.888c0.807,0.291,1.415,0.75,1.829,1.377
		c0.409,0.627,0.616,1.392,0.616,2.287c0,0.926-0.235,1.756-0.706,2.488c-0.298,0.486-0.671,0.896-1.12,1.229
		c-0.504,0.381-1.099,0.641-1.787,0.782c-0.688,0.143-1.431,0.211-2.235,0.211H11.2V16H18.845z"/>
	<path fill="#FFFFFF" d="M14.354,18.71h3.444c0.757,0,1.38,0.082,1.871,0.244c0.566,0.234,0.849,0.714,0.849,1.443
		c0,0.653-0.215,1.11-0.643,1.369c-0.431,0.259-0.989,0.388-1.674,0.388h-3.847V18.71z M29.164,22.908
		c0.432-0.439,1.043-0.659,1.826-0.659c0.723,0,1.326,0.207,1.816,0.621c0.483,0.417,0.758,1.023,0.813,1.825h-5.272
		C28.46,23.943,28.732,23.348,29.164,22.908z M18.249,24.736h-3.895v4.162h3.841c0.687,0,1.223-0.094,1.603-0.275
		c0.694-0.342,1.04-0.988,1.04-1.947c0-0.814-0.334-1.371-1.007-1.676C19.455,24.831,18.926,24.742,18.249,24.736z"/>
</g>
</svg>
