<?xml version="1.0" encoding="utf-8"?>
<!-- Generator: Adobe Illustrator 16.0.0, SVG Export Plug-In . SVG Version: 6.00 Build 0)  -->
<!DOCTYPE svg PUBLIC "-//W3C//DTD SVG 1.1//EN" "http://www.w3.org/Graphics/SVG/1.1/DTD/svg11.dtd">
<svg version="1.1" id="Layer_1" xmlns="http://www.w3.org/2000/svg" xmlns:xlink="http://www.w3.org/1999/xlink" x="0px" y="0px"
	 width="15px" height="14px" viewBox="0 0 15 14" enable-background="new 0 0 15 14" xml:space="preserve">
<g>
	<path id="path-1" fill="#FFFFFF" d="M14,12c0.553,0,1,0.447,1,1s-0.447,1-1,1l0,0H1c-0.552,0-1-0.447-1-1s0.448-1,1-1l0,0H14z
		 M14,6c0.553,0,1,0.448,1,1c0,0.553-0.447,1-1,1l0,0H1C0.448,8,0,7.553,0,7c0-0.552,0.448-1,1-1l0,0H14z M14,0c0.553,0,1,0.448,1,1
		s-0.447,1-1,1l0,0H1C0.448,2,0,1.552,0,1s0.448-1,1-1l0,0H14z"/>
</g>
<title>burger</title>
<desc>Created with Sketch.</desc>
<g id="GIFOS">
	<g id="_x30_0-UI-Kit" transform="translate(-669.000000, -2948.000000)">
		<g id="burger" transform="translate(669.000000, 2948.000000)">
			<g id="Combined-Shape">
				<path id="path-1_1_" fill="#FDCE30" d="M14,12c0.553,0,1,0.447,1,1s-0.447,1-1,1l0,0H1c-0.552,0-1-0.447-1-1s0.448-1,1-1l0,0H14
					z M14,6c0.553,0,1,0.448,1,1c0,0.553-0.447,1-1,1l0,0H1C0.448,8,0,7.553,0,7c0-0.552,0.448-1,1-1l0,0H14z M14,0
					c0.553,0,1,0.448,1,1s-0.447,1-1,1l0,0H1C0.448,2,0,1.552,0,1s0.448-1,1-1l0,0H14z"/>
			</g>
		</g>
	</g>
</g>
</svg>
