<?xml version="1.0" encoding="utf-8"?>
<!-- Generator: Adobe Illustrator 16.0.0, SVG Export Plug-In . SVG Version: 6.00 Build 0)  -->
<!DOCTYPE svg PUBLIC "-//W3C//DTD SVG 1.1//EN" "http://www.w3.org/Graphics/SVG/1.1/DTD/svg11.dtd">
<svg version="1.1" id="Layer_1" xmlns="http://www.w3.org/2000/svg" xmlns:xlink="http://www.w3.org/1999/xlink" x="0px" y="0px"
	 width="14px" height="14px" viewBox="0 0 14 14" enable-background="new 0 0 14 14" xml:space="preserve">
<g>
	<path id="path-1" fill="#FFFFFF" d="M0.293,0.293c0.391-0.391,1.023-0.391,1.414,0l0,0L7,5.585l5.293-5.292
		c0.36-0.36,0.928-0.388,1.32-0.083l0.094,0.083c0.391,0.391,0.391,1.023,0,1.414l0,0L8.415,7l5.292,5.293
		c0.36,0.36,0.389,0.928,0.084,1.32l-0.084,0.094c-0.391,0.391-1.023,0.391-1.414,0l0,0L7,8.415l-5.293,5.292
		c-0.36,0.36-0.928,0.389-1.32,0.083l-0.094-0.083c-0.391-0.391-0.391-1.023,0-1.414l0,0L5.585,7L0.293,1.707
		c-0.36-0.36-0.388-0.928-0.083-1.32L0.293,0.293z"/>
</g>
<title>close</title>
<desc>Created with Sketch.</desc>
<g id="GIFOS">
	<g id="_x30_0-UI-Kit" transform="translate(-669.000000, -2993.000000)">
		<g id="close" transform="translate(669.000000, 2993.000000)">
			<g>
				<path id="path-1_1_" fill="#FDCE30" d="M0.293,0.293c0.391-0.391,1.023-0.391,1.414,0l0,0L7,5.585l5.293-5.292
					c0.36-0.36,0.928-0.388,1.32-0.083l0.094,0.083c0.391,0.391,0.391,1.023,0,1.414l0,0L8.415,7l5.292,5.293
					c0.36,0.36,0.389,0.928,0.084,1.32l-0.084,0.094c-0.391,0.391-1.023,0.391-1.414,0l0,0L7,8.415l-5.293,5.292
					c-0.36,0.36-0.928,0.389-1.32,0.083l-0.094-0.083c-0.391-0.391-0.391-1.023,0-1.414l0,0L5.585,7L0.293,1.707
					c-0.36-0.36-0.388-0.928-0.083-1.32L0.293,0.293z"/>
			</g>
		</g>
	</g>
</g>
</svg>
