<?xml version="1.0" encoding="utf-8"?>
<!-- Generator: Adobe Illustrator 16.0.0, SVG Export Plug-In . SVG Version: 6.00 Build 0)  -->
<!DOCTYPE svg PUBLIC "-//W3C//DTD SVG 1.1//EN" "http://www.w3.org/Graphics/SVG/1.1/DTD/svg11.dtd">
<svg version="1.1" id="Layer_1" xmlns="http://www.w3.org/2000/svg" xmlns:xlink="http://www.w3.org/1999/xlink" x="0px" y="0px"
	 width="81.418px" height="81.417px" viewBox="0 0 81.418 81.417" enable-background="new 0 0 81.418 81.417" xml:space="preserve">
<path fill="#FCCD32" d="M6.129,0.369l6.29,71.28l28.29,9.399l28.29-9.399l6.29-71.28H6.129z M61.659,23.289l-20.77,8.89l-0.05,0.01
	h20.08l-2.31,26.4l-17.69,5.18l-17.79-5.27l-1.15-13.3h8.81l0.57,6.89l9.48,2.4l9.851-2.78l0.659-11.09l-29.95-0.09v-0.02
	l-0.03,0.02l-0.65-8.34l20.19-8.41l1.17-0.49h-22.14l-1.04-8.52h43.62L61.659,23.289z"/>
<polygon fill="#181819" points="40.889,32.179 40.839,32.188 60.919,32.188 58.609,58.588 40.919,63.768 23.129,58.499 
	21.979,45.199 30.789,45.199 31.359,52.088 40.839,54.489 50.689,51.708 51.349,40.619 21.399,40.528 21.399,40.508 21.369,40.528 
	20.719,32.188 40.909,23.778 42.079,23.289 19.939,23.289 18.899,14.769 62.519,14.769 61.659,23.289 "/>
</svg>
