<?xml version="1.0" encoding="utf-8"?>
<!-- Generator: Adobe Illustrator 16.0.0, SVG Export Plug-In . SVG Version: 6.00 Build 0)  -->
<!DOCTYPE svg PUBLIC "-//W3C//DTD SVG 1.1//EN" "http://www.w3.org/Graphics/SVG/1.1/DTD/svg11.dtd">
<svg version="1.1" id="Layer_1" xmlns="http://www.w3.org/2000/svg" xmlns:xlink="http://www.w3.org/1999/xlink" x="0px" y="0px"
	 width="48px" height="48px" viewBox="0 0 48 48" enable-background="new 0 0 48 48" xml:space="preserve">
<path fill="#FFFFFF" d="M24,0C10.75,0,0,10.75,0,24s10.75,24,24,24s24-10.75,24-24S37.25,0,24,0z M30.1,25.05h-3.6V38.11h-5.4V25.05
	h-2.7v-4.49h2.7v-2.71c0-3.67,1.52-5.85,5.85-5.85h3.609v4.5H28.3c-1.68,0-1.79,0.63-1.79,1.8l-0.01,2.25h4.08L30.1,25.05z"/>
<path fill="#181819" d="M30.58,20.55l-0.48,4.5h-3.6V38.11h-5.4V25.05h-2.7v-4.49h2.7v-2.71c0-3.67,1.52-5.85,5.85-5.85h3.609v4.5
	H28.3c-1.68,0-1.79,0.63-1.79,1.8l-0.01,2.25H30.58z"/>
</svg>
