<?xml version="1.0" encoding="utf-8"?>
<!-- Generator: Adobe Illustrator 16.0.0, SVG Export Plug-In . SVG Version: 6.00 Build 0)  -->
<!DOCTYPE svg PUBLIC "-//W3C//DTD SVG 1.1//EN" "http://www.w3.org/Graphics/SVG/1.1/DTD/svg11.dtd">
<svg version="1.1" id="Layer_1" xmlns="http://www.w3.org/2000/svg" xmlns:xlink="http://www.w3.org/1999/xlink" x="0px" y="0px"
	 width="48px" height="48px" viewBox="0 0 48 48" enable-background="new 0 0 48 48" xml:space="preserve">
<path fill="#181819" d="M24,0C10.75,0,0,10.75,0,24s10.75,24,24,24s24-10.75,24-24S37.25,0,24,0z M15.92,30
	c-3.49,0-6.32-2.78-6.32-6.2s2.83-6.2,6.32-6.2c3.49,0,6.32,2.78,6.32,6.2S19.41,30,15.92,30z M31.98,30c-3.5,0-6.33-2.78-6.33-6.2
	s2.83-6.2,6.33-6.2c3.489,0,6.31,2.78,6.31,6.2S35.47,30,31.98,30z"/>
</svg>
