<?xml version="1.0" encoding="utf-8"?>
<!-- Generator: Adobe Illustrator 16.0.0, SVG Export Plug-In . SVG Version: 6.00 Build 0)  -->
<!DOCTYPE svg PUBLIC "-//W3C//DTD SVG 1.1//EN" "http://www.w3.org/Graphics/SVG/1.1/DTD/svg11.dtd">
<svg version="1.1" id="Layer_1" xmlns="http://www.w3.org/2000/svg" xmlns:xlink="http://www.w3.org/1999/xlink" x="0px" y="0px"
	 width="81.418px" height="81.417px" viewBox="0 0 81.418 81.417" enable-background="new 0 0 81.418 81.417" xml:space="preserve">
<path fill="#EA2127" d="M180.908,38.057v0.33c0-0.137,0-0.246-0.027-0.357L180.908,38.057z"/>
<path fill="#181819" d="M48.094,60.184c1.461,1.289,2.77,3.829,2.77,7.729c0,5.59-0.049,10.09-0.049,11.47
	c0,0.271,0.039,0.551,0.129,0.811c-3.27,0.84-6.689,1.29-10.219,1.29c-0.74,0-1.48-0.03-2.2-0.07c-0.16-0.02-0.33-0.02-0.47-0.02
	c-0.13-0.021-0.271-0.021-0.41-0.061c-2.46-0.18-4.86-0.58-7.17-1.18c0.08-0.25,0.12-0.521,0.12-0.771
	c0-0.989-0.03-4.29-0.051-7.779c-11.34,2.529-13.739-4.931-13.739-4.931c-1.851-4.83-4.521-6.12-4.521-6.12
	c-3.7-2.59,0.28-2.54,0.28-2.54c4.09,0.29,6.24,4.311,6.24,4.311c3.64,6.39,9.55,4.55,11.87,3.479c0.359-2.71,1.42-4.55,2.59-5.6
	c-9.061-1.05-18.58-4.63-18.58-20.65c0-4.57,1.59-8.3,4.2-11.22c-0.42-1.06-1.82-5.31,0.399-11.07c0,0,3.42-1.12,11.21,4.29
	c3.261-0.93,6.74-1.39,10.21-1.41c3.46,0.02,6.951,0.48,10.21,1.41c7.779-5.41,11.199-4.29,11.199-4.29
	c2.221,5.76,0.82,10.01,0.4,11.07c2.621,2.92,4.201,6.65,4.201,11.22C66.715,55.604,57.174,59.144,48.094,60.184z"/>
<path fill="#FCCD32" d="M81.484,40.694c0,0.35,0,0.7-0.01,1.04c0,0.01,0,0.01,0,0.02c-0.48,18.54-13.301,33.99-30.531,38.44
	c-0.09-0.26-0.129-0.54-0.129-0.811c0-1.38,0.049-5.88,0.049-11.47c0-3.9-1.309-6.44-2.77-7.729c9.08-1.04,18.621-4.58,18.621-20.63
	c0-4.57-1.58-8.3-4.201-11.22c0.42-1.06,1.82-5.31-0.4-11.07c0,0-3.42-1.12-11.199,4.29c-3.26-0.93-6.75-1.39-10.21-1.41
	c-3.47,0.02-6.949,0.48-10.21,1.41c-7.79-5.41-11.21-4.29-11.21-4.29c-2.22,5.76-0.819,10.01-0.399,11.07
	c-2.61,2.92-4.2,6.65-4.2,11.22c0,16.02,9.52,19.6,18.58,20.65c-1.17,1.05-2.23,2.89-2.59,5.6c-2.32,1.07-8.23,2.91-11.87-3.479
	c0,0-2.15-4.021-6.24-4.311c0,0-3.98-0.05-0.28,2.54c0,0,2.67,1.29,4.521,6.12c0,0,2.399,7.46,13.739,4.931
	c0.021,3.489,0.051,6.79,0.051,7.779c0,0.25-0.04,0.521-0.12,0.771c-17.431-4.47-30.311-20.19-30.53-38.96
	c-0.01-0.16-0.01-0.33-0.01-0.5c0-21.39,16.47-38.93,37.45-40.62c1.1-0.09,2.199-0.14,3.319-0.14c1.07,0,2.13,0.04,3.181,0.12
	c19.979,1.53,35.92,17.47,37.459,37.45c0.029,0.4,0.061,0.85,0.08,1.26C81.453,39.404,81.484,40.034,81.484,40.694z"/>
</svg>
