<?xml version="1.0" encoding="utf-8"?>
<!-- Generator: Adobe Illustrator 16.0.0, SVG Export Plug-In . SVG Version: 6.00 Build 0)  -->
<!DOCTYPE svg PUBLIC "-//W3C//DTD SVG 1.1//EN" "http://www.w3.org/Graphics/SVG/1.1/DTD/svg11.dtd">
<svg version="1.1" id="Layer_1" xmlns="http://www.w3.org/2000/svg" xmlns:xlink="http://www.w3.org/1999/xlink" x="0px" y="0px"
	 width="20px" height="20px" viewBox="0 0 20 20" enable-background="new 0 0 20 20" xml:space="preserve">
<title>github [#142]</title>
<desc>Created with Sketch.</desc>
<g id="Page-1">
	<g id="Dribbble-Light-Preview" transform="translate(-140.000000, -7559.000000)">
		<g id="icons" transform="translate(56.000000, 160.000000)">
			<path id="github-_x5B__x23_142_x5D_" fill="#181819" d="M94,7399c5.523,0,10,4.59,10,10.253c0,4.529-2.861,8.371-6.833,9.728
				c-0.507,0.102-0.687-0.219-0.687-0.492c0-0.338,0.012-1.441,0.012-2.813c0-0.956-0.32-1.579-0.68-1.897
				c2.228-0.254,4.567-1.121,4.567-5.06c0-1.12-0.388-2.034-1.03-2.752c0.104-0.259,0.447-1.302-0.098-2.714
				c0,0-0.838-0.275-2.747,1.051c-0.799-0.227-1.655-0.341-2.505-0.345c-0.85,0.004-1.705,0.118-2.503,0.345
				c-1.911-1.326-2.751-1.051-2.751-1.051c-0.543,1.412-0.2,2.455-0.097,2.714c-0.639,0.718-1.03,1.632-1.03,2.752
				c0,3.929,2.335,4.808,4.556,5.067c-0.286,0.256-0.545,0.708-0.635,1.371c-0.57,0.262-2.018,0.715-2.91-0.852
				c0,0-0.529-0.986-1.533-1.058c0,0-0.975-0.013-0.068,0.623c0,0,0.655,0.315,1.11,1.5c0,0,0.587,1.83,3.369,1.21
				c0.005,0.857,0.014,1.665,0.014,1.908c0,0.271-0.184,0.589-0.683,0.494c-3.974-1.355-6.839-5.199-6.839-9.729
				C84,7403.59,88.478,7399,94,7399"/>
		</g>
	</g>
</g>
</svg>
