<?xml version="1.0" encoding="utf-8"?>
<!-- Generator: Adobe Illustrator 16.0.0, SVG Export Plug-In . SVG Version: 6.00 Build 0)  -->
<!DOCTYPE svg PUBLIC "-//W3C//DTD SVG 1.1//EN" "http://www.w3.org/Graphics/SVG/1.1/DTD/svg11.dtd">
<svg version="1.1" id="Layer_1" xmlns="http://www.w3.org/2000/svg" xmlns:xlink="http://www.w3.org/1999/xlink" x="0px" y="0px"
	 width="20px" height="20px" viewBox="0 0 20 20" enable-background="new 0 0 20 20" xml:space="preserve">
<title>github [#142]</title>
<desc>Created with Sketch.</desc>
<g>
	<g id="Page-1_1_">
		<g id="Dribbble-Light-Preview_1_" transform="translate(-140.000000, -7559.000000)">
			<g id="icons_1_" transform="translate(56.000000, 160.000000)">
				<path fill="#FFFFFF" d="M104,7409.251c0,0.25-0.01,0.5-0.031,0.75c-0.02,0.27-0.049,0.54-0.09,0.81
					c-0.01,0.091-0.02,0.19-0.039,0.28c-0.031,0.15-0.061,0.3-0.09,0.45c-0.021,0.09-0.041,0.18-0.07,0.27
					c-0.32,1.311-0.9,2.521-1.67,3.57c-0.131,0.19-0.27,0.36-0.42,0.54c-0.34,0.41-0.721,0.79-1.121,1.14
					c-0.16,0.141-0.318,0.271-0.49,0.4c-0.17,0.14-0.35,0.271-0.539,0.39c-0.08,0.061-0.17,0.11-0.26,0.17
					c-0.131,0.08-0.27,0.16-0.41,0.24s-0.279,0.15-0.42,0.221c-0.01,0.01-0.029,0.02-0.051,0.02c-0.219,0.11-0.439,0.21-0.67,0.3
					c-0.109,0.05-0.24,0.101-0.359,0.141c-0.041,0.01-0.09,0.029-0.131,0.04c-0.488,0.09-0.66-0.221-0.66-0.49
					c0-0.34,0.012-1.44,0.012-2.811c0-0.96-0.32-1.58-0.682-1.899c2.23-0.25,4.57-1.12,4.57-5.061c0-1.12-0.389-2.04-1.029-2.75
					c0.1-0.261,0.439-1.301-0.1-2.721c0,0-0.84-0.27-2.75,1.05c-0.801-0.22-1.65-0.34-2.5-0.34c-0.85,0-1.709,0.12-2.51,0.34
					c-1.91-1.319-2.75-1.05-2.75-1.05c-0.539,1.42-0.199,2.46-0.1,2.721c-0.641,0.71-1.029,1.63-1.029,2.75
					c0,3.931,2.34,4.811,4.559,5.07c-0.289,0.25-0.539,0.7-0.629,1.37c-0.57,0.26-2.021,0.71-2.91-0.86c0,0-0.531-0.979-1.541-1.05
					c0,0-0.969-0.02-0.07,0.62c0,0,0.66,0.31,1.111,1.5c0,0,0.59,1.83,3.369,1.21c0.01,0.86,0.02,1.66,0.02,1.91
					c0,0.26-0.18,0.58-0.658,0.49c-0.141-0.04-0.281-0.091-0.42-0.15c-0.23-0.09-0.451-0.18-0.66-0.29
					c-0.07-0.021-0.131-0.06-0.201-0.09c-0.119-0.061-0.24-0.12-0.35-0.19c-0.189-0.1-0.381-0.22-0.561-0.33
					c-0.199-0.13-0.379-0.26-0.57-0.399c-0.799-0.601-1.52-1.33-2.109-2.15c-0.07-0.1-0.141-0.2-0.209-0.3
					c-0.121-0.17-0.23-0.34-0.33-0.521c-0.17-0.279-0.32-0.569-0.461-0.869c-0.141-0.29-0.26-0.58-0.369-0.891
					c-0.121-0.319-0.221-0.649-0.301-0.99c-0.029-0.09-0.051-0.18-0.07-0.27c-0.039-0.15-0.059-0.3-0.09-0.45
					c-0.02-0.09-0.029-0.189-0.039-0.28c-0.041-0.27-0.07-0.54-0.09-0.81c-0.021-0.25-0.031-0.5-0.031-0.75
					C84,7403.59,88.47,7399,94,7399C99.52,7399,104,7403.59,104,7409.251z"/>
			</g>
		</g>
	</g>
	<path fill="#181819" d="M11.809,14.781c0.361,0.319,0.682,0.939,0.682,1.899c0,1.37-0.012,2.471-0.012,2.811
		c0,0.27,0.172,0.58,0.66,0.49c-0.988,0.34-2.039,0.52-3.139,0.52c-1.1,0-2.16-0.18-3.139-0.52c0.479,0.09,0.658-0.23,0.658-0.49
		c0-0.25-0.01-1.05-0.02-1.91c-2.779,0.62-3.369-1.21-3.369-1.21c-0.451-1.19-1.111-1.5-1.111-1.5c-0.898-0.64,0.07-0.62,0.07-0.62
		c1.01,0.07,1.541,1.05,1.541,1.05c0.889,1.57,2.34,1.12,2.91,0.86c0.09-0.67,0.34-1.12,0.629-1.37
		c-2.219-0.26-4.559-1.14-4.559-5.07c0-1.12,0.389-2.04,1.029-2.75C4.541,6.71,4.201,5.67,4.74,4.25c0,0,0.84-0.27,2.75,1.05
		C8.291,5.08,9.15,4.96,10,4.96c0.85,0,1.7,0.12,2.5,0.34c1.91-1.319,2.75-1.05,2.75-1.05c0.539,1.42,0.199,2.46,0.1,2.721
		c0.641,0.71,1.029,1.63,1.029,2.75C16.379,13.661,14.039,14.531,11.809,14.781z"/>
</g>
</svg>
