<?xml version="1.0" encoding="utf-8"?>
<!-- Generator: Adobe Illustrator 16.0.0, SVG Export Plug-In . SVG Version: 6.00 Build 0)  -->
<!DOCTYPE svg PUBLIC "-//W3C//DTD SVG 1.1//EN" "http://www.w3.org/Graphics/SVG/1.1/DTD/svg11.dtd">
<svg version="1.1" id="Layer_1" xmlns="http://www.w3.org/2000/svg" xmlns:xlink="http://www.w3.org/1999/xlink" x="0px" y="0px"
	 width="81.418px" height="81.417px" viewBox="0 0 81.418 81.417" enable-background="new 0 0 81.418 81.417" xml:space="preserve">
<path fill="#EA2127" d="M180.908,38.057v0.33c0-0.137,0-0.246-0.027-0.357L180.908,38.057z"/>
<path fill="#FCCD32" d="M6.129,0.369l6.29,71.28l28.2,9.399l28.39-9.399l6.28-71.28H6.129z M61.639,23.398h-33.1l0.73,8.9h31.63
	l-2.45,26.73l-17.63,4.859v0.051h-0.2l-17.78-4.91l-1.08-13.66h8.6l0.62,6.87l9.64,2.609l9.67-2.609l1.08-11.21h-30.06l-2.3-26.22
	h43.42L61.639,23.398z"/>
<polygon fill="#181819" points="61.639,23.398 28.539,23.398 29.269,32.298 60.899,32.298 58.449,59.029 40.819,63.888 
	40.819,63.939 40.619,63.939 22.839,59.029 21.759,45.369 30.359,45.369 30.979,52.239 40.619,54.848 50.289,52.239 51.369,41.028 
	21.309,41.028 19.009,14.809 62.429,14.809 "/>
</svg>
