<?xml version="1.0" encoding="utf-8"?>
<!-- Generator: Adobe Illustrator 16.0.0, SVG Export Plug-In . SVG Version: 6.00 Build 0)  -->
<!DOCTYPE svg PUBLIC "-//W3C//DTD SVG 1.1//EN" "http://www.w3.org/Graphics/SVG/1.1/DTD/svg11.dtd">
<svg version="1.1" id="Layer_1" xmlns="http://www.w3.org/2000/svg" xmlns:xlink="http://www.w3.org/1999/xlink" x="0px" y="0px"
	 width="81.418px" height="81.417px" viewBox="0 0 81.418 81.417" enable-background="new 0 0 81.418 81.417" xml:space="preserve">
<path fill="#EA2127" d="M180.908,38.057v0.33c0-0.137,0-0.246-0.027-0.357L180.908,38.057z"/>
<g>
	<g>
		<g>
			<path fill="#FCCD32" d="M81.484,40.694c0,22.54-18.25,40.79-40.76,40.79c-0.74,0-1.48-0.029-2.2-0.061
				c-0.159-0.029-0.33-0.029-0.47-0.029c-0.131-0.02-0.271-0.02-0.41-0.051c-21.109-1.539-37.71-19.159-37.71-40.649
				c0-22.51,18.25-40.76,40.79-40.76c21.44,0,39,16.55,40.62,37.57c0.031,0.409,0.061,0.85,0.08,1.26
				C81.453,39.404,81.484,40.034,81.484,40.694z"/>
		</g>
	</g>
	<g>
		<g>
			<path d="M20.371,28.081c2.047-3.707,4.902-6.595,8.564-8.668c3.664-2.068,7.816-3.104,12.456-3.104
				c5.689,0,10.559,1.502,14.609,4.504c4.049,3.002,6.756,7.099,8.121,12.287H51.289c-0.955-2.002-2.311-3.527-4.061-4.574
				c-1.752-1.047-3.742-1.569-5.973-1.569c-3.594,0-6.508,1.253-8.738,3.755c-2.228,2.502-3.344,5.846-3.344,10.031
				c0,4.188,1.116,7.532,3.344,10.034c2.229,2.502,5.144,3.755,8.738,3.755c2.23,0,4.221-0.524,5.973-1.572
				c1.75-1.044,3.105-2.569,4.061-4.571h12.832c-1.365,5.188-4.072,9.271-8.121,12.25c-4.051,2.979-8.92,4.471-14.609,4.471
				c-4.639,0-8.792-1.034-12.456-3.104c-3.662-2.071-6.518-4.948-8.564-8.634s-3.072-7.896-3.072-12.628
				S18.324,31.792,20.371,28.081z"/>
		</g>
	</g>
</g>
</svg>
