<?xml version="1.0" encoding="utf-8"?>
<!-- Generator: Adobe Illustrator 16.0.0, SVG Export Plug-In . SVG Version: 6.00 Build 0)  -->
<!DOCTYPE svg PUBLIC "-//W3C//DTD SVG 1.1//EN" "http://www.w3.org/Graphics/SVG/1.1/DTD/svg11.dtd">
<svg version="1.1" id="Layer_1" xmlns="http://www.w3.org/2000/svg" xmlns:xlink="http://www.w3.org/1999/xlink" x="0px" y="0px"
	 width="81.418px" height="81.417px" viewBox="0 0 81.418 81.417" enable-background="new 0 0 81.418 81.417" xml:space="preserve">
<g>
	<g>
		<g>
			<path fill="#FCCD32" d="M81.484,40.694c0,22.54-18.25,40.79-40.76,40.79c-0.74,0-1.48-0.029-2.2-0.06
				c-0.16-0.03-0.33-0.03-0.47-0.03c-0.13-0.02-0.271-0.02-0.41-0.05c-21.11-1.54-37.71-19.16-37.71-40.65
				c0-22.51,18.25-40.76,40.79-40.76c21.44,0,39,16.55,40.62,37.57c0.031,0.409,0.061,0.85,0.08,1.26
				C81.453,39.404,81.484,40.034,81.484,40.694z"/>
		</g>
	</g>
	<g>
		<path fill="#181819" d="M38.222,21.014h-8.38l-15.28,39.25h8.41l3.22-8.93h15.69l3.44,8.93h8.6L38.222,21.014z M28.632,44.734
			l5.31-14.57l5.41,14.57H28.632z"/>
		<rect x="55.352" y="21.014" fill="#181819" width="7.5" height="6.95"/>
		<rect x="55.352" y="31.814" fill="#181819" width="7.5" height="28.45"/>
	</g>
</g>
</svg>
