<?xml version="1.0" encoding="utf-8"?>
<!-- Generator: Adobe Illustrator 16.0.0, SVG Export Plug-In . SVG Version: 6.00 Build 0)  -->
<!DOCTYPE svg PUBLIC "-//W3C//DTD SVG 1.1//EN" "http://www.w3.org/Graphics/SVG/1.1/DTD/svg11.dtd">
<svg version="1.1" id="Layer_1" xmlns="http://www.w3.org/2000/svg" xmlns:xlink="http://www.w3.org/1999/xlink" x="0px" y="0px"
	 width="81.418px" height="81.417px" viewBox="0 0 81.418 81.417" enable-background="new 0 0 81.418 81.417" xml:space="preserve">
<g>
	<g>
		<path fill="#181819" d="M81.484,40.694c0,22.54-18.25,40.79-40.76,40.79c-0.74,0-1.48-0.029-2.2-0.061
			c-0.16-0.029-0.33-0.029-0.47-0.029c-0.13-0.02-0.271-0.02-0.41-0.051c-21.11-1.539-37.71-19.159-37.71-40.649
			c0-22.51,18.25-40.76,40.79-40.76c21.44,0,39,16.55,40.62,37.57c0.031,0.409,0.061,0.85,0.08,1.26
			C81.453,39.404,81.484,40.034,81.484,40.694z"/>
	</g>
</g>
<g>
	<rect x="21.936" y="21.375" fill="#FCCD32" width="7.685" height="38.034"/>
	<path fill="#FCCD32" d="M52.197,21.375v13.702c-2.248-2.556-4.916-3.843-7.984-3.843c-0.375,0-0.727,0.023-1.078,0.047
		c-0.188,0-0.352,0.021-0.516,0.049c-0.282,0.046-0.539,0.064-0.822,0.141c-0.373,0.068-0.746,0.163-1.121,0.278
		c-1.828,0.563-3.42,1.618-4.803,3.138c-2.2,2.416-3.303,5.973-3.303,10.636c0,4.564,1.148,8.125,3.397,10.682
		c2.247,2.553,4.966,3.838,8.124,3.838c3.096,0,6.348-1.5,8.621-4.686v4.053h6.77V21.375H52.197z M50.465,52.128
		c-1.168,1.428-2.6,2.152-4.287,2.152c-2.107,0-3.75-0.961-4.917-2.855c-0.819-1.313-1.24-3.447-1.24-6.396
		c0-2.713,0.585-4.776,1.759-6.159c1.168-1.358,2.619-2.061,4.35-2.061c1.783,0,3.234,0.703,4.381,2.086
		c1.152,1.406,1.713,3.676,1.713,6.836C52.223,48.57,51.635,50.697,50.465,52.128z"/>
</g>
</svg>
