<?xml version="1.0" encoding="utf-8"?>
<!-- Generator: Adobe Illustrator 16.0.0, SVG Export Plug-In . SVG Version: 6.00 Build 0)  -->
<!DOCTYPE svg PUBLIC "-//W3C//DTD SVG 1.1//EN" "http://www.w3.org/Graphics/SVG/1.1/DTD/svg11.dtd">
<svg version="1.1" id="Layer_1" xmlns="http://www.w3.org/2000/svg" xmlns:xlink="http://www.w3.org/1999/xlink" x="0px" y="0px"
	 width="48px" height="48px" viewBox="0 0 48 48" enable-background="new 0 0 48 48" xml:space="preserve">
<circle fill="#FFFFFF" cx="24" cy="24" r="24"/>
<path fill="#181819" d="M18.723,11.277c1.365-0.062,1.802-0.077,5.278-0.077h-0.004c3.478,0,3.912,0.015,5.276,0.077
	c1.363,0.063,2.295,0.278,3.109,0.595c0.844,0.327,1.555,0.764,2.268,1.476c0.713,0.711,1.148,1.425,1.478,2.267
	c0.315,0.814,0.53,1.744,0.595,3.107C36.784,20.087,36.8,20.524,36.8,24c0,3.477-0.016,3.912-0.077,5.277
	c-0.063,1.361-0.279,2.291-0.595,3.105c-0.328,0.842-0.765,1.557-1.478,2.268c-0.711,0.713-1.424,1.149-2.267,1.479
	c-0.813,0.316-1.745,0.531-3.108,0.594c-1.364,0.063-1.799,0.078-5.276,0.078c-3.476,0-3.912-0.016-5.277-0.078
	c-1.362-0.063-2.293-0.277-3.107-0.594c-0.842-0.328-1.556-0.766-2.267-1.479c-0.711-0.711-1.149-1.426-1.476-2.269
	c-0.316-0.813-0.532-1.743-0.595-3.104C11.215,27.911,11.2,27.477,11.2,24c0-3.476,0.016-3.913,0.077-5.278
	c0.062-1.362,0.277-2.292,0.595-3.106c0.328-0.842,0.766-1.556,1.478-2.267c0.711-0.712,1.426-1.149,2.268-1.476
	C16.431,11.556,17.361,11.34,18.723,11.277z"/>
<path fill="#FFFFFF" d="M22.853,13.507c0.223,0,0.463,0,0.722,0h0.427c3.417,0,3.823,0.012,5.172,0.073
	c1.248,0.057,1.926,0.266,2.377,0.441c0.598,0.232,1.022,0.509,1.471,0.958c0.447,0.448,0.726,0.875,0.957,1.472
	c0.176,0.451,0.385,1.128,0.441,2.376c0.061,1.349,0.074,1.754,0.074,5.17s-0.014,3.821-0.074,5.171
	c-0.057,1.248-0.266,1.926-0.441,2.376c-0.23,0.597-0.51,1.022-0.957,1.472c-0.447,0.447-0.873,0.726-1.471,0.957
	c-0.451,0.176-1.129,0.383-2.377,0.439c-1.35,0.063-1.755,0.074-5.172,0.074c-3.418,0-3.823-0.012-5.172-0.074
	c-1.248-0.057-1.925-0.266-2.377-0.439c-0.597-0.232-1.024-0.511-1.472-0.959c-0.448-0.447-0.725-0.873-0.958-1.471
	c-0.175-0.451-0.384-1.128-0.44-2.376c-0.062-1.351-0.074-1.755-0.074-5.173s0.012-3.821,0.074-5.171
	c0.057-1.248,0.266-1.925,0.44-2.376c0.232-0.597,0.51-1.024,0.958-1.472c0.448-0.448,0.875-0.725,1.472-0.958
	c0.451-0.176,1.129-0.384,2.377-0.441c1.181-0.053,1.638-0.069,4.024-0.072L22.853,13.507L22.853,13.507z"/>
<path fill="#181819" d="M30.834,15.632c-0.848,0-1.536,0.688-1.536,1.536s0.688,1.536,1.536,1.536s1.536-0.688,1.536-1.536
	S31.682,15.632,30.834,15.632L30.834,15.632z"/>
<circle fill="#181819" cx="24.001" cy="24" r="6.573"/>
<path fill="#FFFFFF" d="M24.001,19.733c2.356,0,4.267,1.91,4.267,4.267c0,2.357-1.91,4.268-4.267,4.268
	c-2.357,0-4.267-1.91-4.267-4.268C19.734,21.643,21.645,19.733,24.001,19.733z"/>
</svg>
