<?xml version="1.0" encoding="utf-8"?>
<!-- Generator: Adobe Illustrator 16.0.0, SVG Export Plug-In . SVG Version: 6.00 Build 0)  -->
<!DOCTYPE svg PUBLIC "-//W3C//DTD SVG 1.1//EN" "http://www.w3.org/Graphics/SVG/1.1/DTD/svg11.dtd">
<svg version="1.1" id="Layer_1" xmlns="http://www.w3.org/2000/svg" xmlns:xlink="http://www.w3.org/1999/xlink" x="0px" y="0px"
	 width="48px" height="48px" viewBox="0 0 48 48" enable-background="new 0 0 48 48" xml:space="preserve">
<path fill="#181819" d="M24,0C10.745,0,0,10.745,0,24s10.745,24,24,24s24-10.745,24-24S37.255,0,24,0z M18.723,11.277
	c1.365-0.062,1.802-0.077,5.278-0.077h-0.004c3.478,0,3.912,0.015,5.276,0.077c1.363,0.063,2.295,0.278,3.109,0.595
	c0.844,0.327,1.555,0.764,2.268,1.476c0.713,0.711,1.148,1.425,1.478,2.267c0.315,0.814,0.53,1.744,0.595,3.107
	C36.784,20.087,36.8,20.524,36.8,24c0,3.477-0.016,3.912-0.077,5.277c-0.063,1.361-0.279,2.291-0.595,3.105
	c-0.328,0.842-0.765,1.557-1.478,2.268c-0.711,0.713-1.424,1.149-2.267,1.479c-0.813,0.316-1.745,0.531-3.108,0.594
	c-1.364,0.063-1.799,0.078-5.276,0.078c-3.476,0-3.912-0.016-5.277-0.078c-1.362-0.063-2.293-0.277-3.107-0.594
	c-0.842-0.328-1.556-0.766-2.267-1.479c-0.711-0.711-1.149-1.426-1.476-2.269c-0.316-0.813-0.532-1.743-0.595-3.104
	C11.215,27.911,11.2,27.477,11.2,24c0-3.476,0.016-3.913,0.077-5.278c0.062-1.362,0.277-2.292,0.595-3.106
	c0.328-0.842,0.766-1.556,1.478-2.267c0.711-0.712,1.426-1.149,2.268-1.476C16.431,11.556,17.361,11.34,18.723,11.277z"/>
<path fill="#181819" d="M34.42,18.83c-0.06-1.25-0.27-1.93-0.439-2.38c-0.23-0.6-0.511-1.02-0.961-1.47
	c-0.449-0.45-0.869-0.73-1.47-0.96c-0.45-0.17-1.13-0.38-2.38-0.44c-1.34-0.06-1.75-0.07-5.17-0.07h-1.15V13.5
	c-2.38,0.01-2.84,0.02-4.02,0.08c-1.25,0.05-1.93,0.26-2.38,0.44c-0.59,0.23-1.02,0.51-1.47,0.96c-0.45,0.44-0.73,0.87-0.96,1.47
	c-0.17,0.45-0.38,1.13-0.44,2.37c-0.06,1.35-0.07,1.76-0.07,5.17c0,3.42,0.01,3.83,0.07,5.18c0.06,1.25,0.27,1.92,0.44,2.37
	c0.24,0.6,0.51,1.03,0.96,1.47c0.45,0.45,0.88,0.73,1.47,0.96c0.45,0.181,1.13,0.391,2.38,0.44c1.35,0.06,1.75,0.08,5.17,0.08
	s3.82-0.021,5.17-0.08c1.25-0.05,1.93-0.26,2.38-0.44c0.601-0.229,1.021-0.51,1.47-0.95c0.45-0.449,0.73-0.88,0.961-1.479
	c0.17-0.45,0.38-1.12,0.439-2.37c0.061-1.35,0.07-1.76,0.07-5.17C34.49,20.58,34.48,20.18,34.42,18.83z M24,30.57
	c-3.63,0-6.57-2.94-6.57-6.57s2.94-6.57,6.57-6.57s6.57,2.94,6.57,6.57S27.63,30.57,24,30.57z M30.83,18.7
	c-0.84,0-1.53-0.68-1.53-1.53s0.69-1.54,1.53-1.54c0.85,0,1.54,0.69,1.54,1.54S31.68,18.7,30.83,18.7z"/>
<path fill="#181819" d="M28.27,24c0,2.36-1.909,4.27-4.27,4.27c-2.36,0-4.27-1.909-4.27-4.27c0-2.36,1.92-4.27,4.27-4.27
	C26.36,19.73,28.27,21.64,28.27,24z"/>
</svg>
