<?xml version="1.0" encoding="utf-8"?>
<!-- Generator: Adobe Illustrator 16.0.0, SVG Export Plug-In . SVG Version: 6.00 Build 0)  -->
<!DOCTYPE svg PUBLIC "-//W3C//DTD SVG 1.1//EN" "http://www.w3.org/Graphics/SVG/1.1/DTD/svg11.dtd">
<svg version="1.1" id="Layer_1" xmlns="http://www.w3.org/2000/svg" xmlns:xlink="http://www.w3.org/1999/xlink" x="0px" y="0px"
	 width="81.418px" height="81.417px" viewBox="0 0 81.418 81.417" enable-background="new 0 0 81.418 81.417" xml:space="preserve">
<path fill="#EA2127" d="M180.908,38.057v0.33c0-0.137,0-0.246-0.027-0.357L180.908,38.057z"/>
<path fill="#181819" d="M72.239,0.579H9.179c-4.74,0-8.6,3.86-8.6,8.61v63.04c0,4.75,3.86,8.61,8.6,8.61h63.06
	c4.739,0,8.6-3.86,8.6-8.61V9.188C80.839,4.438,76.979,0.579,72.239,0.579z M44.259,63.168c0,7.82-4.59,11.38-11.27,11.38
	c-6.04,0-9.53-3.12-11.32-6.899l6.14-3.71c1.18,2.1,2.26,3.869,4.86,3.869c2.47,0,4.04-0.97,4.04-4.739v-25.63h7.55V63.168z
	 M62.099,74.548c-7.01,0-11.54-3.34-13.739-7.71l6.14-3.54c1.61,2.63,3.729,4.58,7.44,4.58c3.109,0,5.119-1.55,5.119-3.72
	c0-2.58-2.04-3.5-5.5-5.021l-1.88-0.81c-5.45-2.3-9.05-5.23-9.05-11.37c0-5.66,4.32-9.96,11.04-9.96c4.8,0,8.24,1.67,10.71,6.04
	l-5.88,3.76c-1.28-2.31-2.68-3.22-4.85-3.22c-2.2,0-3.601,1.39-3.601,3.22c0,2.26,1.4,3.17,4.641,4.59l1.88,0.801
	c6.409,2.739,10.01,5.56,10.01,11.859C74.579,70.819,69.239,74.548,62.099,74.548z"/>
<path fill="#FCCD32" d="M74.579,64.048c0,6.771-5.34,10.5-12.48,10.5c-7.01,0-11.54-3.34-13.739-7.71l6.14-3.54
	c1.61,2.63,3.729,4.58,7.44,4.58c3.109,0,5.119-1.55,5.119-3.72c0-2.58-2.04-3.5-5.5-5.021l-1.88-0.81
	c-5.45-2.3-9.05-5.23-9.05-11.37c0-5.66,4.32-9.96,11.04-9.96c4.8,0,8.24,1.67,10.71,6.04l-5.88,3.76
	c-1.28-2.31-2.68-3.22-4.85-3.22c-2.2,0-3.601,1.39-3.601,3.22c0,2.26,1.4,3.17,4.641,4.59l1.88,0.801
	C70.979,54.928,74.579,57.749,74.579,64.048z"/>
<path fill="#FCCD32" d="M44.259,37.438v25.73c0,7.82-4.59,11.38-11.27,11.38c-6.04,0-9.53-3.12-11.32-6.899l6.14-3.71
	c1.18,2.1,2.26,3.869,4.86,3.869c2.47,0,4.04-0.97,4.04-4.739v-25.63H44.259z"/>
</svg>
