<?xml version="1.0" encoding="utf-8"?>
<!-- Generator: Adobe Illustrator 16.0.0, SVG Export Plug-In . SVG Version: 6.00 Build 0)  -->
<!DOCTYPE svg PUBLIC "-//W3C//DTD SVG 1.1//EN" "http://www.w3.org/Graphics/SVG/1.1/DTD/svg11.dtd">
<svg version="1.1" id="Layer_1" xmlns="http://www.w3.org/2000/svg" xmlns:xlink="http://www.w3.org/1999/xlink" x="0px" y="0px"
	 width="48px" height="48px" viewBox="0 0 48 48" enable-background="new 0 0 48 48" xml:space="preserve">
<path fill="#181819" d="M24,0C10.75,0,0,10.75,0,24s10.75,24,24,24s24-10.75,24-24S37.25,0,24,0z M16.96,36.22h-5.44V19.88h5.44
	V36.22z M14.24,17.65h-0.03c-1.83,0-3.01-1.26-3.01-2.83c0-1.6,1.22-2.82,3.08-2.82c1.86,0,3,1.22,3.04,2.82
	C17.32,16.39,16.14,17.65,14.24,17.65z M36.58,36.22h-5.44V27.48c0-2.2-0.79-3.701-2.76-3.701c-1.5,0-2.399,1.01-2.79,1.99
	c-0.14,0.351-0.18,0.841-0.18,1.32v9.13h-5.44c0,0,0.07-14.81,0-16.34h5.44v2.31c0.72-1.11,2.02-2.7,4.899-2.7
	c3.58,0,6.271,2.34,6.271,7.359V36.22z"/>
</svg>
