<?xml version="1.0" encoding="utf-8"?>
<!-- Generator: Adobe Illustrator 16.0.0, SVG Export Plug-In . SVG Version: 6.00 Build 0)  -->
<!DOCTYPE svg PUBLIC "-//W3C//DTD SVG 1.1//EN" "http://www.w3.org/Graphics/SVG/1.1/DTD/svg11.dtd">
<svg version="1.1" id="Layer_1" xmlns="http://www.w3.org/2000/svg" xmlns:xlink="http://www.w3.org/1999/xlink" x="0px" y="0px"
	 width="48px" height="48px" viewBox="0 0 48 48" enable-background="new 0 0 48 48" xml:space="preserve">
<circle fill="#FFFFFF" cx="24" cy="24" r="24"/>
<rect x="11.521" y="19.878" fill="#181819" width="5.439" height="16.342"/>
<path fill="#181819" d="M17.319,14.823C17.284,13.22,16.138,12,14.277,12c-1.86,0-3.077,1.22-3.077,2.823
	c0,1.569,1.18,2.825,3.006,2.825h0.035C16.138,17.647,17.319,16.392,17.319,14.823z"/>
<path fill="#181819" d="M30.313,19.494c3.58,0,6.264,2.336,6.264,7.355v9.369h-5.438v-8.742c0-2.195-0.787-3.694-2.757-3.694
	c-1.503,0-2.397,1.011-2.791,1.985c-0.146,0.35-0.18,0.838-0.18,1.325v9.126h-5.439c0,0,0.072-14.808,0-16.341h5.439v2.314
	C26.133,21.08,27.426,19.494,30.313,19.494z"/>
</svg>
