<?xml version="1.0" encoding="utf-8"?>
<!-- Generator: Adobe Illustrator 16.0.0, SVG Export Plug-In . SVG Version: 6.00 Build 0)  -->
<!DOCTYPE svg PUBLIC "-//W3C//DTD SVG 1.1//EN" "http://www.w3.org/Graphics/SVG/1.1/DTD/svg11.dtd">
<svg version="1.1" id="Layer_1" xmlns="http://www.w3.org/2000/svg" xmlns:xlink="http://www.w3.org/1999/xlink" x="0px" y="0px"
	 width="81.418px" height="81.417px" viewBox="0 0 81.418 81.417" enable-background="new 0 0 81.418 81.417" xml:space="preserve">
<g>
	<g>
		<path fill="#181819" d="M81.484,40.694c0,22.54-18.25,40.79-40.76,40.79c-0.74,0-1.48-0.029-2.2-0.061
			c-0.16-0.029-0.33-0.029-0.47-0.029c-0.13-0.02-0.271-0.02-0.41-0.051c-21.11-1.539-37.71-19.159-37.71-40.649
			c0-22.51,18.25-40.76,40.79-40.76c21.44,0,39,16.55,40.62,37.57c0.031,0.409,0.061,0.85,0.08,1.26
			C81.453,39.404,81.484,40.034,81.484,40.694z"/>
	</g>
</g>
<g>
	<path fill="#FCCD32" d="M40.763,26.806c-0.167-0.22-0.334-0.439-0.521-0.631c-0.059-0.057-0.113-0.139-0.193-0.193
		c-0.606-0.633-1.267-1.181-2.008-1.621c-0.273-0.166-0.58-0.33-0.88-0.467c-0.107-0.057-0.22-0.109-0.301-0.139
		c-0.36-0.138-0.741-0.274-1.154-0.385c-2.421-0.66-8.191-0.521-19.819-0.521v35.154h7.092V44.728c4.262,0,8.879,0.109,11.986-0.496
		c2.637-0.578,5.164-2.336,6.679-5.14C43.291,35.986,43.398,30.242,40.763,26.806z M34.685,36.482
		c-1.729,2.53-4.503,2.282-11.707,2.282v-9.979c7.611,0,9.593-0.191,11.381,1.787C35.813,32.167,35.813,34.804,34.685,36.482z"/>
	<path fill="#FCCD32" d="M65.445,45.029c1.4,1.184,2.088,2.857,2.088,5.002c0,2.337-0.961,4.345-2.914,6.019
		c-1.955,1.678-4.838,2.531-8.658,2.531c-3.463,0-6.211-0.717-8.246-2.117c-2.008-1.4-3.322-3.326-3.957-5.745l6.76-1.018
		c0.633,2.86,2.561,4.015,5.443,4.015c2.199,0,4.809-0.551,4.809-2.776c0-1.484-1.234-1.814-2.721-2.145
		c-5.438-1.209-8.873-2.309-10.334-3.299c-2.008-1.375-3.021-3.27-3.021-5.716c0-2.226,0.879-4.067,2.607-5.579
		c0.193-0.166,0.387-0.33,0.607-0.467c0.221-0.14,0.467-0.303,0.713-0.414c0.248-0.137,0.494-0.246,0.742-0.355
		c0.246-0.111,0.525-0.221,0.799-0.305c0.166-0.053,0.355-0.109,0.521-0.137c0.332-0.109,0.66-0.193,1.02-0.246
		c0.301-0.057,0.602-0.11,0.908-0.137c0.848-0.141,1.781-0.193,2.801-0.193c0.549,0,1.068,0,1.596,0.053
		c0.381,0,0.768,0.029,1.127,0.084c0.408,0.027,0.793,0.083,1.154,0.166c0.193,0.027,0.381,0.054,0.574,0.11
		c0.66,0.137,1.266,0.3,1.814,0.548c0.301,0.109,0.58,0.22,0.854,0.387c0.574,0.3,1.1,0.66,1.566,1.07
		c0.135,0.083,0.248,0.193,0.381,0.33v0.027c0.967,0.99,1.707,2.281,2.201,3.959l-6.35,1.18c-0.273-0.99-0.795-1.73-1.535-2.282
		c-1.762-1.207-5.75-0.906-7.064-0.026c-0.961,0.662-1.074,1.841-0.113,2.585C53.572,41.566,61.896,42.089,65.445,45.029z"/>
</g>
</svg>
