<?xml version="1.0" encoding="utf-8"?>
<!-- Generator: Adobe Illustrator 16.0.0, SVG Export Plug-In . SVG Version: 6.00 Build 0)  -->
<!DOCTYPE svg PUBLIC "-//W3C//DTD SVG 1.1//EN" "http://www.w3.org/Graphics/SVG/1.1/DTD/svg11.dtd">
<svg version="1.1" id="Layer_1" xmlns="http://www.w3.org/2000/svg" xmlns:xlink="http://www.w3.org/1999/xlink" x="0px" y="0px"
	 width="105.401px" height="77.52px" viewBox="0 0 105.401 77.52" enable-background="new 0 0 105.401 77.52" xml:space="preserve">
<g>
	<g>
		<path fill="#FDCE30" d="M1.149,14.22C0.381,13.508,0,12.626,0,11.578c0-1.076,0.384-1.977,1.149-2.703
			c0.767-0.726,1.755-1.089,2.965-1.089c1.183,0,2.158,0.363,2.925,1.089c0.767,0.727,1.149,1.627,1.149,2.703
			c0,1.048-0.384,1.93-1.149,2.642c-0.767,0.713-1.742,1.069-2.925,1.069C2.904,15.289,1.915,14.933,1.149,14.22z"/>
		<path fill="#FDCE30" d="M20.591,14.22c-0.767-0.712-1.149-1.594-1.149-2.642c0-1.076,0.384-1.977,1.149-2.703
			c0.767-0.726,1.755-1.089,2.965-1.089c1.184,0,2.157,0.363,2.925,1.089c0.767,0.727,1.148,1.627,1.148,2.703
			c0,1.048-0.383,1.93-1.148,2.642c-0.768,0.713-1.741,1.069-2.925,1.069C22.346,15.289,21.358,14.933,20.591,14.22z"/>
		<path fill="#FDCE30" d="M40.035,14.22c-0.767-0.712-1.148-1.594-1.148-2.642c0-1.076,0.383-1.977,1.148-2.703
			C40.803,8.149,41.79,7.786,43,7.786c1.185,0,2.158,0.363,2.926,1.089c0.767,0.727,1.148,1.627,1.148,2.703
			c0,1.048-0.383,1.93-1.148,2.642c-0.768,0.713-1.741,1.069-2.926,1.069C41.789,15.289,40.801,14.933,40.035,14.22z"/>
		<path fill="#FDCE30" d="M59.478,14.22c-0.768-0.712-1.15-1.594-1.15-2.642c0-1.076,0.384-1.977,1.15-2.703
			s1.754-1.089,2.965-1.089c1.183,0,2.158,0.363,2.924,1.089c0.768,0.727,1.15,1.627,1.15,2.703c0,1.048-0.384,1.93-1.15,2.642
			c-0.766,0.713-1.741,1.069-2.924,1.069C61.232,15.289,60.244,14.933,59.478,14.22z"/>
		<path fill="#FDCE30" d="M78.919,14.22c-0.768-0.712-1.148-1.594-1.148-2.642c0-1.076,0.383-1.977,1.148-2.703
			c0.768-0.726,1.756-1.089,2.967-1.089c1.184,0,2.156,0.363,2.924,1.089c0.769,0.727,1.148,1.627,1.148,2.703
			c0,1.048-0.383,1.93-1.148,2.642c-0.768,0.713-1.74,1.069-2.924,1.069C80.675,15.289,79.687,14.933,78.919,14.22z"/>
		<path fill="#FDCE30" d="M98.362,14.22c-0.766-0.712-1.149-1.594-1.149-2.642c0-1.076,0.388-1.977,1.149-2.703
			c0.767-0.726,1.755-1.089,2.966-1.089c1.187,0,2.157,0.363,2.924,1.089c0.771,0.727,1.149,1.627,1.149,2.703
			c0,1.048-0.383,1.93-1.149,2.642c-0.767,0.713-1.737,1.069-2.924,1.069C100.117,15.289,99.128,14.933,98.362,14.22z"/>
		<path fill="#FDCE30" d="M1.149,43.22C0.381,42.508,0,41.626,0,40.578c0-1.076,0.384-1.977,1.149-2.703
			c0.767-0.726,1.755-1.089,2.965-1.089c1.183,0,2.158,0.363,2.925,1.089c0.767,0.727,1.149,1.627,1.149,2.703
			c0,1.048-0.384,1.93-1.149,2.642c-0.767,0.713-1.742,1.069-2.925,1.069C2.904,44.289,1.915,43.933,1.149,43.22z"/>
		<path fill="#FDCE30" d="M20.591,43.22c-0.767-0.712-1.149-1.594-1.149-2.642c0-1.076,0.384-1.977,1.149-2.703
			c0.767-0.726,1.755-1.089,2.965-1.089c1.184,0,2.157,0.363,2.925,1.089c0.767,0.727,1.148,1.627,1.148,2.703
			c0,1.048-0.383,1.93-1.148,2.642c-0.768,0.713-1.741,1.069-2.925,1.069C22.346,44.289,21.358,43.933,20.591,43.22z"/>
		<path fill="#FDCE30" d="M40.035,43.22c-0.767-0.712-1.148-1.594-1.148-2.642c0-1.076,0.383-1.977,1.148-2.703
			c0.768-0.726,1.755-1.089,2.965-1.089c1.185,0,2.158,0.363,2.926,1.089c0.767,0.727,1.148,1.627,1.148,2.703
			c0,1.048-0.383,1.93-1.148,2.642c-0.768,0.713-1.741,1.069-2.926,1.069C41.789,44.289,40.801,43.933,40.035,43.22z"/>
		<path fill="#FDCE30" d="M59.478,43.22c-0.768-0.712-1.15-1.594-1.15-2.642c0-1.076,0.384-1.977,1.15-2.703
			s1.754-1.089,2.965-1.089c1.183,0,2.158,0.363,2.924,1.089c0.768,0.727,1.15,1.627,1.15,2.703c0,1.048-0.384,1.93-1.15,2.642
			c-0.766,0.713-1.741,1.069-2.924,1.069C61.232,44.289,60.244,43.933,59.478,43.22z"/>
		<path fill="#FDCE30" d="M78.919,43.22c-0.768-0.712-1.148-1.594-1.148-2.642c0-1.076,0.383-1.977,1.148-2.703
			c0.768-0.726,1.756-1.089,2.967-1.089c1.184,0,2.156,0.363,2.924,1.089c0.769,0.727,1.148,1.627,1.148,2.703
			c0,1.048-0.383,1.93-1.148,2.642c-0.768,0.713-1.74,1.069-2.924,1.069C80.675,44.289,79.687,43.933,78.919,43.22z"/>
		<path fill="#FDCE30" d="M98.362,43.22c-0.766-0.712-1.149-1.594-1.149-2.642c0-1.076,0.388-1.977,1.149-2.703
			c0.767-0.726,1.755-1.089,2.966-1.089c1.187,0,2.157,0.363,2.924,1.089c0.771,0.727,1.149,1.627,1.149,2.703
			c0,1.048-0.383,1.93-1.149,2.642c-0.767,0.713-1.737,1.069-2.924,1.069C100.117,44.289,99.128,43.933,98.362,43.22z"/>
		<path fill="#FDCE30" d="M1.149,72.22C0.381,71.507,0,70.626,0,69.577c0-1.076,0.384-1.978,1.149-2.703
			c0.767-0.726,1.755-1.088,2.965-1.088c1.183,0,2.158,0.362,2.925,1.088c0.767,0.728,1.149,1.627,1.149,2.703
			c0,1.049-0.384,1.93-1.149,2.643c-0.767,0.714-1.742,1.068-2.925,1.068C2.904,73.289,1.915,72.934,1.149,72.22z"/>
		<path fill="#FDCE30" d="M20.591,72.22c-0.767-0.713-1.149-1.594-1.149-2.643c0-1.076,0.384-1.978,1.149-2.703
			c0.767-0.726,1.755-1.088,2.965-1.088c1.184,0,2.157,0.362,2.925,1.088c0.767,0.728,1.148,1.627,1.148,2.703
			c0,1.049-0.383,1.93-1.148,2.643c-0.768,0.714-1.741,1.068-2.925,1.068C22.346,73.289,21.358,72.934,20.591,72.22z"/>
		<path fill="#FDCE30" d="M40.035,72.22c-0.767-0.713-1.148-1.594-1.148-2.643c0-1.076,0.383-1.978,1.148-2.703
			c0.768-0.726,1.755-1.088,2.965-1.088c1.185,0,2.158,0.362,2.926,1.088c0.767,0.728,1.148,1.627,1.148,2.703
			c0,1.049-0.383,1.93-1.148,2.643c-0.768,0.714-1.741,1.068-2.926,1.068C41.789,73.289,40.801,72.934,40.035,72.22z"/>
		<path fill="#FDCE30" d="M59.478,72.22c-0.768-0.713-1.15-1.594-1.15-2.643c0-1.076,0.384-1.978,1.15-2.703
			s1.754-1.088,2.965-1.088c1.183,0,2.158,0.362,2.924,1.088c0.768,0.728,1.15,1.627,1.15,2.703c0,1.049-0.384,1.93-1.15,2.643
			c-0.766,0.714-1.741,1.068-2.924,1.068C61.232,73.289,60.244,72.934,59.478,72.22z"/>
		<path fill="#FDCE30" d="M78.919,72.22c-0.768-0.713-1.148-1.594-1.148-2.643c0-1.076,0.383-1.978,1.148-2.703
			c0.768-0.726,1.756-1.088,2.967-1.088c1.184,0,2.156,0.362,2.924,1.088c0.769,0.728,1.148,1.627,1.148,2.703
			c0,1.049-0.383,1.93-1.148,2.643c-0.768,0.714-1.74,1.068-2.924,1.068C80.675,73.289,79.687,72.934,78.919,72.22z"/>
		<path fill="#FDCE30" d="M98.362,72.22c-0.766-0.713-1.149-1.594-1.149-2.643c0-1.076,0.388-1.978,1.149-2.703
			c0.767-0.726,1.755-1.088,2.966-1.088c1.187,0,2.157,0.362,2.924,1.088c0.771,0.728,1.149,1.627,1.149,2.703
			c0,1.049-0.383,1.93-1.149,2.643c-0.767,0.714-1.737,1.068-2.924,1.068C100.117,73.289,99.128,72.934,98.362,72.22z"/>
	</g>
</g>
</svg>
