<?xml version="1.0" encoding="utf-8"?>
<!-- Generator: Adobe Illustrator 16.0.0, SVG Export Plug-In . SVG Version: 6.00 Build 0)  -->
<!DOCTYPE svg PUBLIC "-//W3C//DTD SVG 1.1//EN" "http://www.w3.org/Graphics/SVG/1.1/DTD/svg11.dtd">
<svg version="1.1" id="Layer_1" xmlns="http://www.w3.org/2000/svg" xmlns:xlink="http://www.w3.org/1999/xlink" x="0px" y="0px"
	 width="369.417px" height="408.572px" viewBox="0 0 369.417 408.572" enable-background="new 0 0 369.417 408.572"
	 xml:space="preserve">
<g>
	<g>
		<path fill="#FDCE30" d="M6.777,18.469c-0.767-0.712-1.149-1.594-1.149-2.642c0-1.076,0.383-1.977,1.149-2.703
			c0.767-0.726,1.755-1.089,2.965-1.089c1.184,0,2.158,0.363,2.925,1.089c0.767,0.727,1.149,1.627,1.149,2.703
			c0,1.048-0.383,1.93-1.149,2.642c-0.767,0.713-1.741,1.069-2.925,1.069C8.532,19.538,7.543,19.182,6.777,18.469z"/>
		<path fill="#FDCE30" d="M26.22,18.469c-0.767-0.712-1.15-1.594-1.15-2.642c0-1.076,0.384-1.977,1.15-2.703
			c0.766-0.726,1.754-1.089,2.965-1.089c1.183,0,2.158,0.363,2.924,1.089c0.767,0.727,1.15,1.627,1.15,2.703
			c0,1.048-0.384,1.93-1.15,2.642c-0.766,0.713-1.741,1.069-2.924,1.069C27.974,19.538,26.986,19.182,26.22,18.469z"/>
		<path fill="#FDCE30" d="M45.663,18.469c-0.766-0.712-1.149-1.594-1.149-2.642c0-1.076,0.384-1.977,1.149-2.703
			c0.767-0.726,1.755-1.089,2.965-1.089c1.184,0,2.158,0.363,2.925,1.089c0.767,0.727,1.149,1.627,1.149,2.703
			c0,1.048-0.383,1.93-1.149,2.642c-0.767,0.713-1.741,1.069-2.925,1.069C47.417,19.538,46.429,19.182,45.663,18.469z"/>
		<path fill="#FDCE30" d="M65.106,18.469c-0.767-0.712-1.149-1.594-1.149-2.642c0-1.076,0.383-1.977,1.149-2.703
			c0.767-0.726,1.755-1.089,2.965-1.089c1.183,0,2.158,0.363,2.925,1.089c0.766,0.727,1.149,1.627,1.149,2.703
			c0,1.048-0.384,1.93-1.149,2.642c-0.767,0.713-1.742,1.069-2.925,1.069C66.861,19.538,65.873,19.182,65.106,18.469z"/>
		<path fill="#FDCE30" d="M84.548,18.469c-0.766-0.712-1.149-1.594-1.149-2.642c0-1.076,0.384-1.977,1.149-2.703
			c0.767-0.726,1.755-1.089,2.965-1.089c1.184,0,2.158,0.363,2.925,1.089c0.767,0.727,1.149,1.627,1.149,2.703
			c0,1.048-0.383,1.93-1.149,2.642c-0.767,0.713-1.741,1.069-2.925,1.069C86.303,19.538,85.315,19.182,84.548,18.469z"/>
		<path fill="#FDCE30" d="M103.992,18.469c-0.767-0.712-1.149-1.594-1.149-2.642c0-1.076,0.383-1.977,1.149-2.703
			c0.767-0.726,1.755-1.089,2.965-1.089c1.183,0,2.158,0.363,2.925,1.089c0.766,0.727,1.149,1.627,1.149,2.703
			c0,1.048-0.384,1.93-1.149,2.642c-0.767,0.713-1.742,1.069-2.925,1.069C105.747,19.538,104.758,19.182,103.992,18.469z"/>
		<path fill="#FDCE30" d="M123.435,18.469c-0.767-0.712-1.15-1.594-1.15-2.642c0-1.076,0.384-1.977,1.15-2.703
			c0.766-0.726,1.754-1.089,2.965-1.089c1.183,0,2.158,0.363,2.924,1.089c0.767,0.727,1.15,1.627,1.15,2.703
			c0,1.048-0.384,1.93-1.15,2.642c-0.766,0.713-1.741,1.069-2.924,1.069C125.189,19.538,124.201,19.182,123.435,18.469z"/>
		<path fill="#FDCE30" d="M142.877,18.469c-0.767-0.712-1.149-1.594-1.149-2.642c0-1.076,0.383-1.977,1.149-2.703
			c0.767-0.726,1.755-1.089,2.965-1.089c1.184,0,2.158,0.363,2.925,1.089c0.767,0.727,1.149,1.627,1.149,2.703
			c0,1.048-0.383,1.93-1.149,2.642c-0.767,0.713-1.741,1.069-2.925,1.069C144.632,19.538,143.644,19.182,142.877,18.469z"/>
		<path fill="#FDCE30" d="M162.321,18.469c-0.767-0.712-1.15-1.594-1.15-2.642c0-1.076,0.384-1.977,1.15-2.703
			c0.766-0.726,1.754-1.089,2.965-1.089c1.183,0,2.158,0.363,2.924,1.089c0.767,0.727,1.15,1.627,1.15,2.703
			c0,1.048-0.384,1.93-1.15,2.642c-0.766,0.713-1.741,1.069-2.924,1.069C164.075,19.538,163.086,19.182,162.321,18.469z"/>
		<path fill="#FDCE30" d="M181.763,18.469c-0.767-0.712-1.149-1.594-1.149-2.642c0-1.076,0.383-1.977,1.149-2.703
			c0.767-0.726,1.755-1.089,2.965-1.089c1.184,0,2.158,0.363,2.925,1.089c0.767,0.727,1.149,1.627,1.149,2.703
			c0,1.048-0.383,1.93-1.149,2.642c-0.767,0.713-1.741,1.069-2.925,1.069C183.518,19.538,182.53,19.182,181.763,18.469z"/>
		<path fill="#FDCE30" d="M201.207,18.469c-0.767-0.712-1.149-1.594-1.149-2.642c0-1.076,0.383-1.977,1.149-2.703
			c0.767-0.726,1.755-1.089,2.965-1.089c1.183,0,2.158,0.363,2.925,1.089c0.766,0.727,1.149,1.627,1.149,2.703
			c0,1.048-0.384,1.93-1.149,2.642c-0.767,0.713-1.742,1.069-2.925,1.069C202.961,19.538,201.973,19.182,201.207,18.469z"/>
		<path fill="#FDCE30" d="M220.649,18.469c-0.766-0.712-1.149-1.594-1.149-2.642c0-1.076,0.384-1.977,1.149-2.703
			c0.767-0.726,1.755-1.089,2.965-1.089c1.184,0,2.158,0.363,2.925,1.089c0.767,0.727,1.149,1.627,1.149,2.703
			c0,1.048-0.383,1.93-1.149,2.642c-0.767,0.713-1.741,1.069-2.925,1.069C222.404,19.538,221.416,19.182,220.649,18.469z"/>
		<path fill="#FDCE30" d="M240.092,18.469c-0.767-0.712-1.15-1.594-1.15-2.642c0-1.076,0.384-1.977,1.15-2.703
			c0.766-0.726,1.754-1.089,2.965-1.089c1.183,0,2.158,0.363,2.924,1.089c0.767,0.727,1.15,1.627,1.15,2.703
			c0,1.048-0.384,1.93-1.15,2.642c-0.766,0.713-1.741,1.069-2.924,1.069C241.846,19.538,240.858,19.182,240.092,18.469z"/>
		<path fill="#FDCE30" d="M259.536,18.469c-0.767-0.712-1.15-1.594-1.15-2.642c0-1.076,0.384-1.977,1.15-2.703
			c0.766-0.726,1.754-1.089,2.965-1.089c1.183,0,2.158,0.363,2.924,1.089c0.767,0.727,1.15,1.627,1.15,2.703
			c0,1.048-0.384,1.93-1.15,2.642c-0.766,0.713-1.741,1.069-2.924,1.069C261.29,19.538,260.301,19.182,259.536,18.469z"/>
		<path fill="#FDCE30" d="M278.978,18.469c-0.767-0.712-1.149-1.594-1.149-2.642c0-1.076,0.383-1.977,1.149-2.703
			c0.767-0.726,1.755-1.089,2.965-1.089c1.183,0,2.158,0.363,2.925,1.089c0.766,0.727,1.149,1.627,1.149,2.703
			c0,1.048-0.384,1.93-1.149,2.642c-0.767,0.713-1.742,1.069-2.925,1.069C280.733,19.538,279.745,19.182,278.978,18.469z"/>
		<path fill="#FDCE30" d="M298.42,18.469c-0.766-0.712-1.149-1.594-1.149-2.642c0-1.076,0.384-1.977,1.149-2.703
			c0.767-0.726,1.755-1.089,2.965-1.089c1.184,0,2.158,0.363,2.925,1.089c0.767,0.727,1.149,1.627,1.149,2.703
			c0,1.048-0.383,1.93-1.149,2.642c-0.767,0.713-1.741,1.069-2.925,1.069C300.175,19.538,299.187,19.182,298.42,18.469z"/>
		<path fill="#FDCE30" d="M317.864,18.469c-0.767-0.712-1.149-1.594-1.149-2.642c0-1.076,0.383-1.977,1.149-2.703
			c0.767-0.726,1.755-1.089,2.965-1.089c1.184,0,2.158,0.363,2.925,1.089c0.767,0.727,1.149,1.627,1.149,2.703
			c0,1.048-0.383,1.93-1.149,2.642c-0.767,0.713-1.741,1.069-2.925,1.069C319.619,19.538,318.63,19.182,317.864,18.469z"/>
		<path fill="#FDCE30" d="M337.307,18.469c-0.767-0.712-1.15-1.594-1.15-2.642c0-1.076,0.384-1.977,1.15-2.703
			c0.766-0.726,1.754-1.089,2.965-1.089c1.183,0,2.158,0.363,2.924,1.089c0.767,0.727,1.15,1.627,1.15,2.703
			c0,1.048-0.384,1.93-1.15,2.642c-0.766,0.713-1.741,1.069-2.924,1.069C339.061,19.538,338.073,19.182,337.307,18.469z"/>
		<path fill="#FDCE30" d="M356.75,18.469c-0.767-0.712-1.149-1.594-1.149-2.642c0-1.076,0.383-1.977,1.149-2.703
			c0.767-0.726,1.755-1.089,2.965-1.089c1.184,0,2.158,0.363,2.925,1.089c0.767,0.727,1.149,1.627,1.149,2.703
			c0,1.048-0.383,1.93-1.149,2.642c-0.767,0.713-1.741,1.069-2.925,1.069C358.504,19.538,357.516,19.182,356.75,18.469z"/>
		<path fill="#FDCE30" d="M6.777,47.469c-0.767-0.712-1.149-1.594-1.149-2.642c0-1.076,0.383-1.977,1.149-2.703
			c0.767-0.726,1.755-1.089,2.965-1.089c1.184,0,2.158,0.363,2.925,1.089c0.767,0.727,1.149,1.627,1.149,2.703
			c0,1.048-0.383,1.93-1.149,2.642c-0.767,0.713-1.741,1.069-2.925,1.069C8.532,48.538,7.543,48.182,6.777,47.469z"/>
		<path fill="#FDCE30" d="M26.22,47.469c-0.767-0.712-1.15-1.594-1.15-2.642c0-1.076,0.384-1.977,1.15-2.703
			c0.766-0.726,1.754-1.089,2.965-1.089c1.183,0,2.158,0.363,2.924,1.089c0.767,0.727,1.15,1.627,1.15,2.703
			c0,1.048-0.384,1.93-1.15,2.642c-0.766,0.713-1.741,1.069-2.924,1.069C27.974,48.538,26.986,48.182,26.22,47.469z"/>
		<path fill="#FDCE30" d="M45.663,47.469c-0.766-0.712-1.149-1.594-1.149-2.642c0-1.076,0.384-1.977,1.149-2.703
			c0.767-0.726,1.755-1.089,2.965-1.089c1.184,0,2.158,0.363,2.925,1.089c0.767,0.727,1.149,1.627,1.149,2.703
			c0,1.048-0.383,1.93-1.149,2.642c-0.767,0.713-1.741,1.069-2.925,1.069C47.417,48.538,46.429,48.182,45.663,47.469z"/>
		<path fill="#FDCE30" d="M65.106,47.469c-0.767-0.712-1.149-1.594-1.149-2.642c0-1.076,0.383-1.977,1.149-2.703
			c0.767-0.726,1.755-1.089,2.965-1.089c1.183,0,2.158,0.363,2.925,1.089c0.766,0.727,1.149,1.627,1.149,2.703
			c0,1.048-0.384,1.93-1.149,2.642c-0.767,0.713-1.742,1.069-2.925,1.069C66.861,48.538,65.873,48.182,65.106,47.469z"/>
		<path fill="#FDCE30" d="M84.548,47.469c-0.766-0.712-1.149-1.594-1.149-2.642c0-1.076,0.384-1.977,1.149-2.703
			c0.767-0.726,1.755-1.089,2.965-1.089c1.184,0,2.158,0.363,2.925,1.089c0.767,0.727,1.149,1.627,1.149,2.703
			c0,1.048-0.383,1.93-1.149,2.642c-0.767,0.713-1.741,1.069-2.925,1.069C86.303,48.538,85.315,48.182,84.548,47.469z"/>
		<path fill="#FDCE30" d="M103.992,47.469c-0.767-0.712-1.149-1.594-1.149-2.642c0-1.076,0.383-1.977,1.149-2.703
			c0.767-0.726,1.755-1.089,2.965-1.089c1.183,0,2.158,0.363,2.925,1.089c0.766,0.727,1.149,1.627,1.149,2.703
			c0,1.048-0.384,1.93-1.149,2.642c-0.767,0.713-1.742,1.069-2.925,1.069C105.747,48.538,104.758,48.182,103.992,47.469z"/>
		<path fill="#FDCE30" d="M123.435,47.469c-0.767-0.712-1.15-1.594-1.15-2.642c0-1.076,0.384-1.977,1.15-2.703
			c0.766-0.726,1.754-1.089,2.965-1.089c1.183,0,2.158,0.363,2.924,1.089c0.767,0.727,1.15,1.627,1.15,2.703
			c0,1.048-0.384,1.93-1.15,2.642c-0.766,0.713-1.741,1.069-2.924,1.069C125.189,48.538,124.201,48.182,123.435,47.469z"/>
		<path fill="#FDCE30" d="M142.877,47.469c-0.767-0.712-1.149-1.594-1.149-2.642c0-1.076,0.383-1.977,1.149-2.703
			c0.767-0.726,1.755-1.089,2.965-1.089c1.184,0,2.158,0.363,2.925,1.089c0.767,0.727,1.149,1.627,1.149,2.703
			c0,1.048-0.383,1.93-1.149,2.642c-0.767,0.713-1.741,1.069-2.925,1.069C144.632,48.538,143.644,48.182,142.877,47.469z"/>
		<path fill="#FDCE30" d="M162.321,47.469c-0.767-0.712-1.15-1.594-1.15-2.642c0-1.076,0.384-1.977,1.15-2.703
			c0.766-0.726,1.754-1.089,2.965-1.089c1.183,0,2.158,0.363,2.924,1.089c0.767,0.727,1.15,1.627,1.15,2.703
			c0,1.048-0.384,1.93-1.15,2.642c-0.766,0.713-1.741,1.069-2.924,1.069C164.075,48.538,163.086,48.182,162.321,47.469z"/>
		<path fill="#FDCE30" d="M181.763,47.469c-0.767-0.712-1.149-1.594-1.149-2.642c0-1.076,0.383-1.977,1.149-2.703
			c0.767-0.726,1.755-1.089,2.965-1.089c1.184,0,2.158,0.363,2.925,1.089c0.767,0.727,1.149,1.627,1.149,2.703
			c0,1.048-0.383,1.93-1.149,2.642c-0.767,0.713-1.741,1.069-2.925,1.069C183.518,48.538,182.53,48.182,181.763,47.469z"/>
		<path fill="#FDCE30" d="M201.207,47.469c-0.767-0.712-1.149-1.594-1.149-2.642c0-1.076,0.383-1.977,1.149-2.703
			c0.767-0.726,1.755-1.089,2.965-1.089c1.183,0,2.158,0.363,2.925,1.089c0.766,0.727,1.149,1.627,1.149,2.703
			c0,1.048-0.384,1.93-1.149,2.642c-0.767,0.713-1.742,1.069-2.925,1.069C202.961,48.538,201.973,48.182,201.207,47.469z"/>
		<path fill="#FDCE30" d="M220.649,47.469c-0.766-0.712-1.149-1.594-1.149-2.642c0-1.076,0.384-1.977,1.149-2.703
			c0.767-0.726,1.755-1.089,2.965-1.089c1.184,0,2.158,0.363,2.925,1.089c0.767,0.727,1.149,1.627,1.149,2.703
			c0,1.048-0.383,1.93-1.149,2.642c-0.767,0.713-1.741,1.069-2.925,1.069C222.404,48.538,221.416,48.182,220.649,47.469z"/>
		<path fill="#FDCE30" d="M240.092,47.469c-0.767-0.712-1.15-1.594-1.15-2.642c0-1.076,0.384-1.977,1.15-2.703
			c0.766-0.726,1.754-1.089,2.965-1.089c1.183,0,2.158,0.363,2.924,1.089c0.767,0.727,1.15,1.627,1.15,2.703
			c0,1.048-0.384,1.93-1.15,2.642c-0.766,0.713-1.741,1.069-2.924,1.069C241.846,48.538,240.858,48.182,240.092,47.469z"/>
		<path fill="#FDCE30" d="M259.536,47.469c-0.767-0.712-1.15-1.594-1.15-2.642c0-1.076,0.384-1.977,1.15-2.703
			c0.766-0.726,1.754-1.089,2.965-1.089c1.183,0,2.158,0.363,2.924,1.089c0.767,0.727,1.15,1.627,1.15,2.703
			c0,1.048-0.384,1.93-1.15,2.642c-0.766,0.713-1.741,1.069-2.924,1.069C261.29,48.538,260.301,48.182,259.536,47.469z"/>
		<path fill="#FDCE30" d="M278.978,47.469c-0.767-0.712-1.149-1.594-1.149-2.642c0-1.076,0.383-1.977,1.149-2.703
			c0.767-0.726,1.755-1.089,2.965-1.089c1.183,0,2.158,0.363,2.925,1.089c0.766,0.727,1.149,1.627,1.149,2.703
			c0,1.048-0.384,1.93-1.149,2.642c-0.767,0.713-1.742,1.069-2.925,1.069C280.733,48.538,279.745,48.182,278.978,47.469z"/>
		<path fill="#FDCE30" d="M298.42,47.469c-0.766-0.712-1.149-1.594-1.149-2.642c0-1.076,0.384-1.977,1.149-2.703
			c0.767-0.726,1.755-1.089,2.965-1.089c1.184,0,2.158,0.363,2.925,1.089c0.767,0.727,1.149,1.627,1.149,2.703
			c0,1.048-0.383,1.93-1.149,2.642c-0.767,0.713-1.741,1.069-2.925,1.069C300.175,48.538,299.187,48.182,298.42,47.469z"/>
		<path fill="#FDCE30" d="M317.864,47.469c-0.767-0.712-1.149-1.594-1.149-2.642c0-1.076,0.383-1.977,1.149-2.703
			c0.767-0.726,1.755-1.089,2.965-1.089c1.184,0,2.158,0.363,2.925,1.089c0.767,0.727,1.149,1.627,1.149,2.703
			c0,1.048-0.383,1.93-1.149,2.642c-0.767,0.713-1.741,1.069-2.925,1.069C319.619,48.538,318.63,48.182,317.864,47.469z"/>
		<path fill="#FDCE30" d="M337.307,47.469c-0.767-0.712-1.15-1.594-1.15-2.642c0-1.076,0.384-1.977,1.15-2.703
			c0.766-0.726,1.754-1.089,2.965-1.089c1.183,0,2.158,0.363,2.924,1.089c0.767,0.727,1.15,1.627,1.15,2.703
			c0,1.048-0.384,1.93-1.15,2.642c-0.766,0.713-1.741,1.069-2.924,1.069C339.061,48.538,338.073,48.182,337.307,47.469z"/>
		<path fill="#FDCE30" d="M356.75,47.469c-0.767-0.712-1.149-1.594-1.149-2.642c0-1.076,0.383-1.977,1.149-2.703
			c0.767-0.726,1.755-1.089,2.965-1.089c1.184,0,2.158,0.363,2.925,1.089c0.767,0.727,1.149,1.627,1.149,2.703
			c0,1.048-0.383,1.93-1.149,2.642c-0.767,0.713-1.741,1.069-2.925,1.069C358.504,48.538,357.516,48.182,356.75,47.469z"/>
		<path fill="#FDCE30" d="M6.777,76.469c-0.767-0.712-1.149-1.594-1.149-2.642c0-1.076,0.383-1.977,1.149-2.703
			c0.767-0.726,1.755-1.089,2.965-1.089c1.184,0,2.158,0.363,2.925,1.089c0.767,0.727,1.149,1.627,1.149,2.703
			c0,1.048-0.383,1.93-1.149,2.642c-0.767,0.713-1.741,1.069-2.925,1.069C8.532,77.538,7.543,77.182,6.777,76.469z"/>
		<path fill="#FDCE30" d="M26.22,76.469c-0.767-0.712-1.15-1.594-1.15-2.642c0-1.076,0.384-1.977,1.15-2.703
			c0.766-0.726,1.754-1.089,2.965-1.089c1.183,0,2.158,0.363,2.924,1.089c0.767,0.727,1.15,1.627,1.15,2.703
			c0,1.048-0.384,1.93-1.15,2.642c-0.766,0.713-1.741,1.069-2.924,1.069C27.974,77.538,26.986,77.182,26.22,76.469z"/>
		<path fill="#FDCE30" d="M45.663,76.469c-0.766-0.712-1.149-1.594-1.149-2.642c0-1.076,0.384-1.977,1.149-2.703
			c0.767-0.726,1.755-1.089,2.965-1.089c1.184,0,2.158,0.363,2.925,1.089c0.767,0.727,1.149,1.627,1.149,2.703
			c0,1.048-0.383,1.93-1.149,2.642c-0.767,0.713-1.741,1.069-2.925,1.069C47.417,77.538,46.429,77.182,45.663,76.469z"/>
		<path fill="#FDCE30" d="M65.106,76.469c-0.767-0.712-1.149-1.594-1.149-2.642c0-1.076,0.383-1.977,1.149-2.703
			c0.767-0.726,1.755-1.089,2.965-1.089c1.183,0,2.158,0.363,2.925,1.089c0.766,0.727,1.149,1.627,1.149,2.703
			c0,1.048-0.384,1.93-1.149,2.642c-0.767,0.713-1.742,1.069-2.925,1.069C66.861,77.538,65.873,77.182,65.106,76.469z"/>
		<path fill="#FDCE30" d="M84.548,76.469c-0.766-0.712-1.149-1.594-1.149-2.642c0-1.076,0.384-1.977,1.149-2.703
			c0.767-0.726,1.755-1.089,2.965-1.089c1.184,0,2.158,0.363,2.925,1.089c0.767,0.727,1.149,1.627,1.149,2.703
			c0,1.048-0.383,1.93-1.149,2.642c-0.767,0.713-1.741,1.069-2.925,1.069C86.303,77.538,85.315,77.182,84.548,76.469z"/>
		<path fill="#FDCE30" d="M103.992,76.469c-0.767-0.712-1.149-1.594-1.149-2.642c0-1.076,0.383-1.977,1.149-2.703
			c0.767-0.726,1.755-1.089,2.965-1.089c1.183,0,2.158,0.363,2.925,1.089c0.766,0.727,1.149,1.627,1.149,2.703
			c0,1.048-0.384,1.93-1.149,2.642c-0.767,0.713-1.742,1.069-2.925,1.069C105.747,77.538,104.758,77.182,103.992,76.469z"/>
		<path fill="#FDCE30" d="M123.435,76.469c-0.767-0.712-1.15-1.594-1.15-2.642c0-1.076,0.384-1.977,1.15-2.703
			c0.766-0.726,1.754-1.089,2.965-1.089c1.183,0,2.158,0.363,2.924,1.089c0.767,0.727,1.15,1.627,1.15,2.703
			c0,1.048-0.384,1.93-1.15,2.642c-0.766,0.713-1.741,1.069-2.924,1.069C125.189,77.538,124.201,77.182,123.435,76.469z"/>
		<path fill="#FDCE30" d="M142.877,76.469c-0.767-0.712-1.149-1.594-1.149-2.642c0-1.076,0.383-1.977,1.149-2.703
			c0.767-0.726,1.755-1.089,2.965-1.089c1.184,0,2.158,0.363,2.925,1.089c0.767,0.727,1.149,1.627,1.149,2.703
			c0,1.048-0.383,1.93-1.149,2.642c-0.767,0.713-1.741,1.069-2.925,1.069C144.632,77.538,143.644,77.182,142.877,76.469z"/>
		<path fill="#FDCE30" d="M162.321,76.469c-0.767-0.712-1.15-1.594-1.15-2.642c0-1.076,0.384-1.977,1.15-2.703
			c0.766-0.726,1.754-1.089,2.965-1.089c1.183,0,2.158,0.363,2.924,1.089c0.767,0.727,1.15,1.627,1.15,2.703
			c0,1.048-0.384,1.93-1.15,2.642c-0.766,0.713-1.741,1.069-2.924,1.069C164.075,77.538,163.086,77.182,162.321,76.469z"/>
		<path fill="#FDCE30" d="M181.763,76.469c-0.767-0.712-1.149-1.594-1.149-2.642c0-1.076,0.383-1.977,1.149-2.703
			c0.767-0.726,1.755-1.089,2.965-1.089c1.184,0,2.158,0.363,2.925,1.089c0.767,0.727,1.149,1.627,1.149,2.703
			c0,1.048-0.383,1.93-1.149,2.642c-0.767,0.713-1.741,1.069-2.925,1.069C183.518,77.538,182.53,77.182,181.763,76.469z"/>
		<path fill="#FDCE30" d="M201.207,76.469c-0.767-0.712-1.149-1.594-1.149-2.642c0-1.076,0.383-1.977,1.149-2.703
			c0.767-0.726,1.755-1.089,2.965-1.089c1.183,0,2.158,0.363,2.925,1.089c0.766,0.727,1.149,1.627,1.149,2.703
			c0,1.048-0.384,1.93-1.149,2.642c-0.767,0.713-1.742,1.069-2.925,1.069C202.961,77.538,201.973,77.182,201.207,76.469z"/>
		<path fill="#FDCE30" d="M220.649,76.469c-0.766-0.712-1.149-1.594-1.149-2.642c0-1.076,0.384-1.977,1.149-2.703
			c0.767-0.726,1.755-1.089,2.965-1.089c1.184,0,2.158,0.363,2.925,1.089c0.767,0.727,1.149,1.627,1.149,2.703
			c0,1.048-0.383,1.93-1.149,2.642c-0.767,0.713-1.741,1.069-2.925,1.069C222.404,77.538,221.416,77.182,220.649,76.469z"/>
		<path fill="#FDCE30" d="M240.092,76.469c-0.767-0.712-1.15-1.594-1.15-2.642c0-1.076,0.384-1.977,1.15-2.703
			c0.766-0.726,1.754-1.089,2.965-1.089c1.183,0,2.158,0.363,2.924,1.089c0.767,0.727,1.15,1.627,1.15,2.703
			c0,1.048-0.384,1.93-1.15,2.642c-0.766,0.713-1.741,1.069-2.924,1.069C241.846,77.538,240.858,77.182,240.092,76.469z"/>
		<path fill="#FDCE30" d="M259.536,76.469c-0.767-0.712-1.15-1.594-1.15-2.642c0-1.076,0.384-1.977,1.15-2.703
			c0.766-0.726,1.754-1.089,2.965-1.089c1.183,0,2.158,0.363,2.924,1.089c0.767,0.727,1.15,1.627,1.15,2.703
			c0,1.048-0.384,1.93-1.15,2.642c-0.766,0.713-1.741,1.069-2.924,1.069C261.29,77.538,260.301,77.182,259.536,76.469z"/>
		<path fill="#FDCE30" d="M278.978,76.469c-0.767-0.712-1.149-1.594-1.149-2.642c0-1.076,0.383-1.977,1.149-2.703
			c0.767-0.726,1.755-1.089,2.965-1.089c1.183,0,2.158,0.363,2.925,1.089c0.766,0.727,1.149,1.627,1.149,2.703
			c0,1.048-0.384,1.93-1.149,2.642c-0.767,0.713-1.742,1.069-2.925,1.069C280.733,77.538,279.745,77.182,278.978,76.469z"/>
		<path fill="#FDCE30" d="M298.42,76.469c-0.766-0.712-1.149-1.594-1.149-2.642c0-1.076,0.384-1.977,1.149-2.703
			c0.767-0.726,1.755-1.089,2.965-1.089c1.184,0,2.158,0.363,2.925,1.089c0.767,0.727,1.149,1.627,1.149,2.703
			c0,1.048-0.383,1.93-1.149,2.642c-0.767,0.713-1.741,1.069-2.925,1.069C300.175,77.538,299.187,77.182,298.42,76.469z"/>
		<path fill="#FDCE30" d="M317.864,76.469c-0.767-0.712-1.149-1.594-1.149-2.642c0-1.076,0.383-1.977,1.149-2.703
			c0.767-0.726,1.755-1.089,2.965-1.089c1.184,0,2.158,0.363,2.925,1.089c0.767,0.727,1.149,1.627,1.149,2.703
			c0,1.048-0.383,1.93-1.149,2.642c-0.767,0.713-1.741,1.069-2.925,1.069C319.619,77.538,318.63,77.182,317.864,76.469z"/>
		<path fill="#FDCE30" d="M337.307,76.469c-0.767-0.712-1.15-1.594-1.15-2.642c0-1.076,0.384-1.977,1.15-2.703
			c0.766-0.726,1.754-1.089,2.965-1.089c1.183,0,2.158,0.363,2.924,1.089c0.767,0.727,1.15,1.627,1.15,2.703
			c0,1.048-0.384,1.93-1.15,2.642c-0.766,0.713-1.741,1.069-2.924,1.069C339.061,77.538,338.073,77.182,337.307,76.469z"/>
		<path fill="#FDCE30" d="M356.75,76.469c-0.767-0.712-1.149-1.594-1.149-2.642c0-1.076,0.383-1.977,1.149-2.703
			c0.767-0.726,1.755-1.089,2.965-1.089c1.184,0,2.158,0.363,2.925,1.089c0.767,0.727,1.149,1.627,1.149,2.703
			c0,1.048-0.383,1.93-1.149,2.642c-0.767,0.713-1.741,1.069-2.925,1.069C358.504,77.538,357.516,77.182,356.75,76.469z"/>
		<path fill="#FDCE30" d="M6.777,105.469c-0.767-0.712-1.149-1.594-1.149-2.642c0-1.076,0.383-1.977,1.149-2.703
			c0.767-0.726,1.755-1.089,2.965-1.089c1.184,0,2.158,0.363,2.925,1.089c0.767,0.727,1.149,1.627,1.149,2.703
			c0,1.048-0.383,1.93-1.149,2.642c-0.767,0.713-1.741,1.069-2.925,1.069C8.532,106.538,7.543,106.182,6.777,105.469z"/>
		<path fill="#FDCE30" d="M26.22,105.469c-0.767-0.712-1.15-1.594-1.15-2.642c0-1.076,0.384-1.977,1.15-2.703
			c0.766-0.726,1.754-1.089,2.965-1.089c1.183,0,2.158,0.363,2.924,1.089c0.767,0.727,1.15,1.627,1.15,2.703
			c0,1.048-0.384,1.93-1.15,2.642c-0.766,0.713-1.741,1.069-2.924,1.069C27.974,106.538,26.986,106.182,26.22,105.469z"/>
		<path fill="#FDCE30" d="M45.663,105.469c-0.766-0.712-1.149-1.594-1.149-2.642c0-1.076,0.384-1.977,1.149-2.703
			c0.767-0.726,1.755-1.089,2.965-1.089c1.184,0,2.158,0.363,2.925,1.089c0.767,0.727,1.149,1.627,1.149,2.703
			c0,1.048-0.383,1.93-1.149,2.642c-0.767,0.713-1.741,1.069-2.925,1.069C47.417,106.538,46.429,106.182,45.663,105.469z"/>
		<path fill="#FDCE30" d="M65.106,105.469c-0.767-0.712-1.149-1.594-1.149-2.642c0-1.076,0.383-1.977,1.149-2.703
			c0.767-0.726,1.755-1.089,2.965-1.089c1.183,0,2.158,0.363,2.925,1.089c0.766,0.727,1.149,1.627,1.149,2.703
			c0,1.048-0.384,1.93-1.149,2.642c-0.767,0.713-1.742,1.069-2.925,1.069C66.861,106.538,65.873,106.182,65.106,105.469z"/>
		<path fill="#FDCE30" d="M84.548,105.469c-0.766-0.712-1.149-1.594-1.149-2.642c0-1.076,0.384-1.977,1.149-2.703
			c0.767-0.726,1.755-1.089,2.965-1.089c1.184,0,2.158,0.363,2.925,1.089c0.767,0.727,1.149,1.627,1.149,2.703
			c0,1.048-0.383,1.93-1.149,2.642c-0.767,0.713-1.741,1.069-2.925,1.069C86.303,106.538,85.315,106.182,84.548,105.469z"/>
		<path fill="#FDCE30" d="M103.992,105.469c-0.767-0.712-1.149-1.594-1.149-2.642c0-1.076,0.383-1.977,1.149-2.703
			c0.767-0.726,1.755-1.089,2.965-1.089c1.183,0,2.158,0.363,2.925,1.089c0.766,0.727,1.149,1.627,1.149,2.703
			c0,1.048-0.384,1.93-1.149,2.642c-0.767,0.713-1.742,1.069-2.925,1.069C105.747,106.538,104.758,106.182,103.992,105.469z"/>
		<path fill="#FDCE30" d="M123.435,105.469c-0.767-0.712-1.15-1.594-1.15-2.642c0-1.076,0.384-1.977,1.15-2.703
			c0.766-0.726,1.754-1.089,2.965-1.089c1.183,0,2.158,0.363,2.924,1.089c0.767,0.727,1.15,1.627,1.15,2.703
			c0,1.048-0.384,1.93-1.15,2.642c-0.766,0.713-1.741,1.069-2.924,1.069C125.189,106.538,124.201,106.182,123.435,105.469z"/>
		<path fill="#FDCE30" d="M142.877,105.469c-0.767-0.712-1.149-1.594-1.149-2.642c0-1.076,0.383-1.977,1.149-2.703
			c0.767-0.726,1.755-1.089,2.965-1.089c1.184,0,2.158,0.363,2.925,1.089c0.767,0.727,1.149,1.627,1.149,2.703
			c0,1.048-0.383,1.93-1.149,2.642c-0.767,0.713-1.741,1.069-2.925,1.069C144.632,106.538,143.644,106.182,142.877,105.469z"/>
		<path fill="#FDCE30" d="M162.321,105.469c-0.767-0.712-1.15-1.594-1.15-2.642c0-1.076,0.384-1.977,1.15-2.703
			c0.766-0.726,1.754-1.089,2.965-1.089c1.183,0,2.158,0.363,2.924,1.089c0.767,0.727,1.15,1.627,1.15,2.703
			c0,1.048-0.384,1.93-1.15,2.642c-0.766,0.713-1.741,1.069-2.924,1.069C164.075,106.538,163.086,106.182,162.321,105.469z"/>
		<path fill="#FDCE30" d="M181.763,105.469c-0.767-0.712-1.149-1.594-1.149-2.642c0-1.076,0.383-1.977,1.149-2.703
			c0.767-0.726,1.755-1.089,2.965-1.089c1.184,0,2.158,0.363,2.925,1.089c0.767,0.727,1.149,1.627,1.149,2.703
			c0,1.048-0.383,1.93-1.149,2.642c-0.767,0.713-1.741,1.069-2.925,1.069C183.518,106.538,182.53,106.182,181.763,105.469z"/>
		<path fill="#FDCE30" d="M201.207,105.469c-0.767-0.712-1.149-1.594-1.149-2.642c0-1.076,0.383-1.977,1.149-2.703
			c0.767-0.726,1.755-1.089,2.965-1.089c1.183,0,2.158,0.363,2.925,1.089c0.766,0.727,1.149,1.627,1.149,2.703
			c0,1.048-0.384,1.93-1.149,2.642c-0.767,0.713-1.742,1.069-2.925,1.069C202.961,106.538,201.973,106.182,201.207,105.469z"/>
		<path fill="#FDCE30" d="M220.649,105.469c-0.766-0.712-1.149-1.594-1.149-2.642c0-1.076,0.384-1.977,1.149-2.703
			c0.767-0.726,1.755-1.089,2.965-1.089c1.184,0,2.158,0.363,2.925,1.089c0.767,0.727,1.149,1.627,1.149,2.703
			c0,1.048-0.383,1.93-1.149,2.642c-0.767,0.713-1.741,1.069-2.925,1.069C222.404,106.538,221.416,106.182,220.649,105.469z"/>
		<path fill="#FDCE30" d="M240.092,105.469c-0.767-0.712-1.15-1.594-1.15-2.642c0-1.076,0.384-1.977,1.15-2.703
			c0.766-0.726,1.754-1.089,2.965-1.089c1.183,0,2.158,0.363,2.924,1.089c0.767,0.727,1.15,1.627,1.15,2.703
			c0,1.048-0.384,1.93-1.15,2.642c-0.766,0.713-1.741,1.069-2.924,1.069C241.846,106.538,240.858,106.182,240.092,105.469z"/>
		<path fill="#FDCE30" d="M259.536,105.469c-0.767-0.712-1.15-1.594-1.15-2.642c0-1.076,0.384-1.977,1.15-2.703
			c0.766-0.726,1.754-1.089,2.965-1.089c1.183,0,2.158,0.363,2.924,1.089c0.767,0.727,1.15,1.627,1.15,2.703
			c0,1.048-0.384,1.93-1.15,2.642c-0.766,0.713-1.741,1.069-2.924,1.069C261.29,106.538,260.301,106.182,259.536,105.469z"/>
		<path fill="#FDCE30" d="M278.978,105.469c-0.767-0.712-1.149-1.594-1.149-2.642c0-1.076,0.383-1.977,1.149-2.703
			c0.767-0.726,1.755-1.089,2.965-1.089c1.183,0,2.158,0.363,2.925,1.089c0.766,0.727,1.149,1.627,1.149,2.703
			c0,1.048-0.384,1.93-1.149,2.642c-0.767,0.713-1.742,1.069-2.925,1.069C280.733,106.538,279.745,106.182,278.978,105.469z"/>
		<path fill="#FDCE30" d="M298.42,105.469c-0.766-0.712-1.149-1.594-1.149-2.642c0-1.076,0.384-1.977,1.149-2.703
			c0.767-0.726,1.755-1.089,2.965-1.089c1.184,0,2.158,0.363,2.925,1.089c0.767,0.727,1.149,1.627,1.149,2.703
			c0,1.048-0.383,1.93-1.149,2.642c-0.767,0.713-1.741,1.069-2.925,1.069C300.175,106.538,299.187,106.182,298.42,105.469z"/>
		<path fill="#FDCE30" d="M317.864,105.469c-0.767-0.712-1.149-1.594-1.149-2.642c0-1.076,0.383-1.977,1.149-2.703
			c0.767-0.726,1.755-1.089,2.965-1.089c1.184,0,2.158,0.363,2.925,1.089c0.767,0.727,1.149,1.627,1.149,2.703
			c0,1.048-0.383,1.93-1.149,2.642c-0.767,0.713-1.741,1.069-2.925,1.069C319.619,106.538,318.63,106.182,317.864,105.469z"/>
		<path fill="#FDCE30" d="M337.307,105.469c-0.767-0.712-1.15-1.594-1.15-2.642c0-1.076,0.384-1.977,1.15-2.703
			c0.766-0.726,1.754-1.089,2.965-1.089c1.183,0,2.158,0.363,2.924,1.089c0.767,0.727,1.15,1.627,1.15,2.703
			c0,1.048-0.384,1.93-1.15,2.642c-0.766,0.713-1.741,1.069-2.924,1.069C339.061,106.538,338.073,106.182,337.307,105.469z"/>
		<path fill="#FDCE30" d="M356.75,105.469c-0.767-0.712-1.149-1.594-1.149-2.642c0-1.076,0.383-1.977,1.149-2.703
			c0.767-0.726,1.755-1.089,2.965-1.089c1.184,0,2.158,0.363,2.925,1.089c0.767,0.727,1.149,1.627,1.149,2.703
			c0,1.048-0.383,1.93-1.149,2.642c-0.767,0.713-1.741,1.069-2.925,1.069C358.504,106.538,357.516,106.182,356.75,105.469z"/>
		<path fill="#FDCE30" d="M6.777,134.469c-0.767-0.712-1.149-1.594-1.149-2.642c0-1.076,0.383-1.977,1.149-2.703
			c0.767-0.726,1.755-1.089,2.965-1.089c1.184,0,2.158,0.363,2.925,1.089c0.767,0.727,1.149,1.627,1.149,2.703
			c0,1.048-0.383,1.93-1.149,2.642c-0.767,0.713-1.741,1.069-2.925,1.069C8.532,135.538,7.543,135.182,6.777,134.469z"/>
		<path fill="#FDCE30" d="M26.22,134.469c-0.767-0.712-1.15-1.594-1.15-2.642c0-1.076,0.384-1.977,1.15-2.703
			c0.766-0.726,1.754-1.089,2.965-1.089c1.183,0,2.158,0.363,2.924,1.089c0.767,0.727,1.15,1.627,1.15,2.703
			c0,1.048-0.384,1.93-1.15,2.642c-0.766,0.713-1.741,1.069-2.924,1.069C27.974,135.538,26.986,135.182,26.22,134.469z"/>
		<path fill="#FDCE30" d="M45.663,134.469c-0.766-0.712-1.149-1.594-1.149-2.642c0-1.076,0.384-1.977,1.149-2.703
			c0.767-0.726,1.755-1.089,2.965-1.089c1.184,0,2.158,0.363,2.925,1.089c0.767,0.727,1.149,1.627,1.149,2.703
			c0,1.048-0.383,1.93-1.149,2.642c-0.767,0.713-1.741,1.069-2.925,1.069C47.417,135.538,46.429,135.182,45.663,134.469z"/>
		<path fill="#FDCE30" d="M65.106,134.469c-0.767-0.712-1.149-1.594-1.149-2.642c0-1.076,0.383-1.977,1.149-2.703
			c0.767-0.726,1.755-1.089,2.965-1.089c1.183,0,2.158,0.363,2.925,1.089c0.766,0.727,1.149,1.627,1.149,2.703
			c0,1.048-0.384,1.93-1.149,2.642c-0.767,0.713-1.742,1.069-2.925,1.069C66.861,135.538,65.873,135.182,65.106,134.469z"/>
		<path fill="#FDCE30" d="M84.548,134.469c-0.766-0.712-1.149-1.594-1.149-2.642c0-1.076,0.384-1.977,1.149-2.703
			c0.767-0.726,1.755-1.089,2.965-1.089c1.184,0,2.158,0.363,2.925,1.089c0.767,0.727,1.149,1.627,1.149,2.703
			c0,1.048-0.383,1.93-1.149,2.642c-0.767,0.713-1.741,1.069-2.925,1.069C86.303,135.538,85.315,135.182,84.548,134.469z"/>
		<path fill="#FDCE30" d="M103.992,134.469c-0.767-0.712-1.149-1.594-1.149-2.642c0-1.076,0.383-1.977,1.149-2.703
			c0.767-0.726,1.755-1.089,2.965-1.089c1.183,0,2.158,0.363,2.925,1.089c0.766,0.727,1.149,1.627,1.149,2.703
			c0,1.048-0.384,1.93-1.149,2.642c-0.767,0.713-1.742,1.069-2.925,1.069C105.747,135.538,104.758,135.182,103.992,134.469z"/>
		<path fill="#FDCE30" d="M123.435,134.469c-0.767-0.712-1.15-1.594-1.15-2.642c0-1.076,0.384-1.977,1.15-2.703
			c0.766-0.726,1.754-1.089,2.965-1.089c1.183,0,2.158,0.363,2.924,1.089c0.767,0.727,1.15,1.627,1.15,2.703
			c0,1.048-0.384,1.93-1.15,2.642c-0.766,0.713-1.741,1.069-2.924,1.069C125.189,135.538,124.201,135.182,123.435,134.469z"/>
		<path fill="#FDCE30" d="M142.877,134.469c-0.767-0.712-1.149-1.594-1.149-2.642c0-1.076,0.383-1.977,1.149-2.703
			c0.767-0.726,1.755-1.089,2.965-1.089c1.184,0,2.158,0.363,2.925,1.089c0.767,0.727,1.149,1.627,1.149,2.703
			c0,1.048-0.383,1.93-1.149,2.642c-0.767,0.713-1.741,1.069-2.925,1.069C144.632,135.538,143.644,135.182,142.877,134.469z"/>
		<path fill="#FDCE30" d="M162.321,134.469c-0.767-0.712-1.15-1.594-1.15-2.642c0-1.076,0.384-1.977,1.15-2.703
			c0.766-0.726,1.754-1.089,2.965-1.089c1.183,0,2.158,0.363,2.924,1.089c0.767,0.727,1.15,1.627,1.15,2.703
			c0,1.048-0.384,1.93-1.15,2.642c-0.766,0.713-1.741,1.069-2.924,1.069C164.075,135.538,163.086,135.182,162.321,134.469z"/>
		<path fill="#FDCE30" d="M181.763,134.469c-0.767-0.712-1.149-1.594-1.149-2.642c0-1.076,0.383-1.977,1.149-2.703
			c0.767-0.726,1.755-1.089,2.965-1.089c1.184,0,2.158,0.363,2.925,1.089c0.767,0.727,1.149,1.627,1.149,2.703
			c0,1.048-0.383,1.93-1.149,2.642c-0.767,0.713-1.741,1.069-2.925,1.069C183.518,135.538,182.53,135.182,181.763,134.469z"/>
		<path fill="#FDCE30" d="M201.207,134.469c-0.767-0.712-1.149-1.594-1.149-2.642c0-1.076,0.383-1.977,1.149-2.703
			c0.767-0.726,1.755-1.089,2.965-1.089c1.183,0,2.158,0.363,2.925,1.089c0.766,0.727,1.149,1.627,1.149,2.703
			c0,1.048-0.384,1.93-1.149,2.642c-0.767,0.713-1.742,1.069-2.925,1.069C202.961,135.538,201.973,135.182,201.207,134.469z"/>
		<path fill="#FDCE30" d="M220.649,134.469c-0.766-0.712-1.149-1.594-1.149-2.642c0-1.076,0.384-1.977,1.149-2.703
			c0.767-0.726,1.755-1.089,2.965-1.089c1.184,0,2.158,0.363,2.925,1.089c0.767,0.727,1.149,1.627,1.149,2.703
			c0,1.048-0.383,1.93-1.149,2.642c-0.767,0.713-1.741,1.069-2.925,1.069C222.404,135.538,221.416,135.182,220.649,134.469z"/>
		<path fill="#FDCE30" d="M240.092,134.469c-0.767-0.712-1.15-1.594-1.15-2.642c0-1.076,0.384-1.977,1.15-2.703
			c0.766-0.726,1.754-1.089,2.965-1.089c1.183,0,2.158,0.363,2.924,1.089c0.767,0.727,1.15,1.627,1.15,2.703
			c0,1.048-0.384,1.93-1.15,2.642c-0.766,0.713-1.741,1.069-2.924,1.069C241.846,135.538,240.858,135.182,240.092,134.469z"/>
		<path fill="#FDCE30" d="M259.536,134.469c-0.767-0.712-1.15-1.594-1.15-2.642c0-1.076,0.384-1.977,1.15-2.703
			c0.766-0.726,1.754-1.089,2.965-1.089c1.183,0,2.158,0.363,2.924,1.089c0.767,0.727,1.15,1.627,1.15,2.703
			c0,1.048-0.384,1.93-1.15,2.642c-0.766,0.713-1.741,1.069-2.924,1.069C261.29,135.538,260.301,135.182,259.536,134.469z"/>
		<path fill="#FDCE30" d="M278.978,134.469c-0.767-0.712-1.149-1.594-1.149-2.642c0-1.076,0.383-1.977,1.149-2.703
			c0.767-0.726,1.755-1.089,2.965-1.089c1.183,0,2.158,0.363,2.925,1.089c0.766,0.727,1.149,1.627,1.149,2.703
			c0,1.048-0.384,1.93-1.149,2.642c-0.767,0.713-1.742,1.069-2.925,1.069C280.733,135.538,279.745,135.182,278.978,134.469z"/>
		<path fill="#FDCE30" d="M298.42,134.469c-0.766-0.712-1.149-1.594-1.149-2.642c0-1.076,0.384-1.977,1.149-2.703
			c0.767-0.726,1.755-1.089,2.965-1.089c1.184,0,2.158,0.363,2.925,1.089c0.767,0.727,1.149,1.627,1.149,2.703
			c0,1.048-0.383,1.93-1.149,2.642c-0.767,0.713-1.741,1.069-2.925,1.069C300.175,135.538,299.187,135.182,298.42,134.469z"/>
		<path fill="#FDCE30" d="M317.864,134.469c-0.767-0.712-1.149-1.594-1.149-2.642c0-1.076,0.383-1.977,1.149-2.703
			c0.767-0.726,1.755-1.089,2.965-1.089c1.184,0,2.158,0.363,2.925,1.089c0.767,0.727,1.149,1.627,1.149,2.703
			c0,1.048-0.383,1.93-1.149,2.642c-0.767,0.713-1.741,1.069-2.925,1.069C319.619,135.538,318.63,135.182,317.864,134.469z"/>
		<path fill="#FDCE30" d="M337.307,134.469c-0.767-0.712-1.15-1.594-1.15-2.642c0-1.076,0.384-1.977,1.15-2.703
			c0.766-0.726,1.754-1.089,2.965-1.089c1.183,0,2.158,0.363,2.924,1.089c0.767,0.727,1.15,1.627,1.15,2.703
			c0,1.048-0.384,1.93-1.15,2.642c-0.766,0.713-1.741,1.069-2.924,1.069C339.061,135.538,338.073,135.182,337.307,134.469z"/>
		<path fill="#FDCE30" d="M356.75,134.469c-0.767-0.712-1.149-1.594-1.149-2.642c0-1.076,0.383-1.977,1.149-2.703
			c0.767-0.726,1.755-1.089,2.965-1.089c1.184,0,2.158,0.363,2.925,1.089c0.767,0.727,1.149,1.627,1.149,2.703
			c0,1.048-0.383,1.93-1.149,2.642c-0.767,0.713-1.741,1.069-2.925,1.069C358.504,135.538,357.516,135.182,356.75,134.469z"/>
		<path fill="#FDCE30" d="M6.777,163.469c-0.767-0.712-1.149-1.594-1.149-2.642c0-1.076,0.383-1.977,1.149-2.703
			c0.767-0.726,1.755-1.089,2.965-1.089c1.184,0,2.158,0.363,2.925,1.089c0.767,0.727,1.149,1.627,1.149,2.703
			c0,1.048-0.383,1.93-1.149,2.642c-0.767,0.713-1.741,1.069-2.925,1.069C8.532,164.538,7.543,164.182,6.777,163.469z"/>
		<path fill="#FDCE30" d="M26.22,163.469c-0.767-0.712-1.15-1.594-1.15-2.642c0-1.076,0.384-1.977,1.15-2.703
			c0.766-0.726,1.754-1.089,2.965-1.089c1.183,0,2.158,0.363,2.924,1.089c0.767,0.727,1.15,1.627,1.15,2.703
			c0,1.048-0.384,1.93-1.15,2.642c-0.766,0.713-1.741,1.069-2.924,1.069C27.974,164.538,26.986,164.182,26.22,163.469z"/>
		<path fill="#FDCE30" d="M45.663,163.469c-0.766-0.712-1.149-1.594-1.149-2.642c0-1.076,0.384-1.977,1.149-2.703
			c0.767-0.726,1.755-1.089,2.965-1.089c1.184,0,2.158,0.363,2.925,1.089c0.767,0.727,1.149,1.627,1.149,2.703
			c0,1.048-0.383,1.93-1.149,2.642c-0.767,0.713-1.741,1.069-2.925,1.069C47.417,164.538,46.429,164.182,45.663,163.469z"/>
		<path fill="#FDCE30" d="M65.106,163.469c-0.767-0.712-1.149-1.594-1.149-2.642c0-1.076,0.383-1.977,1.149-2.703
			c0.767-0.726,1.755-1.089,2.965-1.089c1.183,0,2.158,0.363,2.925,1.089c0.766,0.727,1.149,1.627,1.149,2.703
			c0,1.048-0.384,1.93-1.149,2.642c-0.767,0.713-1.742,1.069-2.925,1.069C66.861,164.538,65.873,164.182,65.106,163.469z"/>
		<path fill="#FDCE30" d="M84.548,163.469c-0.766-0.712-1.149-1.594-1.149-2.642c0-1.076,0.384-1.977,1.149-2.703
			c0.767-0.726,1.755-1.089,2.965-1.089c1.184,0,2.158,0.363,2.925,1.089c0.767,0.727,1.149,1.627,1.149,2.703
			c0,1.048-0.383,1.93-1.149,2.642c-0.767,0.713-1.741,1.069-2.925,1.069C86.303,164.538,85.315,164.182,84.548,163.469z"/>
		<path fill="#FDCE30" d="M103.992,163.469c-0.767-0.712-1.149-1.594-1.149-2.642c0-1.076,0.383-1.977,1.149-2.703
			c0.767-0.726,1.755-1.089,2.965-1.089c1.183,0,2.158,0.363,2.925,1.089c0.766,0.727,1.149,1.627,1.149,2.703
			c0,1.048-0.384,1.93-1.149,2.642c-0.767,0.713-1.742,1.069-2.925,1.069C105.747,164.538,104.758,164.182,103.992,163.469z"/>
		<path fill="#FDCE30" d="M123.435,163.469c-0.767-0.712-1.15-1.594-1.15-2.642c0-1.076,0.384-1.977,1.15-2.703
			c0.766-0.726,1.754-1.089,2.965-1.089c1.183,0,2.158,0.363,2.924,1.089c0.767,0.727,1.15,1.627,1.15,2.703
			c0,1.048-0.384,1.93-1.15,2.642c-0.766,0.713-1.741,1.069-2.924,1.069C125.189,164.538,124.201,164.182,123.435,163.469z"/>
		<path fill="#FDCE30" d="M142.877,163.469c-0.767-0.712-1.149-1.594-1.149-2.642c0-1.076,0.383-1.977,1.149-2.703
			c0.767-0.726,1.755-1.089,2.965-1.089c1.184,0,2.158,0.363,2.925,1.089c0.767,0.727,1.149,1.627,1.149,2.703
			c0,1.048-0.383,1.93-1.149,2.642c-0.767,0.713-1.741,1.069-2.925,1.069C144.632,164.538,143.644,164.182,142.877,163.469z"/>
		<path fill="#FDCE30" d="M162.321,163.469c-0.767-0.712-1.15-1.594-1.15-2.642c0-1.076,0.384-1.977,1.15-2.703
			c0.766-0.726,1.754-1.089,2.965-1.089c1.183,0,2.158,0.363,2.924,1.089c0.767,0.727,1.15,1.627,1.15,2.703
			c0,1.048-0.384,1.93-1.15,2.642c-0.766,0.713-1.741,1.069-2.924,1.069C164.075,164.538,163.086,164.182,162.321,163.469z"/>
		<path fill="#FDCE30" d="M181.763,163.469c-0.767-0.712-1.149-1.594-1.149-2.642c0-1.076,0.383-1.977,1.149-2.703
			c0.767-0.726,1.755-1.089,2.965-1.089c1.184,0,2.158,0.363,2.925,1.089c0.767,0.727,1.149,1.627,1.149,2.703
			c0,1.048-0.383,1.93-1.149,2.642c-0.767,0.713-1.741,1.069-2.925,1.069C183.518,164.538,182.53,164.182,181.763,163.469z"/>
		<path fill="#FDCE30" d="M201.207,163.469c-0.767-0.712-1.149-1.594-1.149-2.642c0-1.076,0.383-1.977,1.149-2.703
			c0.767-0.726,1.755-1.089,2.965-1.089c1.183,0,2.158,0.363,2.925,1.089c0.766,0.727,1.149,1.627,1.149,2.703
			c0,1.048-0.384,1.93-1.149,2.642c-0.767,0.713-1.742,1.069-2.925,1.069C202.961,164.538,201.973,164.182,201.207,163.469z"/>
		<path fill="#FDCE30" d="M220.649,163.469c-0.766-0.712-1.149-1.594-1.149-2.642c0-1.076,0.384-1.977,1.149-2.703
			c0.767-0.726,1.755-1.089,2.965-1.089c1.184,0,2.158,0.363,2.925,1.089c0.767,0.727,1.149,1.627,1.149,2.703
			c0,1.048-0.383,1.93-1.149,2.642c-0.767,0.713-1.741,1.069-2.925,1.069C222.404,164.538,221.416,164.182,220.649,163.469z"/>
		<path fill="#FDCE30" d="M240.092,163.469c-0.767-0.712-1.15-1.594-1.15-2.642c0-1.076,0.384-1.977,1.15-2.703
			c0.766-0.726,1.754-1.089,2.965-1.089c1.183,0,2.158,0.363,2.924,1.089c0.767,0.727,1.15,1.627,1.15,2.703
			c0,1.048-0.384,1.93-1.15,2.642c-0.766,0.713-1.741,1.069-2.924,1.069C241.846,164.538,240.858,164.182,240.092,163.469z"/>
		<path fill="#FDCE30" d="M259.536,163.469c-0.767-0.712-1.15-1.594-1.15-2.642c0-1.076,0.384-1.977,1.15-2.703
			c0.766-0.726,1.754-1.089,2.965-1.089c1.183,0,2.158,0.363,2.924,1.089c0.767,0.727,1.15,1.627,1.15,2.703
			c0,1.048-0.384,1.93-1.15,2.642c-0.766,0.713-1.741,1.069-2.924,1.069C261.29,164.538,260.301,164.182,259.536,163.469z"/>
		<path fill="#FDCE30" d="M278.978,163.469c-0.767-0.712-1.149-1.594-1.149-2.642c0-1.076,0.383-1.977,1.149-2.703
			c0.767-0.726,1.755-1.089,2.965-1.089c1.183,0,2.158,0.363,2.925,1.089c0.766,0.727,1.149,1.627,1.149,2.703
			c0,1.048-0.384,1.93-1.149,2.642c-0.767,0.713-1.742,1.069-2.925,1.069C280.733,164.538,279.745,164.182,278.978,163.469z"/>
		<path fill="#FDCE30" d="M298.42,163.469c-0.766-0.712-1.149-1.594-1.149-2.642c0-1.076,0.384-1.977,1.149-2.703
			c0.767-0.726,1.755-1.089,2.965-1.089c1.184,0,2.158,0.363,2.925,1.089c0.767,0.727,1.149,1.627,1.149,2.703
			c0,1.048-0.383,1.93-1.149,2.642c-0.767,0.713-1.741,1.069-2.925,1.069C300.175,164.538,299.187,164.182,298.42,163.469z"/>
		<path fill="#FDCE30" d="M317.864,163.469c-0.767-0.712-1.149-1.594-1.149-2.642c0-1.076,0.383-1.977,1.149-2.703
			c0.767-0.726,1.755-1.089,2.965-1.089c1.184,0,2.158,0.363,2.925,1.089c0.767,0.727,1.149,1.627,1.149,2.703
			c0,1.048-0.383,1.93-1.149,2.642c-0.767,0.713-1.741,1.069-2.925,1.069C319.619,164.538,318.63,164.182,317.864,163.469z"/>
		<path fill="#FDCE30" d="M337.307,163.469c-0.767-0.712-1.15-1.594-1.15-2.642c0-1.076,0.384-1.977,1.15-2.703
			c0.766-0.726,1.754-1.089,2.965-1.089c1.183,0,2.158,0.363,2.924,1.089c0.767,0.727,1.15,1.627,1.15,2.703
			c0,1.048-0.384,1.93-1.15,2.642c-0.766,0.713-1.741,1.069-2.924,1.069C339.061,164.538,338.073,164.182,337.307,163.469z"/>
		<path fill="#FDCE30" d="M356.75,163.469c-0.767-0.712-1.149-1.594-1.149-2.642c0-1.076,0.383-1.977,1.149-2.703
			c0.767-0.726,1.755-1.089,2.965-1.089c1.184,0,2.158,0.363,2.925,1.089c0.767,0.727,1.149,1.627,1.149,2.703
			c0,1.048-0.383,1.93-1.149,2.642c-0.767,0.713-1.741,1.069-2.925,1.069C358.504,164.538,357.516,164.182,356.75,163.469z"/>
		<path fill="#FDCE30" d="M6.777,192.469c-0.767-0.712-1.149-1.594-1.149-2.642c0-1.076,0.383-1.977,1.149-2.703
			c0.767-0.726,1.755-1.089,2.965-1.089c1.184,0,2.158,0.363,2.925,1.089c0.767,0.727,1.149,1.627,1.149,2.703
			c0,1.048-0.383,1.93-1.149,2.642c-0.767,0.713-1.741,1.069-2.925,1.069C8.532,193.538,7.543,193.182,6.777,192.469z"/>
		<path fill="#FDCE30" d="M26.22,192.469c-0.767-0.712-1.15-1.594-1.15-2.642c0-1.076,0.384-1.977,1.15-2.703
			c0.766-0.726,1.754-1.089,2.965-1.089c1.183,0,2.158,0.363,2.924,1.089c0.767,0.727,1.15,1.627,1.15,2.703
			c0,1.048-0.384,1.93-1.15,2.642c-0.766,0.713-1.741,1.069-2.924,1.069C27.974,193.538,26.986,193.182,26.22,192.469z"/>
		<path fill="#FDCE30" d="M45.663,192.469c-0.766-0.712-1.149-1.594-1.149-2.642c0-1.076,0.384-1.977,1.149-2.703
			c0.767-0.726,1.755-1.089,2.965-1.089c1.184,0,2.158,0.363,2.925,1.089c0.767,0.727,1.149,1.627,1.149,2.703
			c0,1.048-0.383,1.93-1.149,2.642c-0.767,0.713-1.741,1.069-2.925,1.069C47.417,193.538,46.429,193.182,45.663,192.469z"/>
		<path fill="#FDCE30" d="M65.106,192.469c-0.767-0.712-1.149-1.594-1.149-2.642c0-1.076,0.383-1.977,1.149-2.703
			c0.767-0.726,1.755-1.089,2.965-1.089c1.183,0,2.158,0.363,2.925,1.089c0.766,0.727,1.149,1.627,1.149,2.703
			c0,1.048-0.384,1.93-1.149,2.642c-0.767,0.713-1.742,1.069-2.925,1.069C66.861,193.538,65.873,193.182,65.106,192.469z"/>
		<path fill="#FDCE30" d="M84.548,192.469c-0.766-0.712-1.149-1.594-1.149-2.642c0-1.076,0.384-1.977,1.149-2.703
			c0.767-0.726,1.755-1.089,2.965-1.089c1.184,0,2.158,0.363,2.925,1.089c0.767,0.727,1.149,1.627,1.149,2.703
			c0,1.048-0.383,1.93-1.149,2.642c-0.767,0.713-1.741,1.069-2.925,1.069C86.303,193.538,85.315,193.182,84.548,192.469z"/>
		<path fill="#FDCE30" d="M103.992,192.469c-0.767-0.712-1.149-1.594-1.149-2.642c0-1.076,0.383-1.977,1.149-2.703
			c0.767-0.726,1.755-1.089,2.965-1.089c1.183,0,2.158,0.363,2.925,1.089c0.766,0.727,1.149,1.627,1.149,2.703
			c0,1.048-0.384,1.93-1.149,2.642c-0.767,0.713-1.742,1.069-2.925,1.069C105.747,193.538,104.758,193.182,103.992,192.469z"/>
		<path fill="#FDCE30" d="M123.435,192.469c-0.767-0.712-1.15-1.594-1.15-2.642c0-1.076,0.384-1.977,1.15-2.703
			c0.766-0.726,1.754-1.089,2.965-1.089c1.183,0,2.158,0.363,2.924,1.089c0.767,0.727,1.15,1.627,1.15,2.703
			c0,1.048-0.384,1.93-1.15,2.642c-0.766,0.713-1.741,1.069-2.924,1.069C125.189,193.538,124.201,193.182,123.435,192.469z"/>
		<path fill="#FDCE30" d="M142.877,192.469c-0.767-0.712-1.149-1.594-1.149-2.642c0-1.076,0.383-1.977,1.149-2.703
			c0.767-0.726,1.755-1.089,2.965-1.089c1.184,0,2.158,0.363,2.925,1.089c0.767,0.727,1.149,1.627,1.149,2.703
			c0,1.048-0.383,1.93-1.149,2.642c-0.767,0.713-1.741,1.069-2.925,1.069C144.632,193.538,143.644,193.182,142.877,192.469z"/>
		<path fill="#FDCE30" d="M162.321,192.469c-0.767-0.712-1.15-1.594-1.15-2.642c0-1.076,0.384-1.977,1.15-2.703
			c0.766-0.726,1.754-1.089,2.965-1.089c1.183,0,2.158,0.363,2.924,1.089c0.767,0.727,1.15,1.627,1.15,2.703
			c0,1.048-0.384,1.93-1.15,2.642c-0.766,0.713-1.741,1.069-2.924,1.069C164.075,193.538,163.086,193.182,162.321,192.469z"/>
		<path fill="#FDCE30" d="M181.763,192.469c-0.767-0.712-1.149-1.594-1.149-2.642c0-1.076,0.383-1.977,1.149-2.703
			c0.767-0.726,1.755-1.089,2.965-1.089c1.184,0,2.158,0.363,2.925,1.089c0.767,0.727,1.149,1.627,1.149,2.703
			c0,1.048-0.383,1.93-1.149,2.642c-0.767,0.713-1.741,1.069-2.925,1.069C183.518,193.538,182.53,193.182,181.763,192.469z"/>
		<path fill="#FDCE30" d="M201.207,192.469c-0.767-0.712-1.149-1.594-1.149-2.642c0-1.076,0.383-1.977,1.149-2.703
			c0.767-0.726,1.755-1.089,2.965-1.089c1.183,0,2.158,0.363,2.925,1.089c0.766,0.727,1.149,1.627,1.149,2.703
			c0,1.048-0.384,1.93-1.149,2.642c-0.767,0.713-1.742,1.069-2.925,1.069C202.961,193.538,201.973,193.182,201.207,192.469z"/>
		<path fill="#FDCE30" d="M220.649,192.469c-0.766-0.712-1.149-1.594-1.149-2.642c0-1.076,0.384-1.977,1.149-2.703
			c0.767-0.726,1.755-1.089,2.965-1.089c1.184,0,2.158,0.363,2.925,1.089c0.767,0.727,1.149,1.627,1.149,2.703
			c0,1.048-0.383,1.93-1.149,2.642c-0.767,0.713-1.741,1.069-2.925,1.069C222.404,193.538,221.416,193.182,220.649,192.469z"/>
		<path fill="#FDCE30" d="M240.092,192.469c-0.767-0.712-1.15-1.594-1.15-2.642c0-1.076,0.384-1.977,1.15-2.703
			c0.766-0.726,1.754-1.089,2.965-1.089c1.183,0,2.158,0.363,2.924,1.089c0.767,0.727,1.15,1.627,1.15,2.703
			c0,1.048-0.384,1.93-1.15,2.642c-0.766,0.713-1.741,1.069-2.924,1.069C241.846,193.538,240.858,193.182,240.092,192.469z"/>
		<path fill="#FDCE30" d="M259.536,192.469c-0.767-0.712-1.15-1.594-1.15-2.642c0-1.076,0.384-1.977,1.15-2.703
			c0.766-0.726,1.754-1.089,2.965-1.089c1.183,0,2.158,0.363,2.924,1.089c0.767,0.727,1.15,1.627,1.15,2.703
			c0,1.048-0.384,1.93-1.15,2.642c-0.766,0.713-1.741,1.069-2.924,1.069C261.29,193.538,260.301,193.182,259.536,192.469z"/>
		<path fill="#FDCE30" d="M278.978,192.469c-0.767-0.712-1.149-1.594-1.149-2.642c0-1.076,0.383-1.977,1.149-2.703
			c0.767-0.726,1.755-1.089,2.965-1.089c1.183,0,2.158,0.363,2.925,1.089c0.766,0.727,1.149,1.627,1.149,2.703
			c0,1.048-0.384,1.93-1.149,2.642c-0.767,0.713-1.742,1.069-2.925,1.069C280.733,193.538,279.745,193.182,278.978,192.469z"/>
		<path fill="#FDCE30" d="M298.42,192.469c-0.766-0.712-1.149-1.594-1.149-2.642c0-1.076,0.384-1.977,1.149-2.703
			c0.767-0.726,1.755-1.089,2.965-1.089c1.184,0,2.158,0.363,2.925,1.089c0.767,0.727,1.149,1.627,1.149,2.703
			c0,1.048-0.383,1.93-1.149,2.642c-0.767,0.713-1.741,1.069-2.925,1.069C300.175,193.538,299.187,193.182,298.42,192.469z"/>
		<path fill="#FDCE30" d="M317.864,192.469c-0.767-0.712-1.149-1.594-1.149-2.642c0-1.076,0.383-1.977,1.149-2.703
			c0.767-0.726,1.755-1.089,2.965-1.089c1.184,0,2.158,0.363,2.925,1.089c0.767,0.727,1.149,1.627,1.149,2.703
			c0,1.048-0.383,1.93-1.149,2.642c-0.767,0.713-1.741,1.069-2.925,1.069C319.619,193.538,318.63,193.182,317.864,192.469z"/>
		<path fill="#FDCE30" d="M337.307,192.469c-0.767-0.712-1.15-1.594-1.15-2.642c0-1.076,0.384-1.977,1.15-2.703
			c0.766-0.726,1.754-1.089,2.965-1.089c1.183,0,2.158,0.363,2.924,1.089c0.767,0.727,1.15,1.627,1.15,2.703
			c0,1.048-0.384,1.93-1.15,2.642c-0.766,0.713-1.741,1.069-2.924,1.069C339.061,193.538,338.073,193.182,337.307,192.469z"/>
		<path fill="#FDCE30" d="M356.75,192.469c-0.767-0.712-1.149-1.594-1.149-2.642c0-1.076,0.383-1.977,1.149-2.703
			c0.767-0.726,1.755-1.089,2.965-1.089c1.184,0,2.158,0.363,2.925,1.089c0.767,0.727,1.149,1.627,1.149,2.703
			c0,1.048-0.383,1.93-1.149,2.642c-0.767,0.713-1.741,1.069-2.925,1.069C358.504,193.538,357.516,193.182,356.75,192.469z"/>
		<path fill="#FDCE30" d="M6.777,221.469c-0.767-0.713-1.149-1.594-1.149-2.643c0-1.076,0.383-1.977,1.149-2.703
			s1.755-1.088,2.965-1.088c1.184,0,2.158,0.361,2.925,1.088s1.149,1.627,1.149,2.703c0,1.049-0.383,1.93-1.149,2.643
			s-1.741,1.068-2.925,1.068C8.532,222.538,7.543,222.182,6.777,221.469z"/>
		<path fill="#FDCE30" d="M26.22,221.469c-0.767-0.713-1.15-1.594-1.15-2.643c0-1.076,0.384-1.977,1.15-2.703
			c0.766-0.727,1.754-1.088,2.965-1.088c1.183,0,2.158,0.361,2.924,1.088c0.767,0.727,1.15,1.627,1.15,2.703
			c0,1.049-0.384,1.93-1.15,2.643c-0.766,0.713-1.741,1.068-2.924,1.068C27.974,222.538,26.986,222.182,26.22,221.469z"/>
		<path fill="#FDCE30" d="M45.663,221.469c-0.766-0.713-1.149-1.594-1.149-2.643c0-1.076,0.384-1.977,1.149-2.703
			c0.767-0.727,1.755-1.088,2.965-1.088c1.184,0,2.158,0.361,2.925,1.088s1.149,1.627,1.149,2.703c0,1.049-0.383,1.93-1.149,2.643
			s-1.741,1.068-2.925,1.068C47.417,222.538,46.429,222.182,45.663,221.469z"/>
		<path fill="#FDCE30" d="M65.106,221.469c-0.767-0.713-1.149-1.594-1.149-2.643c0-1.076,0.383-1.977,1.149-2.703
			s1.755-1.088,2.965-1.088c1.183,0,2.158,0.361,2.925,1.088c0.766,0.727,1.149,1.627,1.149,2.703c0,1.049-0.384,1.93-1.149,2.643
			c-0.767,0.713-1.742,1.068-2.925,1.068C66.861,222.538,65.873,222.182,65.106,221.469z"/>
		<path fill="#FDCE30" d="M84.548,221.469c-0.766-0.713-1.149-1.594-1.149-2.643c0-1.076,0.384-1.977,1.149-2.703
			c0.767-0.727,1.755-1.088,2.965-1.088c1.184,0,2.158,0.361,2.925,1.088s1.149,1.627,1.149,2.703c0,1.049-0.383,1.93-1.149,2.643
			s-1.741,1.068-2.925,1.068C86.303,222.538,85.315,222.182,84.548,221.469z"/>
		<path fill="#FDCE30" d="M103.992,221.469c-0.767-0.713-1.149-1.594-1.149-2.643c0-1.076,0.383-1.977,1.149-2.703
			s1.755-1.088,2.965-1.088c1.183,0,2.158,0.361,2.925,1.088c0.766,0.727,1.149,1.627,1.149,2.703c0,1.049-0.384,1.93-1.149,2.643
			c-0.767,0.713-1.742,1.068-2.925,1.068C105.747,222.538,104.758,222.182,103.992,221.469z"/>
		<path fill="#FDCE30" d="M123.435,221.469c-0.767-0.713-1.15-1.594-1.15-2.643c0-1.076,0.384-1.977,1.15-2.703
			c0.766-0.727,1.754-1.088,2.965-1.088c1.183,0,2.158,0.361,2.924,1.088c0.767,0.727,1.15,1.627,1.15,2.703
			c0,1.049-0.384,1.93-1.15,2.643c-0.766,0.713-1.741,1.068-2.924,1.068C125.189,222.538,124.201,222.182,123.435,221.469z"/>
		<path fill="#FDCE30" d="M142.877,221.469c-0.767-0.713-1.149-1.594-1.149-2.643c0-1.076,0.383-1.977,1.149-2.703
			s1.755-1.088,2.965-1.088c1.184,0,2.158,0.361,2.925,1.088s1.149,1.627,1.149,2.703c0,1.049-0.383,1.93-1.149,2.643
			s-1.741,1.068-2.925,1.068C144.632,222.538,143.644,222.182,142.877,221.469z"/>
		<path fill="#FDCE30" d="M162.321,221.469c-0.767-0.713-1.15-1.594-1.15-2.643c0-1.076,0.384-1.977,1.15-2.703
			c0.766-0.727,1.754-1.088,2.965-1.088c1.183,0,2.158,0.361,2.924,1.088c0.767,0.727,1.15,1.627,1.15,2.703
			c0,1.049-0.384,1.93-1.15,2.643c-0.766,0.713-1.741,1.068-2.924,1.068C164.075,222.538,163.086,222.182,162.321,221.469z"/>
		<path fill="#FDCE30" d="M181.763,221.469c-0.767-0.713-1.149-1.594-1.149-2.643c0-1.076,0.383-1.977,1.149-2.703
			s1.755-1.088,2.965-1.088c1.184,0,2.158,0.361,2.925,1.088s1.149,1.627,1.149,2.703c0,1.049-0.383,1.93-1.149,2.643
			s-1.741,1.068-2.925,1.068C183.518,222.538,182.53,222.182,181.763,221.469z"/>
		<path fill="#FDCE30" d="M201.207,221.469c-0.767-0.713-1.149-1.594-1.149-2.643c0-1.076,0.383-1.977,1.149-2.703
			s1.755-1.088,2.965-1.088c1.183,0,2.158,0.361,2.925,1.088c0.766,0.727,1.149,1.627,1.149,2.703c0,1.049-0.384,1.93-1.149,2.643
			c-0.767,0.713-1.742,1.068-2.925,1.068C202.961,222.538,201.973,222.182,201.207,221.469z"/>
		<path fill="#FDCE30" d="M220.649,221.469c-0.766-0.713-1.149-1.594-1.149-2.643c0-1.076,0.384-1.977,1.149-2.703
			c0.767-0.727,1.755-1.088,2.965-1.088c1.184,0,2.158,0.361,2.925,1.088s1.149,1.627,1.149,2.703c0,1.049-0.383,1.93-1.149,2.643
			s-1.741,1.068-2.925,1.068C222.404,222.538,221.416,222.182,220.649,221.469z"/>
		<path fill="#FDCE30" d="M240.092,221.469c-0.767-0.713-1.15-1.594-1.15-2.643c0-1.076,0.384-1.977,1.15-2.703
			c0.766-0.727,1.754-1.088,2.965-1.088c1.183,0,2.158,0.361,2.924,1.088c0.767,0.727,1.15,1.627,1.15,2.703
			c0,1.049-0.384,1.93-1.15,2.643c-0.766,0.713-1.741,1.068-2.924,1.068C241.846,222.538,240.858,222.182,240.092,221.469z"/>
		<path fill="#FDCE30" d="M259.536,221.469c-0.767-0.713-1.15-1.594-1.15-2.643c0-1.076,0.384-1.977,1.15-2.703
			c0.766-0.727,1.754-1.088,2.965-1.088c1.183,0,2.158,0.361,2.924,1.088c0.767,0.727,1.15,1.627,1.15,2.703
			c0,1.049-0.384,1.93-1.15,2.643c-0.766,0.713-1.741,1.068-2.924,1.068C261.29,222.538,260.301,222.182,259.536,221.469z"/>
		<path fill="#FDCE30" d="M278.978,221.469c-0.767-0.713-1.149-1.594-1.149-2.643c0-1.076,0.383-1.977,1.149-2.703
			s1.755-1.088,2.965-1.088c1.183,0,2.158,0.361,2.925,1.088c0.766,0.727,1.149,1.627,1.149,2.703c0,1.049-0.384,1.93-1.149,2.643
			c-0.767,0.713-1.742,1.068-2.925,1.068C280.733,222.538,279.745,222.182,278.978,221.469z"/>
		<path fill="#FDCE30" d="M298.42,221.469c-0.766-0.713-1.149-1.594-1.149-2.643c0-1.076,0.384-1.977,1.149-2.703
			c0.767-0.727,1.755-1.088,2.965-1.088c1.184,0,2.158,0.361,2.925,1.088s1.149,1.627,1.149,2.703c0,1.049-0.383,1.93-1.149,2.643
			s-1.741,1.068-2.925,1.068C300.175,222.538,299.187,222.182,298.42,221.469z"/>
		<path fill="#FDCE30" d="M317.864,221.469c-0.767-0.713-1.149-1.594-1.149-2.643c0-1.076,0.383-1.977,1.149-2.703
			s1.755-1.088,2.965-1.088c1.184,0,2.158,0.361,2.925,1.088s1.149,1.627,1.149,2.703c0,1.049-0.383,1.93-1.149,2.643
			s-1.741,1.068-2.925,1.068C319.619,222.538,318.63,222.182,317.864,221.469z"/>
		<path fill="#FDCE30" d="M337.307,221.469c-0.767-0.713-1.15-1.594-1.15-2.643c0-1.076,0.384-1.977,1.15-2.703
			c0.766-0.727,1.754-1.088,2.965-1.088c1.183,0,2.158,0.361,2.924,1.088c0.767,0.727,1.15,1.627,1.15,2.703
			c0,1.049-0.384,1.93-1.15,2.643c-0.766,0.713-1.741,1.068-2.924,1.068C339.061,222.538,338.073,222.182,337.307,221.469z"/>
		<path fill="#FDCE30" d="M356.75,221.469c-0.767-0.713-1.149-1.594-1.149-2.643c0-1.076,0.383-1.977,1.149-2.703
			s1.755-1.088,2.965-1.088c1.184,0,2.158,0.361,2.925,1.088s1.149,1.627,1.149,2.703c0,1.049-0.383,1.93-1.149,2.643
			s-1.741,1.068-2.925,1.068C358.504,222.538,357.516,222.182,356.75,221.469z"/>
		<path fill="#FDCE30" d="M6.777,250.469c-0.767-0.713-1.149-1.594-1.149-2.643c0-1.076,0.383-1.977,1.149-2.703
			s1.755-1.088,2.965-1.088c1.184,0,2.158,0.361,2.925,1.088s1.149,1.627,1.149,2.703c0,1.049-0.383,1.93-1.149,2.643
			s-1.741,1.068-2.925,1.068C8.532,251.538,7.543,251.182,6.777,250.469z"/>
		<path fill="#FDCE30" d="M26.22,250.469c-0.767-0.713-1.15-1.594-1.15-2.643c0-1.076,0.384-1.977,1.15-2.703
			c0.766-0.727,1.754-1.088,2.965-1.088c1.183,0,2.158,0.361,2.924,1.088c0.767,0.727,1.15,1.627,1.15,2.703
			c0,1.049-0.384,1.93-1.15,2.643c-0.766,0.713-1.741,1.068-2.924,1.068C27.974,251.538,26.986,251.182,26.22,250.469z"/>
		<path fill="#FDCE30" d="M45.663,250.469c-0.766-0.713-1.149-1.594-1.149-2.643c0-1.076,0.384-1.977,1.149-2.703
			c0.767-0.727,1.755-1.088,2.965-1.088c1.184,0,2.158,0.361,2.925,1.088s1.149,1.627,1.149,2.703c0,1.049-0.383,1.93-1.149,2.643
			s-1.741,1.068-2.925,1.068C47.417,251.538,46.429,251.182,45.663,250.469z"/>
		<path fill="#FDCE30" d="M65.106,250.469c-0.767-0.713-1.149-1.594-1.149-2.643c0-1.076,0.383-1.977,1.149-2.703
			s1.755-1.088,2.965-1.088c1.183,0,2.158,0.361,2.925,1.088c0.766,0.727,1.149,1.627,1.149,2.703c0,1.049-0.384,1.93-1.149,2.643
			c-0.767,0.713-1.742,1.068-2.925,1.068C66.861,251.538,65.873,251.182,65.106,250.469z"/>
		<path fill="#FDCE30" d="M84.548,250.469c-0.766-0.713-1.149-1.594-1.149-2.643c0-1.076,0.384-1.977,1.149-2.703
			c0.767-0.727,1.755-1.088,2.965-1.088c1.184,0,2.158,0.361,2.925,1.088s1.149,1.627,1.149,2.703c0,1.049-0.383,1.93-1.149,2.643
			s-1.741,1.068-2.925,1.068C86.303,251.538,85.315,251.182,84.548,250.469z"/>
		<path fill="#FDCE30" d="M103.992,250.469c-0.767-0.713-1.149-1.594-1.149-2.643c0-1.076,0.383-1.977,1.149-2.703
			s1.755-1.088,2.965-1.088c1.183,0,2.158,0.361,2.925,1.088c0.766,0.727,1.149,1.627,1.149,2.703c0,1.049-0.384,1.93-1.149,2.643
			c-0.767,0.713-1.742,1.068-2.925,1.068C105.747,251.538,104.758,251.182,103.992,250.469z"/>
		<path fill="#FDCE30" d="M123.435,250.469c-0.767-0.713-1.15-1.594-1.15-2.643c0-1.076,0.384-1.977,1.15-2.703
			c0.766-0.727,1.754-1.088,2.965-1.088c1.183,0,2.158,0.361,2.924,1.088c0.767,0.727,1.15,1.627,1.15,2.703
			c0,1.049-0.384,1.93-1.15,2.643c-0.766,0.713-1.741,1.068-2.924,1.068C125.189,251.538,124.201,251.182,123.435,250.469z"/>
		<path fill="#FDCE30" d="M142.877,250.469c-0.767-0.713-1.149-1.594-1.149-2.643c0-1.076,0.383-1.977,1.149-2.703
			s1.755-1.088,2.965-1.088c1.184,0,2.158,0.361,2.925,1.088s1.149,1.627,1.149,2.703c0,1.049-0.383,1.93-1.149,2.643
			s-1.741,1.068-2.925,1.068C144.632,251.538,143.644,251.182,142.877,250.469z"/>
		<path fill="#FDCE30" d="M162.321,250.469c-0.767-0.713-1.15-1.594-1.15-2.643c0-1.076,0.384-1.977,1.15-2.703
			c0.766-0.727,1.754-1.088,2.965-1.088c1.183,0,2.158,0.361,2.924,1.088c0.767,0.727,1.15,1.627,1.15,2.703
			c0,1.049-0.384,1.93-1.15,2.643c-0.766,0.713-1.741,1.068-2.924,1.068C164.075,251.538,163.086,251.182,162.321,250.469z"/>
		<path fill="#FDCE30" d="M181.763,250.469c-0.767-0.713-1.149-1.594-1.149-2.643c0-1.076,0.383-1.977,1.149-2.703
			s1.755-1.088,2.965-1.088c1.184,0,2.158,0.361,2.925,1.088s1.149,1.627,1.149,2.703c0,1.049-0.383,1.93-1.149,2.643
			s-1.741,1.068-2.925,1.068C183.518,251.538,182.53,251.182,181.763,250.469z"/>
		<path fill="#FDCE30" d="M201.207,250.469c-0.767-0.713-1.149-1.594-1.149-2.643c0-1.076,0.383-1.977,1.149-2.703
			s1.755-1.088,2.965-1.088c1.183,0,2.158,0.361,2.925,1.088c0.766,0.727,1.149,1.627,1.149,2.703c0,1.049-0.384,1.93-1.149,2.643
			c-0.767,0.713-1.742,1.068-2.925,1.068C202.961,251.538,201.973,251.182,201.207,250.469z"/>
		<path fill="#FDCE30" d="M220.649,250.469c-0.766-0.713-1.149-1.594-1.149-2.643c0-1.076,0.384-1.977,1.149-2.703
			c0.767-0.727,1.755-1.088,2.965-1.088c1.184,0,2.158,0.361,2.925,1.088s1.149,1.627,1.149,2.703c0,1.049-0.383,1.93-1.149,2.643
			s-1.741,1.068-2.925,1.068C222.404,251.538,221.416,251.182,220.649,250.469z"/>
		<path fill="#FDCE30" d="M240.092,250.469c-0.767-0.713-1.15-1.594-1.15-2.643c0-1.076,0.384-1.977,1.15-2.703
			c0.766-0.727,1.754-1.088,2.965-1.088c1.183,0,2.158,0.361,2.924,1.088c0.767,0.727,1.15,1.627,1.15,2.703
			c0,1.049-0.384,1.93-1.15,2.643c-0.766,0.713-1.741,1.068-2.924,1.068C241.846,251.538,240.858,251.182,240.092,250.469z"/>
		<path fill="#FDCE30" d="M259.536,250.469c-0.767-0.713-1.15-1.594-1.15-2.643c0-1.076,0.384-1.977,1.15-2.703
			c0.766-0.727,1.754-1.088,2.965-1.088c1.183,0,2.158,0.361,2.924,1.088c0.767,0.727,1.15,1.627,1.15,2.703
			c0,1.049-0.384,1.93-1.15,2.643c-0.766,0.713-1.741,1.068-2.924,1.068C261.29,251.538,260.301,251.182,259.536,250.469z"/>
		<path fill="#FDCE30" d="M278.978,250.469c-0.767-0.713-1.149-1.594-1.149-2.643c0-1.076,0.383-1.977,1.149-2.703
			s1.755-1.088,2.965-1.088c1.183,0,2.158,0.361,2.925,1.088c0.766,0.727,1.149,1.627,1.149,2.703c0,1.049-0.384,1.93-1.149,2.643
			c-0.767,0.713-1.742,1.068-2.925,1.068C280.733,251.538,279.745,251.182,278.978,250.469z"/>
		<path fill="#FDCE30" d="M298.42,250.469c-0.766-0.713-1.149-1.594-1.149-2.643c0-1.076,0.384-1.977,1.149-2.703
			c0.767-0.727,1.755-1.088,2.965-1.088c1.184,0,2.158,0.361,2.925,1.088s1.149,1.627,1.149,2.703c0,1.049-0.383,1.93-1.149,2.643
			s-1.741,1.068-2.925,1.068C300.175,251.538,299.187,251.182,298.42,250.469z"/>
		<path fill="#FDCE30" d="M317.864,250.469c-0.767-0.713-1.149-1.594-1.149-2.643c0-1.076,0.383-1.977,1.149-2.703
			s1.755-1.088,2.965-1.088c1.184,0,2.158,0.361,2.925,1.088s1.149,1.627,1.149,2.703c0,1.049-0.383,1.93-1.149,2.643
			s-1.741,1.068-2.925,1.068C319.619,251.538,318.63,251.182,317.864,250.469z"/>
		<path fill="#FDCE30" d="M337.307,250.469c-0.767-0.713-1.15-1.594-1.15-2.643c0-1.076,0.384-1.977,1.15-2.703
			c0.766-0.727,1.754-1.088,2.965-1.088c1.183,0,2.158,0.361,2.924,1.088c0.767,0.727,1.15,1.627,1.15,2.703
			c0,1.049-0.384,1.93-1.15,2.643c-0.766,0.713-1.741,1.068-2.924,1.068C339.061,251.538,338.073,251.182,337.307,250.469z"/>
		<path fill="#FDCE30" d="M356.75,250.469c-0.767-0.713-1.149-1.594-1.149-2.643c0-1.076,0.383-1.977,1.149-2.703
			s1.755-1.088,2.965-1.088c1.184,0,2.158,0.361,2.925,1.088s1.149,1.627,1.149,2.703c0,1.049-0.383,1.93-1.149,2.643
			s-1.741,1.068-2.925,1.068C358.504,251.538,357.516,251.182,356.75,250.469z"/>
		<path fill="#FDCE30" d="M6.777,279.469c-0.767-0.713-1.149-1.594-1.149-2.643c0-1.076,0.383-1.977,1.149-2.703
			s1.755-1.088,2.965-1.088c1.184,0,2.158,0.361,2.925,1.088s1.149,1.627,1.149,2.703c0,1.049-0.383,1.93-1.149,2.643
			s-1.741,1.068-2.925,1.068C8.532,280.538,7.543,280.182,6.777,279.469z"/>
		<path fill="#FDCE30" d="M26.22,279.469c-0.767-0.713-1.15-1.594-1.15-2.643c0-1.076,0.384-1.977,1.15-2.703
			c0.766-0.727,1.754-1.088,2.965-1.088c1.183,0,2.158,0.361,2.924,1.088c0.767,0.727,1.15,1.627,1.15,2.703
			c0,1.049-0.384,1.93-1.15,2.643c-0.766,0.713-1.741,1.068-2.924,1.068C27.974,280.538,26.986,280.182,26.22,279.469z"/>
		<path fill="#FDCE30" d="M45.663,279.469c-0.766-0.713-1.149-1.594-1.149-2.643c0-1.076,0.384-1.977,1.149-2.703
			c0.767-0.727,1.755-1.088,2.965-1.088c1.184,0,2.158,0.361,2.925,1.088s1.149,1.627,1.149,2.703c0,1.049-0.383,1.93-1.149,2.643
			s-1.741,1.068-2.925,1.068C47.417,280.538,46.429,280.182,45.663,279.469z"/>
		<path fill="#FDCE30" d="M65.106,279.469c-0.767-0.713-1.149-1.594-1.149-2.643c0-1.076,0.383-1.977,1.149-2.703
			s1.755-1.088,2.965-1.088c1.183,0,2.158,0.361,2.925,1.088c0.766,0.727,1.149,1.627,1.149,2.703c0,1.049-0.384,1.93-1.149,2.643
			c-0.767,0.713-1.742,1.068-2.925,1.068C66.861,280.538,65.873,280.182,65.106,279.469z"/>
		<path fill="#FDCE30" d="M84.548,279.469c-0.766-0.713-1.149-1.594-1.149-2.643c0-1.076,0.384-1.977,1.149-2.703
			c0.767-0.727,1.755-1.088,2.965-1.088c1.184,0,2.158,0.361,2.925,1.088s1.149,1.627,1.149,2.703c0,1.049-0.383,1.93-1.149,2.643
			s-1.741,1.068-2.925,1.068C86.303,280.538,85.315,280.182,84.548,279.469z"/>
		<path fill="#FDCE30" d="M103.992,279.469c-0.767-0.713-1.149-1.594-1.149-2.643c0-1.076,0.383-1.977,1.149-2.703
			s1.755-1.088,2.965-1.088c1.183,0,2.158,0.361,2.925,1.088c0.766,0.727,1.149,1.627,1.149,2.703c0,1.049-0.384,1.93-1.149,2.643
			c-0.767,0.713-1.742,1.068-2.925,1.068C105.747,280.538,104.758,280.182,103.992,279.469z"/>
		<path fill="#FDCE30" d="M123.435,279.469c-0.767-0.713-1.15-1.594-1.15-2.643c0-1.076,0.384-1.977,1.15-2.703
			c0.766-0.727,1.754-1.088,2.965-1.088c1.183,0,2.158,0.361,2.924,1.088c0.767,0.727,1.15,1.627,1.15,2.703
			c0,1.049-0.384,1.93-1.15,2.643c-0.766,0.713-1.741,1.068-2.924,1.068C125.189,280.538,124.201,280.182,123.435,279.469z"/>
		<path fill="#FDCE30" d="M142.877,279.469c-0.767-0.713-1.149-1.594-1.149-2.643c0-1.076,0.383-1.977,1.149-2.703
			s1.755-1.088,2.965-1.088c1.184,0,2.158,0.361,2.925,1.088s1.149,1.627,1.149,2.703c0,1.049-0.383,1.93-1.149,2.643
			s-1.741,1.068-2.925,1.068C144.632,280.538,143.644,280.182,142.877,279.469z"/>
		<path fill="#FDCE30" d="M162.321,279.469c-0.767-0.713-1.15-1.594-1.15-2.643c0-1.076,0.384-1.977,1.15-2.703
			c0.766-0.727,1.754-1.088,2.965-1.088c1.183,0,2.158,0.361,2.924,1.088c0.767,0.727,1.15,1.627,1.15,2.703
			c0,1.049-0.384,1.93-1.15,2.643c-0.766,0.713-1.741,1.068-2.924,1.068C164.075,280.538,163.086,280.182,162.321,279.469z"/>
		<path fill="#FDCE30" d="M181.763,279.469c-0.767-0.713-1.149-1.594-1.149-2.643c0-1.076,0.383-1.977,1.149-2.703
			s1.755-1.088,2.965-1.088c1.184,0,2.158,0.361,2.925,1.088s1.149,1.627,1.149,2.703c0,1.049-0.383,1.93-1.149,2.643
			s-1.741,1.068-2.925,1.068C183.518,280.538,182.53,280.182,181.763,279.469z"/>
		<path fill="#FDCE30" d="M201.207,279.469c-0.767-0.713-1.149-1.594-1.149-2.643c0-1.076,0.383-1.977,1.149-2.703
			s1.755-1.088,2.965-1.088c1.183,0,2.158,0.361,2.925,1.088c0.766,0.727,1.149,1.627,1.149,2.703c0,1.049-0.384,1.93-1.149,2.643
			c-0.767,0.713-1.742,1.068-2.925,1.068C202.961,280.538,201.973,280.182,201.207,279.469z"/>
		<path fill="#FDCE30" d="M220.649,279.469c-0.766-0.713-1.149-1.594-1.149-2.643c0-1.076,0.384-1.977,1.149-2.703
			c0.767-0.727,1.755-1.088,2.965-1.088c1.184,0,2.158,0.361,2.925,1.088s1.149,1.627,1.149,2.703c0,1.049-0.383,1.93-1.149,2.643
			s-1.741,1.068-2.925,1.068C222.404,280.538,221.416,280.182,220.649,279.469z"/>
		<path fill="#FDCE30" d="M240.092,279.469c-0.767-0.713-1.15-1.594-1.15-2.643c0-1.076,0.384-1.977,1.15-2.703
			c0.766-0.727,1.754-1.088,2.965-1.088c1.183,0,2.158,0.361,2.924,1.088c0.767,0.727,1.15,1.627,1.15,2.703
			c0,1.049-0.384,1.93-1.15,2.643c-0.766,0.713-1.741,1.068-2.924,1.068C241.846,280.538,240.858,280.182,240.092,279.469z"/>
		<path fill="#FDCE30" d="M259.536,279.469c-0.767-0.713-1.15-1.594-1.15-2.643c0-1.076,0.384-1.977,1.15-2.703
			c0.766-0.727,1.754-1.088,2.965-1.088c1.183,0,2.158,0.361,2.924,1.088c0.767,0.727,1.15,1.627,1.15,2.703
			c0,1.049-0.384,1.93-1.15,2.643c-0.766,0.713-1.741,1.068-2.924,1.068C261.29,280.538,260.301,280.182,259.536,279.469z"/>
		<path fill="#FDCE30" d="M278.978,279.469c-0.767-0.713-1.149-1.594-1.149-2.643c0-1.076,0.383-1.977,1.149-2.703
			s1.755-1.088,2.965-1.088c1.183,0,2.158,0.361,2.925,1.088c0.766,0.727,1.149,1.627,1.149,2.703c0,1.049-0.384,1.93-1.149,2.643
			c-0.767,0.713-1.742,1.068-2.925,1.068C280.733,280.538,279.745,280.182,278.978,279.469z"/>
		<path fill="#FDCE30" d="M298.42,279.469c-0.766-0.713-1.149-1.594-1.149-2.643c0-1.076,0.384-1.977,1.149-2.703
			c0.767-0.727,1.755-1.088,2.965-1.088c1.184,0,2.158,0.361,2.925,1.088s1.149,1.627,1.149,2.703c0,1.049-0.383,1.93-1.149,2.643
			s-1.741,1.068-2.925,1.068C300.175,280.538,299.187,280.182,298.42,279.469z"/>
		<path fill="#FDCE30" d="M317.864,279.469c-0.767-0.713-1.149-1.594-1.149-2.643c0-1.076,0.383-1.977,1.149-2.703
			s1.755-1.088,2.965-1.088c1.184,0,2.158,0.361,2.925,1.088s1.149,1.627,1.149,2.703c0,1.049-0.383,1.93-1.149,2.643
			s-1.741,1.068-2.925,1.068C319.619,280.538,318.63,280.182,317.864,279.469z"/>
		<path fill="#FDCE30" d="M337.307,279.469c-0.767-0.713-1.15-1.594-1.15-2.643c0-1.076,0.384-1.977,1.15-2.703
			c0.766-0.727,1.754-1.088,2.965-1.088c1.183,0,2.158,0.361,2.924,1.088c0.767,0.727,1.15,1.627,1.15,2.703
			c0,1.049-0.384,1.93-1.15,2.643c-0.766,0.713-1.741,1.068-2.924,1.068C339.061,280.538,338.073,280.182,337.307,279.469z"/>
		<path fill="#FDCE30" d="M356.75,279.469c-0.767-0.713-1.149-1.594-1.149-2.643c0-1.076,0.383-1.977,1.149-2.703
			s1.755-1.088,2.965-1.088c1.184,0,2.158,0.361,2.925,1.088s1.149,1.627,1.149,2.703c0,1.049-0.383,1.93-1.149,2.643
			s-1.741,1.068-2.925,1.068C358.504,280.538,357.516,280.182,356.75,279.469z"/>
		<path fill="#FDCE30" d="M6.777,308.469c-0.767-0.713-1.149-1.594-1.149-2.643c0-1.076,0.383-1.977,1.149-2.703
			s1.755-1.088,2.965-1.088c1.184,0,2.158,0.361,2.925,1.088s1.149,1.627,1.149,2.703c0,1.049-0.383,1.93-1.149,2.643
			s-1.741,1.068-2.925,1.068C8.532,309.538,7.543,309.182,6.777,308.469z"/>
		<path fill="#FDCE30" d="M26.22,308.469c-0.767-0.713-1.15-1.594-1.15-2.643c0-1.076,0.384-1.977,1.15-2.703
			c0.766-0.727,1.754-1.088,2.965-1.088c1.183,0,2.158,0.361,2.924,1.088c0.767,0.727,1.15,1.627,1.15,2.703
			c0,1.049-0.384,1.93-1.15,2.643c-0.766,0.713-1.741,1.068-2.924,1.068C27.974,309.538,26.986,309.182,26.22,308.469z"/>
		<path fill="#FDCE30" d="M45.663,308.469c-0.766-0.713-1.149-1.594-1.149-2.643c0-1.076,0.384-1.977,1.149-2.703
			c0.767-0.727,1.755-1.088,2.965-1.088c1.184,0,2.158,0.361,2.925,1.088s1.149,1.627,1.149,2.703c0,1.049-0.383,1.93-1.149,2.643
			s-1.741,1.068-2.925,1.068C47.417,309.538,46.429,309.182,45.663,308.469z"/>
		<path fill="#FDCE30" d="M65.106,308.469c-0.767-0.713-1.149-1.594-1.149-2.643c0-1.076,0.383-1.977,1.149-2.703
			s1.755-1.088,2.965-1.088c1.183,0,2.158,0.361,2.925,1.088c0.766,0.727,1.149,1.627,1.149,2.703c0,1.049-0.384,1.93-1.149,2.643
			c-0.767,0.713-1.742,1.068-2.925,1.068C66.861,309.538,65.873,309.182,65.106,308.469z"/>
		<path fill="#FDCE30" d="M84.548,308.469c-0.766-0.713-1.149-1.594-1.149-2.643c0-1.076,0.384-1.977,1.149-2.703
			c0.767-0.727,1.755-1.088,2.965-1.088c1.184,0,2.158,0.361,2.925,1.088s1.149,1.627,1.149,2.703c0,1.049-0.383,1.93-1.149,2.643
			s-1.741,1.068-2.925,1.068C86.303,309.538,85.315,309.182,84.548,308.469z"/>
		<path fill="#FDCE30" d="M103.992,308.469c-0.767-0.713-1.149-1.594-1.149-2.643c0-1.076,0.383-1.977,1.149-2.703
			s1.755-1.088,2.965-1.088c1.183,0,2.158,0.361,2.925,1.088c0.766,0.727,1.149,1.627,1.149,2.703c0,1.049-0.384,1.93-1.149,2.643
			c-0.767,0.713-1.742,1.068-2.925,1.068C105.747,309.538,104.758,309.182,103.992,308.469z"/>
		<path fill="#FDCE30" d="M123.435,308.469c-0.767-0.713-1.15-1.594-1.15-2.643c0-1.076,0.384-1.977,1.15-2.703
			c0.766-0.727,1.754-1.088,2.965-1.088c1.183,0,2.158,0.361,2.924,1.088c0.767,0.727,1.15,1.627,1.15,2.703
			c0,1.049-0.384,1.93-1.15,2.643c-0.766,0.713-1.741,1.068-2.924,1.068C125.189,309.538,124.201,309.182,123.435,308.469z"/>
		<path fill="#FDCE30" d="M142.877,308.469c-0.767-0.713-1.149-1.594-1.149-2.643c0-1.076,0.383-1.977,1.149-2.703
			s1.755-1.088,2.965-1.088c1.184,0,2.158,0.361,2.925,1.088s1.149,1.627,1.149,2.703c0,1.049-0.383,1.93-1.149,2.643
			s-1.741,1.068-2.925,1.068C144.632,309.538,143.644,309.182,142.877,308.469z"/>
		<path fill="#FDCE30" d="M162.321,308.469c-0.767-0.713-1.15-1.594-1.15-2.643c0-1.076,0.384-1.977,1.15-2.703
			c0.766-0.727,1.754-1.088,2.965-1.088c1.183,0,2.158,0.361,2.924,1.088c0.767,0.727,1.15,1.627,1.15,2.703
			c0,1.049-0.384,1.93-1.15,2.643c-0.766,0.713-1.741,1.068-2.924,1.068C164.075,309.538,163.086,309.182,162.321,308.469z"/>
		<path fill="#FDCE30" d="M181.763,308.469c-0.767-0.713-1.149-1.594-1.149-2.643c0-1.076,0.383-1.977,1.149-2.703
			s1.755-1.088,2.965-1.088c1.184,0,2.158,0.361,2.925,1.088s1.149,1.627,1.149,2.703c0,1.049-0.383,1.93-1.149,2.643
			s-1.741,1.068-2.925,1.068C183.518,309.538,182.53,309.182,181.763,308.469z"/>
		<path fill="#FDCE30" d="M201.207,308.469c-0.767-0.713-1.149-1.594-1.149-2.643c0-1.076,0.383-1.977,1.149-2.703
			s1.755-1.088,2.965-1.088c1.183,0,2.158,0.361,2.925,1.088c0.766,0.727,1.149,1.627,1.149,2.703c0,1.049-0.384,1.93-1.149,2.643
			c-0.767,0.713-1.742,1.068-2.925,1.068C202.961,309.538,201.973,309.182,201.207,308.469z"/>
		<path fill="#FDCE30" d="M220.649,308.469c-0.766-0.713-1.149-1.594-1.149-2.643c0-1.076,0.384-1.977,1.149-2.703
			c0.767-0.727,1.755-1.088,2.965-1.088c1.184,0,2.158,0.361,2.925,1.088s1.149,1.627,1.149,2.703c0,1.049-0.383,1.93-1.149,2.643
			s-1.741,1.068-2.925,1.068C222.404,309.538,221.416,309.182,220.649,308.469z"/>
		<path fill="#FDCE30" d="M240.092,308.469c-0.767-0.713-1.15-1.594-1.15-2.643c0-1.076,0.384-1.977,1.15-2.703
			c0.766-0.727,1.754-1.088,2.965-1.088c1.183,0,2.158,0.361,2.924,1.088c0.767,0.727,1.15,1.627,1.15,2.703
			c0,1.049-0.384,1.93-1.15,2.643c-0.766,0.713-1.741,1.068-2.924,1.068C241.846,309.538,240.858,309.182,240.092,308.469z"/>
		<path fill="#FDCE30" d="M259.536,308.469c-0.767-0.713-1.15-1.594-1.15-2.643c0-1.076,0.384-1.977,1.15-2.703
			c0.766-0.727,1.754-1.088,2.965-1.088c1.183,0,2.158,0.361,2.924,1.088c0.767,0.727,1.15,1.627,1.15,2.703
			c0,1.049-0.384,1.93-1.15,2.643c-0.766,0.713-1.741,1.068-2.924,1.068C261.29,309.538,260.301,309.182,259.536,308.469z"/>
		<path fill="#FDCE30" d="M278.978,308.469c-0.767-0.713-1.149-1.594-1.149-2.643c0-1.076,0.383-1.977,1.149-2.703
			s1.755-1.088,2.965-1.088c1.183,0,2.158,0.361,2.925,1.088c0.766,0.727,1.149,1.627,1.149,2.703c0,1.049-0.384,1.93-1.149,2.643
			c-0.767,0.713-1.742,1.068-2.925,1.068C280.733,309.538,279.745,309.182,278.978,308.469z"/>
		<path fill="#FDCE30" d="M298.42,308.469c-0.766-0.713-1.149-1.594-1.149-2.643c0-1.076,0.384-1.977,1.149-2.703
			c0.767-0.727,1.755-1.088,2.965-1.088c1.184,0,2.158,0.361,2.925,1.088s1.149,1.627,1.149,2.703c0,1.049-0.383,1.93-1.149,2.643
			s-1.741,1.068-2.925,1.068C300.175,309.538,299.187,309.182,298.42,308.469z"/>
		<path fill="#FDCE30" d="M317.864,308.469c-0.767-0.713-1.149-1.594-1.149-2.643c0-1.076,0.383-1.977,1.149-2.703
			s1.755-1.088,2.965-1.088c1.184,0,2.158,0.361,2.925,1.088s1.149,1.627,1.149,2.703c0,1.049-0.383,1.93-1.149,2.643
			s-1.741,1.068-2.925,1.068C319.619,309.538,318.63,309.182,317.864,308.469z"/>
		<path fill="#FDCE30" d="M337.307,308.469c-0.767-0.713-1.15-1.594-1.15-2.643c0-1.076,0.384-1.977,1.15-2.703
			c0.766-0.727,1.754-1.088,2.965-1.088c1.183,0,2.158,0.361,2.924,1.088c0.767,0.727,1.15,1.627,1.15,2.703
			c0,1.049-0.384,1.93-1.15,2.643c-0.766,0.713-1.741,1.068-2.924,1.068C339.061,309.538,338.073,309.182,337.307,308.469z"/>
		<path fill="#FDCE30" d="M356.75,308.469c-0.767-0.713-1.149-1.594-1.149-2.643c0-1.076,0.383-1.977,1.149-2.703
			s1.755-1.088,2.965-1.088c1.184,0,2.158,0.361,2.925,1.088s1.149,1.627,1.149,2.703c0,1.049-0.383,1.93-1.149,2.643
			s-1.741,1.068-2.925,1.068C358.504,309.538,357.516,309.182,356.75,308.469z"/>
		<path fill="#FDCE30" d="M6.777,337.469c-0.767-0.713-1.149-1.594-1.149-2.643c0-1.076,0.383-1.977,1.149-2.703
			s1.755-1.088,2.965-1.088c1.184,0,2.158,0.361,2.925,1.088s1.149,1.627,1.149,2.703c0,1.049-0.383,1.93-1.149,2.643
			s-1.741,1.068-2.925,1.068C8.532,338.538,7.543,338.182,6.777,337.469z"/>
		<path fill="#FDCE30" d="M26.22,337.469c-0.767-0.713-1.15-1.594-1.15-2.643c0-1.076,0.384-1.977,1.15-2.703
			c0.766-0.727,1.754-1.088,2.965-1.088c1.183,0,2.158,0.361,2.924,1.088c0.767,0.727,1.15,1.627,1.15,2.703
			c0,1.049-0.384,1.93-1.15,2.643c-0.766,0.713-1.741,1.068-2.924,1.068C27.974,338.538,26.986,338.182,26.22,337.469z"/>
		<path fill="#FDCE30" d="M45.663,337.469c-0.766-0.713-1.149-1.594-1.149-2.643c0-1.076,0.384-1.977,1.149-2.703
			c0.767-0.727,1.755-1.088,2.965-1.088c1.184,0,2.158,0.361,2.925,1.088s1.149,1.627,1.149,2.703c0,1.049-0.383,1.93-1.149,2.643
			s-1.741,1.068-2.925,1.068C47.417,338.538,46.429,338.182,45.663,337.469z"/>
		<path fill="#FDCE30" d="M65.106,337.469c-0.767-0.713-1.149-1.594-1.149-2.643c0-1.076,0.383-1.977,1.149-2.703
			s1.755-1.088,2.965-1.088c1.183,0,2.158,0.361,2.925,1.088c0.766,0.727,1.149,1.627,1.149,2.703c0,1.049-0.384,1.93-1.149,2.643
			c-0.767,0.713-1.742,1.068-2.925,1.068C66.861,338.538,65.873,338.182,65.106,337.469z"/>
		<path fill="#FDCE30" d="M84.548,337.469c-0.766-0.713-1.149-1.594-1.149-2.643c0-1.076,0.384-1.977,1.149-2.703
			c0.767-0.727,1.755-1.088,2.965-1.088c1.184,0,2.158,0.361,2.925,1.088s1.149,1.627,1.149,2.703c0,1.049-0.383,1.93-1.149,2.643
			s-1.741,1.068-2.925,1.068C86.303,338.538,85.315,338.182,84.548,337.469z"/>
		<path fill="#FDCE30" d="M103.992,337.469c-0.767-0.713-1.149-1.594-1.149-2.643c0-1.076,0.383-1.977,1.149-2.703
			s1.755-1.088,2.965-1.088c1.183,0,2.158,0.361,2.925,1.088c0.766,0.727,1.149,1.627,1.149,2.703c0,1.049-0.384,1.93-1.149,2.643
			c-0.767,0.713-1.742,1.068-2.925,1.068C105.747,338.538,104.758,338.182,103.992,337.469z"/>
		<path fill="#FDCE30" d="M123.435,337.469c-0.767-0.713-1.15-1.594-1.15-2.643c0-1.076,0.384-1.977,1.15-2.703
			c0.766-0.727,1.754-1.088,2.965-1.088c1.183,0,2.158,0.361,2.924,1.088c0.767,0.727,1.15,1.627,1.15,2.703
			c0,1.049-0.384,1.93-1.15,2.643c-0.766,0.713-1.741,1.068-2.924,1.068C125.189,338.538,124.201,338.182,123.435,337.469z"/>
		<path fill="#FDCE30" d="M142.877,337.469c-0.767-0.713-1.149-1.594-1.149-2.643c0-1.076,0.383-1.977,1.149-2.703
			s1.755-1.088,2.965-1.088c1.184,0,2.158,0.361,2.925,1.088s1.149,1.627,1.149,2.703c0,1.049-0.383,1.93-1.149,2.643
			s-1.741,1.068-2.925,1.068C144.632,338.538,143.644,338.182,142.877,337.469z"/>
		<path fill="#FDCE30" d="M162.321,337.469c-0.767-0.713-1.15-1.594-1.15-2.643c0-1.076,0.384-1.977,1.15-2.703
			c0.766-0.727,1.754-1.088,2.965-1.088c1.183,0,2.158,0.361,2.924,1.088c0.767,0.727,1.15,1.627,1.15,2.703
			c0,1.049-0.384,1.93-1.15,2.643c-0.766,0.713-1.741,1.068-2.924,1.068C164.075,338.538,163.086,338.182,162.321,337.469z"/>
		<path fill="#FDCE30" d="M181.763,337.469c-0.767-0.713-1.149-1.594-1.149-2.643c0-1.076,0.383-1.977,1.149-2.703
			s1.755-1.088,2.965-1.088c1.184,0,2.158,0.361,2.925,1.088s1.149,1.627,1.149,2.703c0,1.049-0.383,1.93-1.149,2.643
			s-1.741,1.068-2.925,1.068C183.518,338.538,182.53,338.182,181.763,337.469z"/>
		<path fill="#FDCE30" d="M201.207,337.469c-0.767-0.713-1.149-1.594-1.149-2.643c0-1.076,0.383-1.977,1.149-2.703
			s1.755-1.088,2.965-1.088c1.183,0,2.158,0.361,2.925,1.088c0.766,0.727,1.149,1.627,1.149,2.703c0,1.049-0.384,1.93-1.149,2.643
			c-0.767,0.713-1.742,1.068-2.925,1.068C202.961,338.538,201.973,338.182,201.207,337.469z"/>
		<path fill="#FDCE30" d="M220.649,337.469c-0.766-0.713-1.149-1.594-1.149-2.643c0-1.076,0.384-1.977,1.149-2.703
			c0.767-0.727,1.755-1.088,2.965-1.088c1.184,0,2.158,0.361,2.925,1.088s1.149,1.627,1.149,2.703c0,1.049-0.383,1.93-1.149,2.643
			s-1.741,1.068-2.925,1.068C222.404,338.538,221.416,338.182,220.649,337.469z"/>
		<path fill="#FDCE30" d="M240.092,337.469c-0.767-0.713-1.15-1.594-1.15-2.643c0-1.076,0.384-1.977,1.15-2.703
			c0.766-0.727,1.754-1.088,2.965-1.088c1.183,0,2.158,0.361,2.924,1.088c0.767,0.727,1.15,1.627,1.15,2.703
			c0,1.049-0.384,1.93-1.15,2.643c-0.766,0.713-1.741,1.068-2.924,1.068C241.846,338.538,240.858,338.182,240.092,337.469z"/>
		<path fill="#FDCE30" d="M259.536,337.469c-0.767-0.713-1.15-1.594-1.15-2.643c0-1.076,0.384-1.977,1.15-2.703
			c0.766-0.727,1.754-1.088,2.965-1.088c1.183,0,2.158,0.361,2.924,1.088c0.767,0.727,1.15,1.627,1.15,2.703
			c0,1.049-0.384,1.93-1.15,2.643c-0.766,0.713-1.741,1.068-2.924,1.068C261.29,338.538,260.301,338.182,259.536,337.469z"/>
		<path fill="#FDCE30" d="M278.978,337.469c-0.767-0.713-1.149-1.594-1.149-2.643c0-1.076,0.383-1.977,1.149-2.703
			s1.755-1.088,2.965-1.088c1.183,0,2.158,0.361,2.925,1.088c0.766,0.727,1.149,1.627,1.149,2.703c0,1.049-0.384,1.93-1.149,2.643
			c-0.767,0.713-1.742,1.068-2.925,1.068C280.733,338.538,279.745,338.182,278.978,337.469z"/>
		<path fill="#FDCE30" d="M298.42,337.469c-0.766-0.713-1.149-1.594-1.149-2.643c0-1.076,0.384-1.977,1.149-2.703
			c0.767-0.727,1.755-1.088,2.965-1.088c1.184,0,2.158,0.361,2.925,1.088s1.149,1.627,1.149,2.703c0,1.049-0.383,1.93-1.149,2.643
			s-1.741,1.068-2.925,1.068C300.175,338.538,299.187,338.182,298.42,337.469z"/>
		<path fill="#FDCE30" d="M317.864,337.469c-0.767-0.713-1.149-1.594-1.149-2.643c0-1.076,0.383-1.977,1.149-2.703
			s1.755-1.088,2.965-1.088c1.184,0,2.158,0.361,2.925,1.088s1.149,1.627,1.149,2.703c0,1.049-0.383,1.93-1.149,2.643
			s-1.741,1.068-2.925,1.068C319.619,338.538,318.63,338.182,317.864,337.469z"/>
		<path fill="#FDCE30" d="M337.307,337.469c-0.767-0.713-1.15-1.594-1.15-2.643c0-1.076,0.384-1.977,1.15-2.703
			c0.766-0.727,1.754-1.088,2.965-1.088c1.183,0,2.158,0.361,2.924,1.088c0.767,0.727,1.15,1.627,1.15,2.703
			c0,1.049-0.384,1.93-1.15,2.643c-0.766,0.713-1.741,1.068-2.924,1.068C339.061,338.538,338.073,338.182,337.307,337.469z"/>
		<path fill="#FDCE30" d="M356.75,337.469c-0.767-0.713-1.149-1.594-1.149-2.643c0-1.076,0.383-1.977,1.149-2.703
			s1.755-1.088,2.965-1.088c1.184,0,2.158,0.361,2.925,1.088s1.149,1.627,1.149,2.703c0,1.049-0.383,1.93-1.149,2.643
			s-1.741,1.068-2.925,1.068C358.504,338.538,357.516,338.182,356.75,337.469z"/>
		<path fill="#FDCE30" d="M6.777,366.469c-0.767-0.713-1.149-1.594-1.149-2.643c0-1.076,0.383-1.977,1.149-2.703
			s1.755-1.088,2.965-1.088c1.184,0,2.158,0.361,2.925,1.088s1.149,1.627,1.149,2.703c0,1.049-0.383,1.93-1.149,2.643
			s-1.741,1.068-2.925,1.068C8.532,367.538,7.543,367.182,6.777,366.469z"/>
		<path fill="#FDCE30" d="M26.22,366.469c-0.767-0.713-1.15-1.594-1.15-2.643c0-1.076,0.384-1.977,1.15-2.703
			c0.766-0.727,1.754-1.088,2.965-1.088c1.183,0,2.158,0.361,2.924,1.088c0.767,0.727,1.15,1.627,1.15,2.703
			c0,1.049-0.384,1.93-1.15,2.643c-0.766,0.713-1.741,1.068-2.924,1.068C27.974,367.538,26.986,367.182,26.22,366.469z"/>
		<path fill="#FDCE30" d="M45.663,366.469c-0.766-0.713-1.149-1.594-1.149-2.643c0-1.076,0.384-1.977,1.149-2.703
			c0.767-0.727,1.755-1.088,2.965-1.088c1.184,0,2.158,0.361,2.925,1.088s1.149,1.627,1.149,2.703c0,1.049-0.383,1.93-1.149,2.643
			s-1.741,1.068-2.925,1.068C47.417,367.538,46.429,367.182,45.663,366.469z"/>
		<path fill="#FDCE30" d="M65.106,366.469c-0.767-0.713-1.149-1.594-1.149-2.643c0-1.076,0.383-1.977,1.149-2.703
			s1.755-1.088,2.965-1.088c1.183,0,2.158,0.361,2.925,1.088c0.766,0.727,1.149,1.627,1.149,2.703c0,1.049-0.384,1.93-1.149,2.643
			c-0.767,0.713-1.742,1.068-2.925,1.068C66.861,367.538,65.873,367.182,65.106,366.469z"/>
		<path fill="#FDCE30" d="M84.548,366.469c-0.766-0.713-1.149-1.594-1.149-2.643c0-1.076,0.384-1.977,1.149-2.703
			c0.767-0.727,1.755-1.088,2.965-1.088c1.184,0,2.158,0.361,2.925,1.088s1.149,1.627,1.149,2.703c0,1.049-0.383,1.93-1.149,2.643
			s-1.741,1.068-2.925,1.068C86.303,367.538,85.315,367.182,84.548,366.469z"/>
		<path fill="#FDCE30" d="M103.992,366.469c-0.767-0.713-1.149-1.594-1.149-2.643c0-1.076,0.383-1.977,1.149-2.703
			s1.755-1.088,2.965-1.088c1.183,0,2.158,0.361,2.925,1.088c0.766,0.727,1.149,1.627,1.149,2.703c0,1.049-0.384,1.93-1.149,2.643
			c-0.767,0.713-1.742,1.068-2.925,1.068C105.747,367.538,104.758,367.182,103.992,366.469z"/>
		<path fill="#FDCE30" d="M123.435,366.469c-0.767-0.713-1.15-1.594-1.15-2.643c0-1.076,0.384-1.977,1.15-2.703
			c0.766-0.727,1.754-1.088,2.965-1.088c1.183,0,2.158,0.361,2.924,1.088c0.767,0.727,1.15,1.627,1.15,2.703
			c0,1.049-0.384,1.93-1.15,2.643c-0.766,0.713-1.741,1.068-2.924,1.068C125.189,367.538,124.201,367.182,123.435,366.469z"/>
		<path fill="#FDCE30" d="M142.877,366.469c-0.767-0.713-1.149-1.594-1.149-2.643c0-1.076,0.383-1.977,1.149-2.703
			s1.755-1.088,2.965-1.088c1.184,0,2.158,0.361,2.925,1.088s1.149,1.627,1.149,2.703c0,1.049-0.383,1.93-1.149,2.643
			s-1.741,1.068-2.925,1.068C144.632,367.538,143.644,367.182,142.877,366.469z"/>
		<path fill="#FDCE30" d="M162.321,366.469c-0.767-0.713-1.15-1.594-1.15-2.643c0-1.076,0.384-1.977,1.15-2.703
			c0.766-0.727,1.754-1.088,2.965-1.088c1.183,0,2.158,0.361,2.924,1.088c0.767,0.727,1.15,1.627,1.15,2.703
			c0,1.049-0.384,1.93-1.15,2.643c-0.766,0.713-1.741,1.068-2.924,1.068C164.075,367.538,163.086,367.182,162.321,366.469z"/>
		<path fill="#FDCE30" d="M181.763,366.469c-0.767-0.713-1.149-1.594-1.149-2.643c0-1.076,0.383-1.977,1.149-2.703
			s1.755-1.088,2.965-1.088c1.184,0,2.158,0.361,2.925,1.088s1.149,1.627,1.149,2.703c0,1.049-0.383,1.93-1.149,2.643
			s-1.741,1.068-2.925,1.068C183.518,367.538,182.53,367.182,181.763,366.469z"/>
		<path fill="#FDCE30" d="M201.207,366.469c-0.767-0.713-1.149-1.594-1.149-2.643c0-1.076,0.383-1.977,1.149-2.703
			s1.755-1.088,2.965-1.088c1.183,0,2.158,0.361,2.925,1.088c0.766,0.727,1.149,1.627,1.149,2.703c0,1.049-0.384,1.93-1.149,2.643
			c-0.767,0.713-1.742,1.068-2.925,1.068C202.961,367.538,201.973,367.182,201.207,366.469z"/>
		<path fill="#FDCE30" d="M220.649,366.469c-0.766-0.713-1.149-1.594-1.149-2.643c0-1.076,0.384-1.977,1.149-2.703
			c0.767-0.727,1.755-1.088,2.965-1.088c1.184,0,2.158,0.361,2.925,1.088s1.149,1.627,1.149,2.703c0,1.049-0.383,1.93-1.149,2.643
			s-1.741,1.068-2.925,1.068C222.404,367.538,221.416,367.182,220.649,366.469z"/>
		<path fill="#FDCE30" d="M240.092,366.469c-0.767-0.713-1.15-1.594-1.15-2.643c0-1.076,0.384-1.977,1.15-2.703
			c0.766-0.727,1.754-1.088,2.965-1.088c1.183,0,2.158,0.361,2.924,1.088c0.767,0.727,1.15,1.627,1.15,2.703
			c0,1.049-0.384,1.93-1.15,2.643c-0.766,0.713-1.741,1.068-2.924,1.068C241.846,367.538,240.858,367.182,240.092,366.469z"/>
		<path fill="#FDCE30" d="M259.536,366.469c-0.767-0.713-1.15-1.594-1.15-2.643c0-1.076,0.384-1.977,1.15-2.703
			c0.766-0.727,1.754-1.088,2.965-1.088c1.183,0,2.158,0.361,2.924,1.088c0.767,0.727,1.15,1.627,1.15,2.703
			c0,1.049-0.384,1.93-1.15,2.643c-0.766,0.713-1.741,1.068-2.924,1.068C261.29,367.538,260.301,367.182,259.536,366.469z"/>
		<path fill="#FDCE30" d="M278.978,366.469c-0.767-0.713-1.149-1.594-1.149-2.643c0-1.076,0.383-1.977,1.149-2.703
			s1.755-1.088,2.965-1.088c1.183,0,2.158,0.361,2.925,1.088c0.766,0.727,1.149,1.627,1.149,2.703c0,1.049-0.384,1.93-1.149,2.643
			c-0.767,0.713-1.742,1.068-2.925,1.068C280.733,367.538,279.745,367.182,278.978,366.469z"/>
		<path fill="#FDCE30" d="M298.42,366.469c-0.766-0.713-1.149-1.594-1.149-2.643c0-1.076,0.384-1.977,1.149-2.703
			c0.767-0.727,1.755-1.088,2.965-1.088c1.184,0,2.158,0.361,2.925,1.088s1.149,1.627,1.149,2.703c0,1.049-0.383,1.93-1.149,2.643
			s-1.741,1.068-2.925,1.068C300.175,367.538,299.187,367.182,298.42,366.469z"/>
		<path fill="#FDCE30" d="M317.864,366.469c-0.767-0.713-1.149-1.594-1.149-2.643c0-1.076,0.383-1.977,1.149-2.703
			s1.755-1.088,2.965-1.088c1.184,0,2.158,0.361,2.925,1.088s1.149,1.627,1.149,2.703c0,1.049-0.383,1.93-1.149,2.643
			s-1.741,1.068-2.925,1.068C319.619,367.538,318.63,367.182,317.864,366.469z"/>
		<path fill="#FDCE30" d="M337.307,366.469c-0.767-0.713-1.15-1.594-1.15-2.643c0-1.076,0.384-1.977,1.15-2.703
			c0.766-0.727,1.754-1.088,2.965-1.088c1.183,0,2.158,0.361,2.924,1.088c0.767,0.727,1.15,1.627,1.15,2.703
			c0,1.049-0.384,1.93-1.15,2.643c-0.766,0.713-1.741,1.068-2.924,1.068C339.061,367.538,338.073,367.182,337.307,366.469z"/>
		<path fill="#FDCE30" d="M356.75,366.469c-0.767-0.713-1.149-1.594-1.149-2.643c0-1.076,0.383-1.977,1.149-2.703
			s1.755-1.088,2.965-1.088c1.184,0,2.158,0.361,2.925,1.088s1.149,1.627,1.149,2.703c0,1.049-0.383,1.93-1.149,2.643
			s-1.741,1.068-2.925,1.068C358.504,367.538,357.516,367.182,356.75,366.469z"/>
		<path fill="#FDCE30" d="M6.777,395.469c-0.767-0.713-1.149-1.594-1.149-2.643c0-1.076,0.383-1.977,1.149-2.703
			s1.755-1.088,2.965-1.088c1.184,0,2.158,0.361,2.925,1.088s1.149,1.627,1.149,2.703c0,1.049-0.383,1.93-1.149,2.643
			s-1.741,1.068-2.925,1.068C8.532,396.538,7.543,396.182,6.777,395.469z"/>
		<path fill="#FDCE30" d="M26.22,395.469c-0.767-0.713-1.15-1.594-1.15-2.643c0-1.076,0.384-1.977,1.15-2.703
			c0.766-0.727,1.754-1.088,2.965-1.088c1.183,0,2.158,0.361,2.924,1.088c0.767,0.727,1.15,1.627,1.15,2.703
			c0,1.049-0.384,1.93-1.15,2.643c-0.766,0.713-1.741,1.068-2.924,1.068C27.974,396.538,26.986,396.182,26.22,395.469z"/>
		<path fill="#FDCE30" d="M45.663,395.469c-0.766-0.713-1.149-1.594-1.149-2.643c0-1.076,0.384-1.977,1.149-2.703
			c0.767-0.727,1.755-1.088,2.965-1.088c1.184,0,2.158,0.361,2.925,1.088s1.149,1.627,1.149,2.703c0,1.049-0.383,1.93-1.149,2.643
			s-1.741,1.068-2.925,1.068C47.417,396.538,46.429,396.182,45.663,395.469z"/>
		<path fill="#FDCE30" d="M65.106,395.469c-0.767-0.713-1.149-1.594-1.149-2.643c0-1.076,0.383-1.977,1.149-2.703
			s1.755-1.088,2.965-1.088c1.183,0,2.158,0.361,2.925,1.088c0.766,0.727,1.149,1.627,1.149,2.703c0,1.049-0.384,1.93-1.149,2.643
			c-0.767,0.713-1.742,1.068-2.925,1.068C66.861,396.538,65.873,396.182,65.106,395.469z"/>
		<path fill="#FDCE30" d="M84.548,395.469c-0.766-0.713-1.149-1.594-1.149-2.643c0-1.076,0.384-1.977,1.149-2.703
			c0.767-0.727,1.755-1.088,2.965-1.088c1.184,0,2.158,0.361,2.925,1.088s1.149,1.627,1.149,2.703c0,1.049-0.383,1.93-1.149,2.643
			s-1.741,1.068-2.925,1.068C86.303,396.538,85.315,396.182,84.548,395.469z"/>
		<path fill="#FDCE30" d="M103.992,395.469c-0.767-0.713-1.149-1.594-1.149-2.643c0-1.076,0.383-1.977,1.149-2.703
			s1.755-1.088,2.965-1.088c1.183,0,2.158,0.361,2.925,1.088c0.766,0.727,1.149,1.627,1.149,2.703c0,1.049-0.384,1.93-1.149,2.643
			c-0.767,0.713-1.742,1.068-2.925,1.068C105.747,396.538,104.758,396.182,103.992,395.469z"/>
		<path fill="#FDCE30" d="M123.435,395.469c-0.767-0.713-1.15-1.594-1.15-2.643c0-1.076,0.384-1.977,1.15-2.703
			c0.766-0.727,1.754-1.088,2.965-1.088c1.183,0,2.158,0.361,2.924,1.088c0.767,0.727,1.15,1.627,1.15,2.703
			c0,1.049-0.384,1.93-1.15,2.643c-0.766,0.713-1.741,1.068-2.924,1.068C125.189,396.538,124.201,396.182,123.435,395.469z"/>
		<path fill="#FDCE30" d="M142.877,395.469c-0.767-0.713-1.149-1.594-1.149-2.643c0-1.076,0.383-1.977,1.149-2.703
			s1.755-1.088,2.965-1.088c1.184,0,2.158,0.361,2.925,1.088s1.149,1.627,1.149,2.703c0,1.049-0.383,1.93-1.149,2.643
			s-1.741,1.068-2.925,1.068C144.632,396.538,143.644,396.182,142.877,395.469z"/>
		<path fill="#FDCE30" d="M162.321,395.469c-0.767-0.713-1.15-1.594-1.15-2.643c0-1.076,0.384-1.977,1.15-2.703
			c0.766-0.727,1.754-1.088,2.965-1.088c1.183,0,2.158,0.361,2.924,1.088c0.767,0.727,1.15,1.627,1.15,2.703
			c0,1.049-0.384,1.93-1.15,2.643c-0.766,0.713-1.741,1.068-2.924,1.068C164.075,396.538,163.086,396.182,162.321,395.469z"/>
		<path fill="#FDCE30" d="M181.763,395.469c-0.767-0.713-1.149-1.594-1.149-2.643c0-1.076,0.383-1.977,1.149-2.703
			s1.755-1.088,2.965-1.088c1.184,0,2.158,0.361,2.925,1.088s1.149,1.627,1.149,2.703c0,1.049-0.383,1.93-1.149,2.643
			s-1.741,1.068-2.925,1.068C183.518,396.538,182.53,396.182,181.763,395.469z"/>
		<path fill="#FDCE30" d="M201.207,395.469c-0.767-0.713-1.149-1.594-1.149-2.643c0-1.076,0.383-1.977,1.149-2.703
			s1.755-1.088,2.965-1.088c1.183,0,2.158,0.361,2.925,1.088c0.766,0.727,1.149,1.627,1.149,2.703c0,1.049-0.384,1.93-1.149,2.643
			c-0.767,0.713-1.742,1.068-2.925,1.068C202.961,396.538,201.973,396.182,201.207,395.469z"/>
		<path fill="#FDCE30" d="M220.649,395.469c-0.766-0.713-1.149-1.594-1.149-2.643c0-1.076,0.384-1.977,1.149-2.703
			c0.767-0.727,1.755-1.088,2.965-1.088c1.184,0,2.158,0.361,2.925,1.088s1.149,1.627,1.149,2.703c0,1.049-0.383,1.93-1.149,2.643
			s-1.741,1.068-2.925,1.068C222.404,396.538,221.416,396.182,220.649,395.469z"/>
		<path fill="#FDCE30" d="M240.092,395.469c-0.767-0.713-1.15-1.594-1.15-2.643c0-1.076,0.384-1.977,1.15-2.703
			c0.766-0.727,1.754-1.088,2.965-1.088c1.183,0,2.158,0.361,2.924,1.088c0.767,0.727,1.15,1.627,1.15,2.703
			c0,1.049-0.384,1.93-1.15,2.643c-0.766,0.713-1.741,1.068-2.924,1.068C241.846,396.538,240.858,396.182,240.092,395.469z"/>
		<path fill="#FDCE30" d="M259.536,395.469c-0.767-0.713-1.15-1.594-1.15-2.643c0-1.076,0.384-1.977,1.15-2.703
			c0.766-0.727,1.754-1.088,2.965-1.088c1.183,0,2.158,0.361,2.924,1.088c0.767,0.727,1.15,1.627,1.15,2.703
			c0,1.049-0.384,1.93-1.15,2.643c-0.766,0.713-1.741,1.068-2.924,1.068C261.29,396.538,260.301,396.182,259.536,395.469z"/>
		<path fill="#FDCE30" d="M278.978,395.469c-0.767-0.713-1.149-1.594-1.149-2.643c0-1.076,0.383-1.977,1.149-2.703
			s1.755-1.088,2.965-1.088c1.183,0,2.158,0.361,2.925,1.088c0.766,0.727,1.149,1.627,1.149,2.703c0,1.049-0.384,1.93-1.149,2.643
			c-0.767,0.713-1.742,1.068-2.925,1.068C280.733,396.538,279.745,396.182,278.978,395.469z"/>
		<path fill="#FDCE30" d="M298.42,395.469c-0.766-0.713-1.149-1.594-1.149-2.643c0-1.076,0.384-1.977,1.149-2.703
			c0.767-0.727,1.755-1.088,2.965-1.088c1.184,0,2.158,0.361,2.925,1.088s1.149,1.627,1.149,2.703c0,1.049-0.383,1.93-1.149,2.643
			s-1.741,1.068-2.925,1.068C300.175,396.538,299.187,396.182,298.42,395.469z"/>
		<path fill="#FDCE30" d="M317.864,395.469c-0.767-0.713-1.149-1.594-1.149-2.643c0-1.076,0.383-1.977,1.149-2.703
			s1.755-1.088,2.965-1.088c1.184,0,2.158,0.361,2.925,1.088s1.149,1.627,1.149,2.703c0,1.049-0.383,1.93-1.149,2.643
			s-1.741,1.068-2.925,1.068C319.619,396.538,318.63,396.182,317.864,395.469z"/>
		<path fill="#FDCE30" d="M337.307,395.469c-0.767-0.713-1.15-1.594-1.15-2.643c0-1.076,0.384-1.977,1.15-2.703
			c0.766-0.727,1.754-1.088,2.965-1.088c1.183,0,2.158,0.361,2.924,1.088c0.767,0.727,1.15,1.627,1.15,2.703
			c0,1.049-0.384,1.93-1.15,2.643c-0.766,0.713-1.741,1.068-2.924,1.068C339.061,396.538,338.073,396.182,337.307,395.469z"/>
		<path fill="#FDCE30" d="M356.75,395.469c-0.767-0.713-1.149-1.594-1.149-2.643c0-1.076,0.383-1.977,1.149-2.703
			s1.755-1.088,2.965-1.088c1.184,0,2.158,0.361,2.925,1.088s1.149,1.627,1.149,2.703c0,1.049-0.383,1.93-1.149,2.643
			s-1.741,1.068-2.925,1.068C358.504,396.538,357.516,396.182,356.75,395.469z"/>
	</g>
</g>
</svg>
