<?xml version="1.0" encoding="utf-8"?>
<!-- Generator: Adobe Illustrator 16.0.0, SVG Export Plug-In . SVG Version: 6.00 Build 0)  -->
<!DOCTYPE svg PUBLIC "-//W3C//DTD SVG 1.1//EN" "http://www.w3.org/Graphics/SVG/1.1/DTD/svg11.dtd">
<svg version="1.1" id="Layer_1" xmlns="http://www.w3.org/2000/svg" xmlns:xlink="http://www.w3.org/1999/xlink" x="0px" y="0px"
	 width="213.208px" height="197.075px" viewBox="0 0 213.208 197.075" enable-background="new 0 0 213.208 197.075"
	 xml:space="preserve">
<g>
	<path fill="#FDCE30" d="M6.777,14.22c-0.768-0.712-1.149-1.594-1.149-2.642c0-1.076,0.384-1.977,1.149-2.703
		c0.767-0.726,1.755-1.089,2.965-1.089c1.183,0,2.158,0.363,2.925,1.089c0.767,0.727,1.149,1.627,1.149,2.703
		c0,1.048-0.384,1.93-1.149,2.642c-0.767,0.713-1.742,1.069-2.925,1.069C8.532,15.289,7.543,14.933,6.777,14.22z"/>
	<path fill="#FDCE30" d="M26.219,14.22c-0.767-0.712-1.149-1.594-1.149-2.642c0-1.076,0.384-1.977,1.149-2.703
		c0.767-0.726,1.755-1.089,2.965-1.089c1.184,0,2.157,0.363,2.925,1.089c0.767,0.727,1.148,1.627,1.148,2.703
		c0,1.048-0.383,1.93-1.148,2.642c-0.768,0.713-1.741,1.069-2.925,1.069C27.974,15.289,26.986,14.933,26.219,14.22z"/>
	<path fill="#FDCE30" d="M45.663,14.22c-0.767-0.712-1.148-1.594-1.148-2.642c0-1.076,0.383-1.977,1.148-2.703
		c0.768-0.726,1.755-1.089,2.965-1.089c1.185,0,2.158,0.363,2.926,1.089c0.767,0.727,1.148,1.627,1.148,2.703
		c0,1.048-0.383,1.93-1.148,2.642c-0.768,0.713-1.741,1.069-2.926,1.069C47.417,15.289,46.429,14.933,45.663,14.22z"/>
	<path fill="#FDCE30" d="M65.106,14.22c-0.768-0.712-1.15-1.594-1.15-2.642c0-1.076,0.384-1.977,1.15-2.703
		c0.766-0.726,1.754-1.089,2.965-1.089c1.183,0,2.158,0.363,2.924,1.089c0.768,0.727,1.15,1.627,1.15,2.703
		c0,1.048-0.384,1.93-1.15,2.642c-0.766,0.713-1.741,1.069-2.924,1.069C66.86,15.289,65.872,14.933,65.106,14.22z"/>
	<path fill="#FDCE30" d="M84.548,14.22c-0.767-0.712-1.148-1.594-1.148-2.642c0-1.076,0.383-1.977,1.148-2.703
		c0.768-0.726,1.756-1.089,2.966-1.089c1.184,0,2.157,0.363,2.925,1.089c0.767,0.727,1.148,1.627,1.148,2.703
		c0,1.048-0.383,1.93-1.148,2.642c-0.768,0.713-1.741,1.069-2.925,1.069C86.303,15.289,85.315,14.933,84.548,14.22z"/>
	<path fill="#FDCE30" d="M103.992,14.22c-0.767-0.712-1.15-1.594-1.15-2.642c0-1.076,0.385-1.977,1.15-2.703
		s1.754-1.089,2.965-1.089c1.184,0,2.158,0.363,2.924,1.089c0.768,0.727,1.15,1.627,1.15,2.703c0,1.048-0.384,1.93-1.15,2.642
		c-0.766,0.713-1.74,1.069-2.924,1.069C105.746,15.289,104.757,14.933,103.992,14.22z"/>
	<path fill="#FDCE30" d="M123.434,14.22c-0.767-0.712-1.149-1.594-1.149-2.642c0-1.076,0.384-1.977,1.149-2.703
		c0.767-0.726,1.755-1.089,2.965-1.089c1.184,0,2.158,0.363,2.925,1.089c0.767,0.727,1.149,1.627,1.149,2.703
		c0,1.048-0.384,1.93-1.149,2.642c-0.767,0.713-1.741,1.069-2.925,1.069C125.189,15.289,124.201,14.933,123.434,14.22z"/>
	<path fill="#FDCE30" d="M142.877,14.22c-0.767-0.712-1.148-1.594-1.148-2.642c0-1.076,0.383-1.977,1.148-2.703
		c0.768-0.726,1.755-1.089,2.965-1.089c1.184,0,2.158,0.363,2.926,1.089c0.766,0.727,1.148,1.627,1.148,2.703
		c0,1.048-0.384,1.93-1.148,2.642c-0.768,0.713-1.742,1.069-2.926,1.069C144.632,15.289,143.644,14.933,142.877,14.22z"/>
	<path fill="#FDCE30" d="M162.32,14.22c-0.766-0.712-1.149-1.594-1.149-2.642c0-1.076,0.385-1.977,1.149-2.703
		c0.767-0.726,1.755-1.089,2.965-1.089c1.185,0,2.158,0.363,2.925,1.089c0.768,0.727,1.149,1.627,1.149,2.703
		c0,1.048-0.383,1.93-1.149,2.642c-0.767,0.713-1.74,1.069-2.925,1.069C164.075,15.289,163.086,14.933,162.32,14.22z"/>
	<path fill="#FDCE30" d="M181.763,14.22c-0.768-0.712-1.149-1.594-1.149-2.642c0-1.076,0.383-1.977,1.149-2.703
		s1.755-1.089,2.965-1.089c1.183,0,2.158,0.363,2.925,1.089c0.766,0.727,1.149,1.627,1.149,2.703c0,1.048-0.385,1.93-1.149,2.642
		c-0.767,0.713-1.742,1.069-2.925,1.069C183.518,15.289,182.53,14.933,181.763,14.22z"/>
	<path fill="#FDCE30" d="M201.207,14.22c-0.767-0.712-1.148-1.594-1.148-2.642c0-1.076,0.383-1.977,1.148-2.703
		c0.768-0.726,1.755-1.089,2.965-1.089c1.184,0,2.158,0.363,2.926,1.089c0.766,0.727,1.148,1.627,1.148,2.703
		c0,1.048-0.384,1.93-1.148,2.642c-0.768,0.713-1.742,1.069-2.926,1.069C202.961,15.289,201.973,14.933,201.207,14.22z"/>
	<path fill="#FDCE30" d="M6.777,43.22c-0.768-0.712-1.149-1.594-1.149-2.642c0-1.076,0.384-1.977,1.149-2.703
		c0.767-0.726,1.755-1.089,2.965-1.089c1.183,0,2.158,0.363,2.925,1.089c0.767,0.727,1.149,1.627,1.149,2.703
		c0,1.048-0.384,1.93-1.149,2.642c-0.767,0.713-1.742,1.069-2.925,1.069C8.532,44.289,7.543,43.933,6.777,43.22z"/>
	<path fill="#FDCE30" d="M26.219,43.22c-0.767-0.712-1.149-1.594-1.149-2.642c0-1.076,0.384-1.977,1.149-2.703
		c0.767-0.726,1.755-1.089,2.965-1.089c1.184,0,2.157,0.363,2.925,1.089c0.767,0.727,1.148,1.627,1.148,2.703
		c0,1.048-0.383,1.93-1.148,2.642c-0.768,0.713-1.741,1.069-2.925,1.069C27.974,44.289,26.986,43.933,26.219,43.22z"/>
	<path fill="#FDCE30" d="M45.663,43.22c-0.767-0.712-1.148-1.594-1.148-2.642c0-1.076,0.383-1.977,1.148-2.703
		c0.768-0.726,1.755-1.089,2.965-1.089c1.185,0,2.158,0.363,2.926,1.089c0.767,0.727,1.148,1.627,1.148,2.703
		c0,1.048-0.383,1.93-1.148,2.642c-0.768,0.713-1.741,1.069-2.926,1.069C47.417,44.289,46.429,43.933,45.663,43.22z"/>
	<path fill="#FDCE30" d="M65.106,43.22c-0.768-0.712-1.15-1.594-1.15-2.642c0-1.076,0.384-1.977,1.15-2.703
		c0.766-0.726,1.754-1.089,2.965-1.089c1.183,0,2.158,0.363,2.924,1.089c0.768,0.727,1.15,1.627,1.15,2.703
		c0,1.048-0.384,1.93-1.15,2.642c-0.766,0.713-1.741,1.069-2.924,1.069C66.86,44.289,65.872,43.933,65.106,43.22z"/>
	<path fill="#FDCE30" d="M84.548,43.22c-0.767-0.712-1.148-1.594-1.148-2.642c0-1.076,0.383-1.977,1.148-2.703
		c0.768-0.726,1.756-1.089,2.966-1.089c1.184,0,2.157,0.363,2.925,1.089c0.767,0.727,1.148,1.627,1.148,2.703
		c0,1.048-0.383,1.93-1.148,2.642c-0.768,0.713-1.741,1.069-2.925,1.069C86.303,44.289,85.315,43.933,84.548,43.22z"/>
	<path fill="#FDCE30" d="M103.992,43.22c-0.767-0.712-1.15-1.594-1.15-2.642c0-1.076,0.385-1.977,1.15-2.703
		s1.754-1.089,2.965-1.089c1.184,0,2.158,0.363,2.924,1.089c0.768,0.727,1.15,1.627,1.15,2.703c0,1.048-0.384,1.93-1.15,2.642
		c-0.766,0.713-1.74,1.069-2.924,1.069C105.746,44.289,104.757,43.933,103.992,43.22z"/>
	<path fill="#FDCE30" d="M123.434,43.22c-0.767-0.712-1.149-1.594-1.149-2.642c0-1.076,0.384-1.977,1.149-2.703
		c0.767-0.726,1.755-1.089,2.965-1.089c1.184,0,2.158,0.363,2.925,1.089c0.767,0.727,1.149,1.627,1.149,2.703
		c0,1.048-0.384,1.93-1.149,2.642c-0.767,0.713-1.741,1.069-2.925,1.069C125.189,44.289,124.201,43.933,123.434,43.22z"/>
	<path fill="#FDCE30" d="M142.877,43.22c-0.767-0.712-1.148-1.594-1.148-2.642c0-1.076,0.383-1.977,1.148-2.703
		c0.768-0.726,1.755-1.089,2.965-1.089c1.184,0,2.158,0.363,2.926,1.089c0.766,0.727,1.148,1.627,1.148,2.703
		c0,1.048-0.384,1.93-1.148,2.642c-0.768,0.713-1.742,1.069-2.926,1.069C144.632,44.289,143.644,43.933,142.877,43.22z"/>
	<path fill="#FDCE30" d="M162.32,43.22c-0.766-0.712-1.149-1.594-1.149-2.642c0-1.076,0.385-1.977,1.149-2.703
		c0.767-0.726,1.755-1.089,2.965-1.089c1.185,0,2.158,0.363,2.925,1.089c0.768,0.727,1.149,1.627,1.149,2.703
		c0,1.048-0.383,1.93-1.149,2.642c-0.767,0.713-1.74,1.069-2.925,1.069C164.075,44.289,163.086,43.933,162.32,43.22z"/>
	<path fill="#FDCE30" d="M181.763,43.22c-0.768-0.712-1.149-1.594-1.149-2.642c0-1.076,0.383-1.977,1.149-2.703
		s1.755-1.089,2.965-1.089c1.183,0,2.158,0.363,2.925,1.089c0.766,0.727,1.149,1.627,1.149,2.703c0,1.048-0.385,1.93-1.149,2.642
		c-0.767,0.713-1.742,1.069-2.925,1.069C183.518,44.289,182.53,43.933,181.763,43.22z"/>
	<path fill="#FDCE30" d="M201.207,43.22c-0.767-0.712-1.148-1.594-1.148-2.642c0-1.076,0.383-1.977,1.148-2.703
		c0.768-0.726,1.755-1.089,2.965-1.089c1.184,0,2.158,0.363,2.926,1.089c0.766,0.727,1.148,1.627,1.148,2.703
		c0,1.048-0.384,1.93-1.148,2.642c-0.768,0.713-1.742,1.069-2.926,1.069C202.961,44.289,201.973,43.933,201.207,43.22z"/>
	<path fill="#FDCE30" d="M6.777,72.22c-0.768-0.712-1.149-1.594-1.149-2.642c0-1.076,0.384-1.977,1.149-2.703
		c0.767-0.726,1.755-1.089,2.965-1.089c1.183,0,2.158,0.363,2.925,1.089c0.767,0.727,1.149,1.627,1.149,2.703
		c0,1.048-0.384,1.93-1.149,2.642c-0.767,0.713-1.742,1.069-2.925,1.069C8.532,73.289,7.543,72.933,6.777,72.22z"/>
	<path fill="#FDCE30" d="M26.219,72.22c-0.767-0.712-1.149-1.594-1.149-2.642c0-1.076,0.384-1.977,1.149-2.703
		c0.767-0.726,1.755-1.089,2.965-1.089c1.184,0,2.157,0.363,2.925,1.089c0.767,0.727,1.148,1.627,1.148,2.703
		c0,1.048-0.383,1.93-1.148,2.642c-0.768,0.713-1.741,1.069-2.925,1.069C27.974,73.289,26.986,72.933,26.219,72.22z"/>
	<path fill="#FDCE30" d="M45.663,72.22c-0.767-0.712-1.148-1.594-1.148-2.642c0-1.076,0.383-1.977,1.148-2.703
		c0.768-0.726,1.755-1.089,2.965-1.089c1.185,0,2.158,0.363,2.926,1.089c0.767,0.727,1.148,1.627,1.148,2.703
		c0,1.048-0.383,1.93-1.148,2.642c-0.768,0.713-1.741,1.069-2.926,1.069C47.417,73.289,46.429,72.933,45.663,72.22z"/>
	<path fill="#FDCE30" d="M65.106,72.22c-0.768-0.712-1.15-1.594-1.15-2.642c0-1.076,0.384-1.977,1.15-2.703
		c0.766-0.726,1.754-1.089,2.965-1.089c1.183,0,2.158,0.363,2.924,1.089c0.768,0.727,1.15,1.627,1.15,2.703
		c0,1.048-0.384,1.93-1.15,2.642c-0.766,0.713-1.741,1.069-2.924,1.069C66.86,73.289,65.872,72.933,65.106,72.22z"/>
	<path fill="#FDCE30" d="M84.548,72.22c-0.767-0.712-1.148-1.594-1.148-2.642c0-1.076,0.383-1.977,1.148-2.703
		c0.768-0.726,1.756-1.089,2.966-1.089c1.184,0,2.157,0.363,2.925,1.089c0.767,0.727,1.148,1.627,1.148,2.703
		c0,1.048-0.383,1.93-1.148,2.642c-0.768,0.713-1.741,1.069-2.925,1.069C86.303,73.289,85.315,72.933,84.548,72.22z"/>
	<path fill="#FDCE30" d="M103.992,72.22c-0.767-0.712-1.15-1.594-1.15-2.642c0-1.076,0.385-1.977,1.15-2.703
		s1.754-1.089,2.965-1.089c1.184,0,2.158,0.363,2.924,1.089c0.768,0.727,1.15,1.627,1.15,2.703c0,1.048-0.384,1.93-1.15,2.642
		c-0.766,0.713-1.74,1.069-2.924,1.069C105.746,73.289,104.757,72.933,103.992,72.22z"/>
	<path fill="#FDCE30" d="M123.434,72.22c-0.767-0.712-1.149-1.594-1.149-2.642c0-1.076,0.384-1.977,1.149-2.703
		c0.767-0.726,1.755-1.089,2.965-1.089c1.184,0,2.158,0.363,2.925,1.089c0.767,0.727,1.149,1.627,1.149,2.703
		c0,1.048-0.384,1.93-1.149,2.642c-0.767,0.713-1.741,1.069-2.925,1.069C125.189,73.289,124.201,72.933,123.434,72.22z"/>
	<path fill="#FDCE30" d="M142.877,72.22c-0.767-0.712-1.148-1.594-1.148-2.642c0-1.076,0.383-1.977,1.148-2.703
		c0.768-0.726,1.755-1.089,2.965-1.089c1.184,0,2.158,0.363,2.926,1.089c0.766,0.727,1.148,1.627,1.148,2.703
		c0,1.048-0.384,1.93-1.148,2.642c-0.768,0.713-1.742,1.069-2.926,1.069C144.632,73.289,143.644,72.933,142.877,72.22z"/>
	<path fill="#FDCE30" d="M162.32,72.22c-0.766-0.712-1.149-1.594-1.149-2.642c0-1.076,0.385-1.977,1.149-2.703
		c0.767-0.726,1.755-1.089,2.965-1.089c1.185,0,2.158,0.363,2.925,1.089c0.768,0.727,1.149,1.627,1.149,2.703
		c0,1.048-0.383,1.93-1.149,2.642c-0.767,0.713-1.74,1.069-2.925,1.069C164.075,73.289,163.086,72.933,162.32,72.22z"/>
	<path fill="#FDCE30" d="M181.763,72.22c-0.768-0.712-1.149-1.594-1.149-2.642c0-1.076,0.383-1.977,1.149-2.703
		s1.755-1.089,2.965-1.089c1.183,0,2.158,0.363,2.925,1.089c0.766,0.727,1.149,1.627,1.149,2.703c0,1.048-0.385,1.93-1.149,2.642
		c-0.767,0.713-1.742,1.069-2.925,1.069C183.518,73.289,182.53,72.933,181.763,72.22z"/>
	<path fill="#FDCE30" d="M201.207,72.22c-0.767-0.712-1.148-1.594-1.148-2.642c0-1.076,0.383-1.977,1.148-2.703
		c0.768-0.726,1.755-1.089,2.965-1.089c1.184,0,2.158,0.363,2.926,1.089c0.766,0.727,1.148,1.627,1.148,2.703
		c0,1.048-0.384,1.93-1.148,2.642c-0.768,0.713-1.742,1.069-2.926,1.069C202.961,73.289,201.973,72.933,201.207,72.22z"/>
	<path fill="#FDCE30" d="M6.777,101.219c-0.768-0.711-1.149-1.594-1.149-2.641c0-1.076,0.384-1.977,1.149-2.704
		c0.767-0.726,1.755-1.089,2.965-1.089c1.183,0,2.158,0.363,2.925,1.089c0.767,0.727,1.149,1.627,1.149,2.704
		c0,1.047-0.384,1.93-1.149,2.641c-0.767,0.714-1.742,1.07-2.925,1.07C8.532,102.29,7.543,101.933,6.777,101.219z"/>
	<path fill="#FDCE30" d="M26.219,101.219c-0.767-0.711-1.149-1.594-1.149-2.641c0-1.076,0.384-1.977,1.149-2.704
		c0.767-0.726,1.755-1.089,2.965-1.089c1.184,0,2.157,0.363,2.925,1.089c0.767,0.727,1.148,1.627,1.148,2.704
		c0,1.047-0.383,1.93-1.148,2.641c-0.768,0.714-1.741,1.07-2.925,1.07C27.974,102.29,26.986,101.933,26.219,101.219z"/>
	<path fill="#FDCE30" d="M45.663,101.219c-0.767-0.711-1.148-1.594-1.148-2.641c0-1.076,0.383-1.977,1.148-2.704
		c0.768-0.726,1.755-1.089,2.965-1.089c1.185,0,2.158,0.363,2.926,1.089c0.767,0.727,1.148,1.627,1.148,2.704
		c0,1.047-0.383,1.93-1.148,2.641c-0.768,0.714-1.741,1.07-2.926,1.07C47.417,102.29,46.429,101.933,45.663,101.219z"/>
	<path fill="#FDCE30" d="M65.106,101.219c-0.768-0.711-1.15-1.594-1.15-2.641c0-1.076,0.384-1.977,1.15-2.704
		c0.766-0.726,1.754-1.089,2.965-1.089c1.183,0,2.158,0.363,2.924,1.089c0.768,0.727,1.15,1.627,1.15,2.704
		c0,1.047-0.384,1.93-1.15,2.641c-0.766,0.714-1.741,1.07-2.924,1.07C66.86,102.29,65.872,101.933,65.106,101.219z"/>
	<path fill="#FDCE30" d="M84.548,101.219c-0.767-0.711-1.148-1.594-1.148-2.641c0-1.076,0.383-1.977,1.148-2.704
		c0.768-0.726,1.756-1.089,2.966-1.089c1.184,0,2.157,0.363,2.925,1.089c0.767,0.727,1.148,1.627,1.148,2.704
		c0,1.047-0.383,1.93-1.148,2.641c-0.768,0.714-1.741,1.07-2.925,1.07C86.303,102.29,85.315,101.933,84.548,101.219z"/>
	<path fill="#FDCE30" d="M103.992,101.219c-0.767-0.711-1.15-1.594-1.15-2.641c0-1.076,0.385-1.977,1.15-2.704
		c0.766-0.726,1.754-1.089,2.965-1.089c1.184,0,2.158,0.363,2.924,1.089c0.768,0.727,1.15,1.627,1.15,2.704
		c0,1.047-0.384,1.93-1.15,2.641c-0.766,0.714-1.74,1.07-2.924,1.07C105.746,102.29,104.757,101.933,103.992,101.219z"/>
	<path fill="#FDCE30" d="M123.434,101.219c-0.767-0.711-1.149-1.594-1.149-2.641c0-1.076,0.384-1.977,1.149-2.704
		c0.767-0.726,1.755-1.089,2.965-1.089c1.184,0,2.158,0.363,2.925,1.089c0.767,0.727,1.149,1.627,1.149,2.704
		c0,1.047-0.384,1.93-1.149,2.641c-0.767,0.714-1.741,1.07-2.925,1.07C125.189,102.29,124.201,101.933,123.434,101.219z"/>
	<path fill="#FDCE30" d="M142.877,101.219c-0.767-0.711-1.148-1.594-1.148-2.641c0-1.076,0.383-1.977,1.148-2.704
		c0.768-0.726,1.755-1.089,2.965-1.089c1.184,0,2.158,0.363,2.926,1.089c0.766,0.727,1.148,1.627,1.148,2.704
		c0,1.047-0.384,1.93-1.148,2.641c-0.768,0.714-1.742,1.07-2.926,1.07C144.632,102.29,143.644,101.933,142.877,101.219z"/>
	<path fill="#FDCE30" d="M162.32,101.219c-0.766-0.711-1.149-1.594-1.149-2.641c0-1.076,0.385-1.977,1.149-2.704
		c0.767-0.726,1.755-1.089,2.965-1.089c1.185,0,2.158,0.363,2.925,1.089c0.768,0.727,1.149,1.627,1.149,2.704
		c0,1.047-0.383,1.93-1.149,2.641c-0.767,0.714-1.74,1.07-2.925,1.07C164.075,102.29,163.086,101.933,162.32,101.219z"/>
	<path fill="#FDCE30" d="M181.763,101.219c-0.768-0.711-1.149-1.594-1.149-2.641c0-1.076,0.383-1.977,1.149-2.704
		c0.767-0.726,1.755-1.089,2.965-1.089c1.183,0,2.158,0.363,2.925,1.089c0.766,0.727,1.149,1.627,1.149,2.704
		c0,1.047-0.385,1.93-1.149,2.641c-0.767,0.714-1.742,1.07-2.925,1.07C183.518,102.29,182.53,101.933,181.763,101.219z"/>
	<path fill="#FDCE30" d="M201.207,101.219c-0.767-0.711-1.148-1.594-1.148-2.641c0-1.076,0.383-1.977,1.148-2.704
		c0.768-0.726,1.755-1.089,2.965-1.089c1.184,0,2.158,0.363,2.926,1.089c0.766,0.727,1.148,1.627,1.148,2.704
		c0,1.047-0.384,1.93-1.148,2.641c-0.768,0.714-1.742,1.07-2.926,1.07C202.961,102.29,201.973,101.933,201.207,101.219z"/>
	<path fill="#FDCE30" d="M6.777,130.219c-0.768-0.711-1.149-1.594-1.149-2.641c0-1.076,0.384-1.978,1.149-2.703
		c0.766-0.727,1.755-1.09,2.965-1.09c1.183,0,2.158,0.362,2.925,1.09c0.767,0.727,1.149,1.627,1.149,2.703
		c0,1.047-0.384,1.93-1.149,2.641c-0.767,0.713-1.742,1.07-2.925,1.07C8.532,131.29,7.543,130.932,6.777,130.219z"/>
	<path fill="#FDCE30" d="M26.219,130.219c-0.767-0.711-1.149-1.594-1.149-2.641c0-1.076,0.384-1.978,1.149-2.703
		c0.767-0.728,1.755-1.09,2.965-1.09c1.184,0,2.157,0.362,2.925,1.09c0.767,0.727,1.148,1.627,1.148,2.703
		c0,1.047-0.383,1.93-1.148,2.641c-0.768,0.713-1.741,1.07-2.925,1.07C27.974,131.29,26.986,130.932,26.219,130.219z"/>
	<path fill="#FDCE30" d="M45.663,130.219c-0.767-0.711-1.148-1.594-1.148-2.641c0-1.076,0.383-1.978,1.148-2.703
		c0.767-0.727,1.755-1.09,2.965-1.09c1.185,0,2.158,0.362,2.926,1.09c0.767,0.727,1.148,1.627,1.148,2.703
		c0,1.047-0.383,1.93-1.148,2.641c-0.768,0.713-1.741,1.07-2.926,1.07C47.417,131.29,46.429,130.932,45.663,130.219z"/>
	<path fill="#FDCE30" d="M65.106,130.219c-0.768-0.711-1.15-1.594-1.15-2.641c0-1.076,0.384-1.978,1.15-2.703
		c0.766-0.728,1.754-1.09,2.965-1.09c1.183,0,2.158,0.362,2.924,1.09c0.768,0.727,1.15,1.627,1.15,2.703
		c0,1.047-0.384,1.93-1.15,2.641c-0.766,0.713-1.741,1.07-2.924,1.07C66.86,131.29,65.872,130.932,65.106,130.219z"/>
	<path fill="#FDCE30" d="M84.548,130.219c-0.767-0.711-1.148-1.594-1.148-2.641c0-1.076,0.383-1.978,1.148-2.703
		c0.767-0.727,1.756-1.09,2.966-1.09c1.184,0,2.157,0.362,2.925,1.09c0.767,0.727,1.148,1.627,1.148,2.703
		c0,1.047-0.383,1.93-1.148,2.641c-0.768,0.713-1.741,1.07-2.925,1.07C86.303,131.29,85.315,130.932,84.548,130.219z"/>
	<path fill="#FDCE30" d="M103.992,130.219c-0.767-0.711-1.15-1.594-1.15-2.641c0-1.076,0.385-1.978,1.15-2.703
		c0.766-0.728,1.754-1.09,2.965-1.09c1.184,0,2.158,0.362,2.924,1.09c0.768,0.727,1.15,1.627,1.15,2.703
		c0,1.047-0.384,1.93-1.15,2.641c-0.766,0.713-1.74,1.07-2.924,1.07C105.746,131.29,104.757,130.932,103.992,130.219z"/>
	<path fill="#FDCE30" d="M123.434,130.219c-0.767-0.711-1.149-1.594-1.149-2.641c0-1.076,0.384-1.978,1.149-2.703
		c0.767-0.728,1.755-1.09,2.965-1.09c1.184,0,2.158,0.362,2.925,1.09c0.767,0.727,1.149,1.627,1.149,2.703
		c0,1.047-0.384,1.93-1.149,2.641c-0.767,0.713-1.741,1.07-2.925,1.07C125.189,131.29,124.201,130.932,123.434,130.219z"/>
	<path fill="#FDCE30" d="M142.877,130.219c-0.767-0.711-1.148-1.594-1.148-2.641c0-1.076,0.383-1.978,1.148-2.703
		c0.767-0.727,1.755-1.09,2.965-1.09c1.184,0,2.158,0.362,2.926,1.09c0.766,0.727,1.148,1.627,1.148,2.703
		c0,1.047-0.384,1.93-1.148,2.641c-0.768,0.713-1.742,1.07-2.926,1.07C144.632,131.29,143.644,130.932,142.877,130.219z"/>
	<path fill="#FDCE30" d="M162.32,130.219c-0.766-0.711-1.149-1.594-1.149-2.641c0-1.076,0.385-1.978,1.149-2.703
		c0.767-0.728,1.755-1.09,2.965-1.09c1.185,0,2.158,0.362,2.925,1.09c0.768,0.727,1.149,1.627,1.149,2.703
		c0,1.047-0.383,1.93-1.149,2.641c-0.767,0.713-1.74,1.07-2.925,1.07C164.075,131.29,163.086,130.932,162.32,130.219z"/>
	<path fill="#FDCE30" d="M181.763,130.219c-0.768-0.711-1.149-1.594-1.149-2.641c0-1.076,0.383-1.978,1.149-2.703
		c0.766-0.727,1.755-1.09,2.965-1.09c1.183,0,2.158,0.362,2.925,1.09c0.766,0.727,1.149,1.627,1.149,2.703
		c0,1.047-0.385,1.93-1.149,2.641c-0.767,0.713-1.742,1.07-2.925,1.07C183.518,131.29,182.53,130.932,181.763,130.219z"/>
	<path fill="#FDCE30" d="M201.207,130.219c-0.767-0.711-1.148-1.594-1.148-2.641c0-1.076,0.383-1.978,1.148-2.703
		c0.767-0.727,1.755-1.09,2.965-1.09c1.184,0,2.158,0.362,2.926,1.09c0.766,0.727,1.148,1.627,1.148,2.703
		c0,1.047-0.384,1.93-1.148,2.641c-0.768,0.713-1.742,1.07-2.926,1.07C202.961,131.29,201.973,130.932,201.207,130.219z"/>
	<path fill="#FDCE30" d="M6.777,159.219c-0.768-0.711-1.149-1.594-1.149-2.641c0-1.076,0.384-1.978,1.149-2.703
		c0.766-0.727,1.755-1.09,2.965-1.09c1.183,0,2.158,0.362,2.925,1.09c0.767,0.727,1.149,1.627,1.149,2.703
		c0,1.047-0.384,1.93-1.149,2.641c-0.767,0.713-1.742,1.07-2.925,1.07C8.532,160.29,7.543,159.932,6.777,159.219z"/>
	<path fill="#FDCE30" d="M26.219,159.219c-0.767-0.711-1.149-1.594-1.149-2.641c0-1.076,0.384-1.978,1.149-2.703
		c0.767-0.728,1.755-1.09,2.965-1.09c1.184,0,2.157,0.362,2.925,1.09c0.767,0.727,1.148,1.627,1.148,2.703
		c0,1.047-0.383,1.93-1.148,2.641c-0.768,0.713-1.741,1.07-2.925,1.07C27.974,160.29,26.986,159.932,26.219,159.219z"/>
	<path fill="#FDCE30" d="M45.663,159.219c-0.767-0.711-1.148-1.594-1.148-2.641c0-1.076,0.383-1.978,1.148-2.703
		c0.767-0.727,1.755-1.09,2.965-1.09c1.185,0,2.158,0.362,2.926,1.09c0.767,0.727,1.148,1.627,1.148,2.703
		c0,1.047-0.383,1.93-1.148,2.641c-0.768,0.713-1.741,1.07-2.926,1.07C47.417,160.29,46.429,159.932,45.663,159.219z"/>
	<path fill="#FDCE30" d="M65.106,159.219c-0.768-0.711-1.15-1.594-1.15-2.641c0-1.076,0.384-1.978,1.15-2.703
		c0.766-0.728,1.754-1.09,2.965-1.09c1.183,0,2.158,0.362,2.924,1.09c0.768,0.727,1.15,1.627,1.15,2.703
		c0,1.047-0.384,1.93-1.15,2.641c-0.766,0.713-1.741,1.07-2.924,1.07C66.86,160.29,65.872,159.932,65.106,159.219z"/>
	<path fill="#FDCE30" d="M84.548,159.219c-0.767-0.711-1.148-1.594-1.148-2.641c0-1.076,0.383-1.978,1.148-2.703
		c0.767-0.727,1.756-1.09,2.966-1.09c1.184,0,2.157,0.362,2.925,1.09c0.767,0.727,1.148,1.627,1.148,2.703
		c0,1.047-0.383,1.93-1.148,2.641c-0.768,0.713-1.741,1.07-2.925,1.07C86.303,160.29,85.315,159.932,84.548,159.219z"/>
	<path fill="#FDCE30" d="M103.992,159.219c-0.767-0.711-1.15-1.594-1.15-2.641c0-1.076,0.385-1.978,1.15-2.703
		c0.766-0.728,1.754-1.09,2.965-1.09c1.184,0,2.158,0.362,2.924,1.09c0.768,0.727,1.15,1.627,1.15,2.703
		c0,1.047-0.384,1.93-1.15,2.641c-0.766,0.713-1.74,1.07-2.924,1.07C105.746,160.29,104.757,159.932,103.992,159.219z"/>
	<path fill="#FDCE30" d="M123.434,159.219c-0.767-0.711-1.149-1.594-1.149-2.641c0-1.076,0.384-1.978,1.149-2.703
		c0.767-0.728,1.755-1.09,2.965-1.09c1.184,0,2.158,0.362,2.925,1.09c0.767,0.727,1.149,1.627,1.149,2.703
		c0,1.047-0.384,1.93-1.149,2.641c-0.767,0.713-1.741,1.07-2.925,1.07C125.189,160.29,124.201,159.932,123.434,159.219z"/>
	<path fill="#FDCE30" d="M142.877,159.219c-0.767-0.711-1.148-1.594-1.148-2.641c0-1.076,0.383-1.978,1.148-2.703
		c0.767-0.727,1.755-1.09,2.965-1.09c1.184,0,2.158,0.362,2.926,1.09c0.766,0.727,1.148,1.627,1.148,2.703
		c0,1.047-0.384,1.93-1.148,2.641c-0.768,0.713-1.742,1.07-2.926,1.07C144.632,160.29,143.644,159.932,142.877,159.219z"/>
	<path fill="#FDCE30" d="M162.32,159.219c-0.766-0.711-1.149-1.594-1.149-2.641c0-1.076,0.385-1.978,1.149-2.703
		c0.767-0.728,1.755-1.09,2.965-1.09c1.185,0,2.158,0.362,2.925,1.09c0.768,0.727,1.149,1.627,1.149,2.703
		c0,1.047-0.383,1.93-1.149,2.641c-0.767,0.713-1.74,1.07-2.925,1.07C164.075,160.29,163.086,159.932,162.32,159.219z"/>
	<path fill="#FDCE30" d="M181.763,159.219c-0.768-0.711-1.149-1.594-1.149-2.641c0-1.076,0.383-1.978,1.149-2.703
		c0.766-0.727,1.755-1.09,2.965-1.09c1.183,0,2.158,0.362,2.925,1.09c0.766,0.727,1.149,1.627,1.149,2.703
		c0,1.047-0.385,1.93-1.149,2.641c-0.767,0.713-1.742,1.07-2.925,1.07C183.518,160.29,182.53,159.932,181.763,159.219z"/>
	<path fill="#FDCE30" d="M201.207,159.219c-0.767-0.711-1.148-1.594-1.148-2.641c0-1.076,0.383-1.978,1.148-2.703
		c0.767-0.727,1.755-1.09,2.965-1.09c1.184,0,2.158,0.362,2.926,1.09c0.766,0.727,1.148,1.627,1.148,2.703
		c0,1.047-0.384,1.93-1.148,2.641c-0.768,0.713-1.742,1.07-2.926,1.07C202.961,160.29,201.973,159.932,201.207,159.219z"/>
	<path fill="#FDCE30" d="M6.777,188.219c-0.768-0.711-1.149-1.594-1.149-2.641c0-1.076,0.384-1.978,1.149-2.703
		c0.766-0.727,1.755-1.09,2.965-1.09c1.183,0,2.158,0.362,2.925,1.09c0.767,0.727,1.149,1.627,1.149,2.703
		c0,1.047-0.384,1.93-1.149,2.641c-0.767,0.713-1.742,1.07-2.925,1.07C8.532,189.29,7.543,188.932,6.777,188.219z"/>
	<path fill="#FDCE30" d="M26.219,188.219c-0.767-0.711-1.149-1.594-1.149-2.641c0-1.076,0.384-1.978,1.149-2.703
		c0.767-0.728,1.755-1.09,2.965-1.09c1.184,0,2.157,0.362,2.925,1.09c0.767,0.727,1.148,1.627,1.148,2.703
		c0,1.047-0.383,1.93-1.148,2.641c-0.768,0.713-1.741,1.07-2.925,1.07C27.974,189.29,26.986,188.932,26.219,188.219z"/>
	<path fill="#FDCE30" d="M45.663,188.219c-0.767-0.711-1.148-1.594-1.148-2.641c0-1.076,0.383-1.978,1.148-2.703
		c0.767-0.727,1.755-1.09,2.965-1.09c1.185,0,2.158,0.362,2.926,1.09c0.767,0.727,1.148,1.627,1.148,2.703
		c0,1.047-0.383,1.93-1.148,2.641c-0.768,0.713-1.741,1.07-2.926,1.07C47.417,189.29,46.429,188.932,45.663,188.219z"/>
	<path fill="#FDCE30" d="M65.106,188.219c-0.768-0.711-1.15-1.594-1.15-2.641c0-1.076,0.384-1.978,1.15-2.703
		c0.766-0.728,1.754-1.09,2.965-1.09c1.183,0,2.158,0.362,2.924,1.09c0.768,0.727,1.15,1.627,1.15,2.703
		c0,1.047-0.384,1.93-1.15,2.641c-0.766,0.713-1.741,1.07-2.924,1.07C66.86,189.29,65.872,188.932,65.106,188.219z"/>
	<path fill="#FDCE30" d="M84.548,188.219c-0.767-0.711-1.148-1.594-1.148-2.641c0-1.076,0.383-1.978,1.148-2.703
		c0.767-0.727,1.756-1.09,2.966-1.09c1.184,0,2.157,0.362,2.925,1.09c0.767,0.727,1.148,1.627,1.148,2.703
		c0,1.047-0.383,1.93-1.148,2.641c-0.768,0.713-1.741,1.07-2.925,1.07C86.303,189.29,85.315,188.932,84.548,188.219z"/>
	<path fill="#FDCE30" d="M103.992,188.219c-0.767-0.711-1.15-1.594-1.15-2.641c0-1.076,0.385-1.978,1.15-2.703
		c0.766-0.728,1.754-1.09,2.965-1.09c1.184,0,2.158,0.362,2.924,1.09c0.768,0.727,1.15,1.627,1.15,2.703
		c0,1.047-0.384,1.93-1.15,2.641c-0.766,0.713-1.74,1.07-2.924,1.07C105.746,189.29,104.757,188.932,103.992,188.219z"/>
	<path fill="#FDCE30" d="M123.434,188.219c-0.767-0.711-1.149-1.594-1.149-2.641c0-1.076,0.384-1.978,1.149-2.703
		c0.767-0.728,1.755-1.09,2.965-1.09c1.184,0,2.158,0.362,2.925,1.09c0.767,0.727,1.149,1.627,1.149,2.703
		c0,1.047-0.384,1.93-1.149,2.641c-0.767,0.713-1.741,1.07-2.925,1.07C125.189,189.29,124.201,188.932,123.434,188.219z"/>
	<path fill="#FDCE30" d="M142.877,188.219c-0.767-0.711-1.148-1.594-1.148-2.641c0-1.076,0.383-1.978,1.148-2.703
		c0.767-0.727,1.755-1.09,2.965-1.09c1.184,0,2.158,0.362,2.926,1.09c0.766,0.727,1.148,1.627,1.148,2.703
		c0,1.047-0.384,1.93-1.148,2.641c-0.768,0.713-1.742,1.07-2.926,1.07C144.632,189.29,143.644,188.932,142.877,188.219z"/>
	<path fill="#FDCE30" d="M162.32,188.219c-0.766-0.711-1.149-1.594-1.149-2.641c0-1.076,0.385-1.978,1.149-2.703
		c0.767-0.728,1.755-1.09,2.965-1.09c1.185,0,2.158,0.362,2.925,1.09c0.768,0.727,1.149,1.627,1.149,2.703
		c0,1.047-0.383,1.93-1.149,2.641c-0.767,0.713-1.74,1.07-2.925,1.07C164.075,189.29,163.086,188.932,162.32,188.219z"/>
	<path fill="#FDCE30" d="M181.763,188.219c-0.768-0.711-1.149-1.594-1.149-2.641c0-1.076,0.383-1.978,1.149-2.703
		c0.766-0.727,1.755-1.09,2.965-1.09c1.183,0,2.158,0.362,2.925,1.09c0.766,0.727,1.149,1.627,1.149,2.703
		c0,1.047-0.385,1.93-1.149,2.641c-0.767,0.713-1.742,1.07-2.925,1.07C183.518,189.29,182.53,188.932,181.763,188.219z"/>
	<path fill="#FDCE30" d="M201.207,188.219c-0.767-0.711-1.148-1.594-1.148-2.641c0-1.076,0.383-1.978,1.148-2.703
		c0.767-0.727,1.755-1.09,2.965-1.09c1.184,0,2.158,0.362,2.926,1.09c0.766,0.727,1.148,1.627,1.148,2.703
		c0,1.047-0.384,1.93-1.148,2.641c-0.768,0.713-1.742,1.07-2.926,1.07C202.961,189.29,201.973,188.932,201.207,188.219z"/>
</g>
</svg>
