<?xml version="1.0" encoding="utf-8"?>
<!-- Generator: Adobe Illustrator 16.0.0, SVG Export Plug-In . SVG Version: 6.00 Build 0)  -->
<!DOCTYPE svg PUBLIC "-//W3C//DTD SVG 1.1//EN" "http://www.w3.org/Graphics/SVG/1.1/DTD/svg11.dtd">
<svg version="1.1" id="Layer_1" xmlns="http://www.w3.org/2000/svg" xmlns:xlink="http://www.w3.org/1999/xlink" x="0px" y="0px"
	 width="105.4px" height="278.133px" viewBox="0 0 105.4 278.133" enable-background="new 0 0 105.4 278.133" xml:space="preserve">
<g>
	<g>
		<path fill="#FDCE30" d="M1.149,14.219C0.381,13.508,0,12.626,0,11.578C0,10.502,0.384,9.6,1.148,8.875
			c0.768-0.727,1.755-1.089,2.965-1.089c1.184,0,2.158,0.362,2.926,1.089c0.768,0.728,1.148,1.627,1.148,2.703
			c0,1.048-0.384,1.93-1.148,2.642c-0.768,0.714-1.742,1.069-2.926,1.069C2.904,15.289,1.915,14.933,1.149,14.219z"/>
		<path fill="#FDCE30" d="M20.591,14.219c-0.767-0.712-1.148-1.594-1.148-2.642c0-1.076,0.385-1.978,1.148-2.703
			c0.768-0.727,1.756-1.089,2.966-1.089c1.185,0,2.156,0.362,2.925,1.089c0.768,0.728,1.147,1.627,1.147,2.703
			c0,1.048-0.383,1.93-1.147,2.642c-0.769,0.714-1.74,1.069-2.925,1.069C22.346,15.289,21.358,14.933,20.591,14.219z"/>
		<path fill="#FDCE30" d="M40.035,14.219c-0.768-0.712-1.147-1.594-1.147-2.642c0-1.076,0.383-1.978,1.147-2.703
			C40.803,8.149,41.79,7.786,43,7.786c1.186,0,2.158,0.362,2.926,1.089c0.768,0.728,1.148,1.627,1.148,2.703
			c0,1.048-0.384,1.93-1.148,2.642c-0.768,0.714-1.74,1.069-2.926,1.069C41.789,15.289,40.801,14.933,40.035,14.219z"/>
		<path fill="#FDCE30" d="M59.478,14.219c-0.769-0.712-1.149-1.594-1.149-2.642c0-1.076,0.384-1.978,1.149-2.703
			c0.767-0.727,1.754-1.089,2.965-1.089c1.184,0,2.158,0.362,2.925,1.089c0.769,0.728,1.149,1.627,1.149,2.703
			c0,1.048-0.385,1.93-1.149,2.642c-0.767,0.714-1.741,1.069-2.925,1.069C61.232,15.289,60.244,14.933,59.478,14.219z"/>
		<path fill="#FDCE30" d="M78.919,14.219c-0.769-0.712-1.147-1.594-1.147-2.642c0-1.076,0.383-1.978,1.147-2.703
			c0.769-0.727,1.756-1.089,2.968-1.089c1.184,0,2.155,0.362,2.924,1.089c0.77,0.728,1.147,1.627,1.147,2.703
			c0,1.048-0.383,1.93-1.147,2.642c-0.769,0.714-1.74,1.069-2.924,1.069C80.675,15.289,79.687,14.933,78.919,14.219z"/>
		<path fill="#FDCE30" d="M98.362,14.219c-0.766-0.712-1.148-1.594-1.148-2.642c0-1.076,0.389-1.978,1.148-2.703
			c0.768-0.727,1.756-1.089,2.967-1.089c1.188,0,2.156,0.362,2.924,1.089c0.771,0.728,1.148,1.627,1.148,2.703
			c0,1.048-0.383,1.93-1.148,2.642c-0.768,0.714-1.736,1.069-2.924,1.069C100.117,15.289,99.128,14.933,98.362,14.219z"/>
		<path fill="#FDCE30" d="M1.149,43.219C0.381,42.508,0,41.626,0,40.578c0-1.076,0.384-1.978,1.148-2.703
			c0.768-0.727,1.755-1.089,2.965-1.089c1.184,0,2.158,0.362,2.926,1.089c0.768,0.728,1.148,1.627,1.148,2.703
			c0,1.048-0.384,1.93-1.148,2.642c-0.768,0.714-1.742,1.069-2.926,1.069C2.904,44.289,1.915,43.933,1.149,43.219z"/>
		<path fill="#FDCE30" d="M20.591,43.219c-0.767-0.712-1.148-1.594-1.148-2.642c0-1.076,0.385-1.978,1.148-2.703
			c0.768-0.727,1.756-1.089,2.966-1.089c1.185,0,2.156,0.362,2.925,1.089c0.768,0.728,1.147,1.627,1.147,2.703
			c0,1.048-0.383,1.93-1.147,2.642c-0.769,0.714-1.74,1.069-2.925,1.069C22.346,44.289,21.358,43.933,20.591,43.219z"/>
		<path fill="#FDCE30" d="M40.035,43.219c-0.768-0.712-1.147-1.594-1.147-2.642c0-1.076,0.383-1.978,1.147-2.703
			c0.769-0.727,1.755-1.089,2.965-1.089c1.186,0,2.158,0.362,2.926,1.089c0.768,0.728,1.148,1.627,1.148,2.703
			c0,1.048-0.384,1.93-1.148,2.642c-0.768,0.714-1.74,1.069-2.926,1.069C41.789,44.289,40.801,43.933,40.035,43.219z"/>
		<path fill="#FDCE30" d="M59.478,43.219c-0.769-0.712-1.149-1.594-1.149-2.642c0-1.076,0.384-1.978,1.149-2.703
			c0.767-0.727,1.754-1.089,2.965-1.089c1.184,0,2.158,0.362,2.925,1.089c0.769,0.728,1.149,1.627,1.149,2.703
			c0,1.048-0.385,1.93-1.149,2.642c-0.767,0.714-1.741,1.069-2.925,1.069C61.232,44.289,60.244,43.933,59.478,43.219z"/>
		<path fill="#FDCE30" d="M78.919,43.219c-0.769-0.712-1.147-1.594-1.147-2.642c0-1.076,0.383-1.978,1.147-2.703
			c0.769-0.727,1.756-1.089,2.968-1.089c1.184,0,2.155,0.362,2.924,1.089c0.77,0.728,1.147,1.627,1.147,2.703
			c0,1.048-0.383,1.93-1.147,2.642c-0.769,0.714-1.74,1.069-2.924,1.069C80.675,44.289,79.687,43.933,78.919,43.219z"/>
		<path fill="#FDCE30" d="M98.362,43.219c-0.766-0.712-1.148-1.594-1.148-2.642c0-1.076,0.389-1.978,1.148-2.703
			c0.768-0.727,1.756-1.089,2.967-1.089c1.188,0,2.156,0.362,2.924,1.089c0.771,0.728,1.148,1.627,1.148,2.703
			c0,1.048-0.383,1.93-1.148,2.642c-0.768,0.714-1.736,1.069-2.924,1.069C100.117,44.289,99.128,43.933,98.362,43.219z"/>
		<path fill="#FDCE30" d="M1.149,72.219C0.381,71.507,0,70.626,0,69.577c0-1.076,0.384-1.979,1.148-2.703
			c0.768-0.727,1.755-1.088,2.965-1.088c1.184,0,2.158,0.361,2.926,1.088c0.768,0.729,1.148,1.627,1.148,2.703
			c0,1.049-0.384,1.93-1.148,2.643c-0.768,0.715-1.742,1.068-2.926,1.068C2.904,73.289,1.915,72.934,1.149,72.219z"/>
		<path fill="#FDCE30" d="M20.591,72.219c-0.767-0.713-1.148-1.594-1.148-2.643c0-1.076,0.385-1.979,1.148-2.703
			c0.768-0.727,1.756-1.088,2.966-1.088c1.185,0,2.156,0.361,2.925,1.088c0.768,0.729,1.147,1.627,1.147,2.703
			c0,1.049-0.383,1.93-1.147,2.643c-0.769,0.715-1.74,1.068-2.925,1.068C22.346,73.289,21.358,72.934,20.591,72.219z"/>
		<path fill="#FDCE30" d="M40.035,72.219c-0.768-0.713-1.147-1.594-1.147-2.643c0-1.076,0.383-1.979,1.147-2.703
			c0.769-0.727,1.755-1.088,2.965-1.088c1.186,0,2.158,0.361,2.926,1.088c0.768,0.729,1.148,1.627,1.148,2.703
			c0,1.049-0.384,1.93-1.148,2.643c-0.768,0.715-1.74,1.068-2.926,1.068C41.789,73.289,40.801,72.934,40.035,72.219z"/>
		<path fill="#FDCE30" d="M59.478,72.219c-0.769-0.713-1.149-1.594-1.149-2.643c0-1.076,0.384-1.979,1.149-2.703
			c0.767-0.726,1.754-1.088,2.965-1.088c1.184,0,2.158,0.361,2.925,1.088c0.769,0.729,1.149,1.627,1.149,2.703
			c0,1.049-0.385,1.93-1.149,2.643c-0.767,0.715-1.741,1.068-2.925,1.068C61.232,73.289,60.244,72.934,59.478,72.219z"/>
		<path fill="#FDCE30" d="M78.919,72.219c-0.769-0.713-1.147-1.594-1.147-2.643c0-1.076,0.383-1.979,1.147-2.703
			c0.769-0.727,1.756-1.088,2.968-1.088c1.184,0,2.155,0.361,2.924,1.088c0.77,0.729,1.147,1.627,1.147,2.703
			c0,1.049-0.383,1.93-1.147,2.643c-0.769,0.715-1.74,1.068-2.924,1.068C80.675,73.289,79.687,72.934,78.919,72.219z"/>
		<path fill="#FDCE30" d="M98.362,72.219c-0.766-0.713-1.148-1.594-1.148-2.643c0-1.076,0.389-1.979,1.148-2.703
			c0.768-0.727,1.756-1.088,2.967-1.088c1.188,0,2.156,0.361,2.924,1.088c0.771,0.729,1.148,1.627,1.148,2.703
			c0,1.049-0.383,1.93-1.148,2.643c-0.768,0.715-1.736,1.068-2.924,1.068C100.117,73.289,99.128,72.934,98.362,72.219z"/>
	</g>
</g>
<g>
	<g>
		<path fill="#FDCE30" d="M1.149,101.219C0.381,100.508,0,99.626,0,98.578c0-1.076,0.384-1.978,1.148-2.703
			c0.768-0.727,1.755-1.089,2.965-1.089c1.184,0,2.158,0.362,2.926,1.089c0.768,0.728,1.148,1.627,1.148,2.703
			c0,1.048-0.384,1.93-1.148,2.642c-0.768,0.714-1.742,1.069-2.926,1.069C2.904,102.289,1.915,101.933,1.149,101.219z"/>
		<path fill="#FDCE30" d="M20.591,101.219c-0.767-0.712-1.148-1.594-1.148-2.642c0-1.076,0.385-1.978,1.148-2.703
			c0.768-0.727,1.756-1.089,2.966-1.089c1.185,0,2.156,0.362,2.925,1.089c0.768,0.728,1.147,1.627,1.147,2.703
			c0,1.048-0.383,1.93-1.147,2.642c-0.769,0.714-1.74,1.069-2.925,1.069C22.346,102.289,21.358,101.933,20.591,101.219z"/>
		<path fill="#FDCE30" d="M40.035,101.219c-0.768-0.712-1.147-1.594-1.147-2.642c0-1.076,0.383-1.978,1.147-2.703
			c0.769-0.727,1.755-1.089,2.965-1.089c1.186,0,2.158,0.362,2.926,1.089c0.768,0.728,1.148,1.627,1.148,2.703
			c0,1.048-0.384,1.93-1.148,2.642c-0.768,0.714-1.74,1.069-2.926,1.069C41.789,102.289,40.801,101.933,40.035,101.219z"/>
		<path fill="#FDCE30" d="M59.478,101.219c-0.769-0.712-1.149-1.594-1.149-2.642c0-1.076,0.384-1.978,1.149-2.703
			c0.767-0.727,1.754-1.089,2.965-1.089c1.184,0,2.158,0.362,2.925,1.089c0.769,0.728,1.149,1.627,1.149,2.703
			c0,1.048-0.385,1.93-1.149,2.642c-0.767,0.714-1.741,1.069-2.925,1.069C61.232,102.289,60.244,101.933,59.478,101.219z"/>
		<path fill="#FDCE30" d="M78.919,101.219c-0.769-0.712-1.147-1.594-1.147-2.642c0-1.076,0.383-1.978,1.147-2.703
			c0.769-0.727,1.756-1.089,2.968-1.089c1.184,0,2.155,0.362,2.924,1.089c0.77,0.728,1.147,1.627,1.147,2.703
			c0,1.048-0.383,1.93-1.147,2.642c-0.769,0.714-1.74,1.069-2.924,1.069C80.675,102.289,79.687,101.933,78.919,101.219z"/>
		<path fill="#FDCE30" d="M98.362,101.219c-0.766-0.712-1.148-1.594-1.148-2.642c0-1.076,0.389-1.978,1.148-2.703
			c0.768-0.727,1.756-1.089,2.967-1.089c1.188,0,2.156,0.362,2.924,1.089c0.771,0.728,1.148,1.627,1.148,2.703
			c0,1.048-0.383,1.93-1.148,2.642c-0.768,0.714-1.736,1.069-2.924,1.069C100.117,102.289,99.128,101.933,98.362,101.219z"/>
		<path fill="#FDCE30" d="M1.149,130.219C0.381,129.508,0,128.626,0,127.578c0-1.076,0.384-1.978,1.148-2.703
			c0.768-0.727,1.755-1.089,2.965-1.089c1.184,0,2.158,0.362,2.926,1.089c0.768,0.728,1.148,1.627,1.148,2.703
			c0,1.048-0.384,1.93-1.148,2.642c-0.768,0.714-1.742,1.069-2.926,1.069C2.904,131.289,1.915,130.933,1.149,130.219z"/>
		<path fill="#FDCE30" d="M20.591,130.219c-0.767-0.712-1.148-1.594-1.148-2.642c0-1.076,0.385-1.978,1.148-2.703
			c0.768-0.727,1.756-1.089,2.966-1.089c1.185,0,2.156,0.362,2.925,1.089c0.768,0.728,1.147,1.627,1.147,2.703
			c0,1.048-0.383,1.93-1.147,2.642c-0.769,0.714-1.74,1.069-2.925,1.069C22.346,131.289,21.358,130.933,20.591,130.219z"/>
		<path fill="#FDCE30" d="M40.035,130.219c-0.768-0.712-1.147-1.594-1.147-2.642c0-1.076,0.383-1.978,1.147-2.703
			c0.769-0.727,1.755-1.089,2.965-1.089c1.186,0,2.158,0.362,2.926,1.089c0.768,0.728,1.148,1.627,1.148,2.703
			c0,1.048-0.384,1.93-1.148,2.642c-0.768,0.714-1.74,1.069-2.926,1.069C41.789,131.289,40.801,130.933,40.035,130.219z"/>
		<path fill="#FDCE30" d="M59.478,130.219c-0.769-0.712-1.149-1.594-1.149-2.642c0-1.076,0.384-1.978,1.149-2.703
			c0.767-0.727,1.754-1.089,2.965-1.089c1.184,0,2.158,0.362,2.925,1.089c0.769,0.728,1.149,1.627,1.149,2.703
			c0,1.048-0.385,1.93-1.149,2.642c-0.767,0.714-1.741,1.069-2.925,1.069C61.232,131.289,60.244,130.933,59.478,130.219z"/>
		<path fill="#FDCE30" d="M78.919,130.219c-0.769-0.712-1.147-1.594-1.147-2.642c0-1.076,0.383-1.978,1.147-2.703
			c0.769-0.727,1.756-1.089,2.968-1.089c1.184,0,2.155,0.362,2.924,1.089c0.77,0.728,1.147,1.627,1.147,2.703
			c0,1.048-0.383,1.93-1.147,2.642c-0.769,0.714-1.74,1.069-2.924,1.069C80.675,131.289,79.687,130.933,78.919,130.219z"/>
		<path fill="#FDCE30" d="M98.362,130.219c-0.766-0.712-1.148-1.594-1.148-2.642c0-1.076,0.389-1.978,1.148-2.703
			c0.768-0.727,1.756-1.089,2.967-1.089c1.188,0,2.156,0.362,2.924,1.089c0.771,0.728,1.148,1.627,1.148,2.703
			c0,1.048-0.383,1.93-1.148,2.642c-0.768,0.714-1.736,1.069-2.924,1.069C100.117,131.289,99.128,130.933,98.362,130.219z"/>
		<path fill="#FDCE30" d="M1.149,159.219C0.381,158.507,0,157.626,0,156.577c0-1.076,0.384-1.979,1.148-2.703
			c0.768-0.727,1.755-1.088,2.965-1.088c1.184,0,2.158,0.361,2.926,1.088c0.768,0.729,1.148,1.627,1.148,2.703
			c0,1.049-0.384,1.93-1.148,2.643c-0.768,0.715-1.742,1.068-2.926,1.068C2.904,160.289,1.915,159.934,1.149,159.219z"/>
		<path fill="#FDCE30" d="M20.591,159.219c-0.767-0.713-1.148-1.594-1.148-2.643c0-1.076,0.385-1.979,1.148-2.703
			c0.768-0.727,1.756-1.088,2.966-1.088c1.185,0,2.156,0.361,2.925,1.088c0.768,0.729,1.147,1.627,1.147,2.703
			c0,1.049-0.383,1.93-1.147,2.643c-0.769,0.715-1.74,1.068-2.925,1.068C22.346,160.289,21.358,159.934,20.591,159.219z"/>
		<path fill="#FDCE30" d="M40.035,159.219c-0.768-0.713-1.147-1.594-1.147-2.643c0-1.076,0.383-1.979,1.147-2.703
			c0.769-0.727,1.755-1.088,2.965-1.088c1.186,0,2.158,0.361,2.926,1.088c0.768,0.729,1.148,1.627,1.148,2.703
			c0,1.049-0.384,1.93-1.148,2.643c-0.768,0.715-1.74,1.068-2.926,1.068C41.789,160.289,40.801,159.934,40.035,159.219z"/>
		<path fill="#FDCE30" d="M59.478,159.219c-0.769-0.713-1.149-1.594-1.149-2.643c0-1.076,0.384-1.979,1.149-2.703
			c0.767-0.726,1.754-1.088,2.965-1.088c1.184,0,2.158,0.361,2.925,1.088c0.769,0.729,1.149,1.627,1.149,2.703
			c0,1.049-0.385,1.93-1.149,2.643c-0.767,0.715-1.741,1.068-2.925,1.068C61.232,160.289,60.244,159.934,59.478,159.219z"/>
		<path fill="#FDCE30" d="M78.919,159.219c-0.769-0.713-1.147-1.594-1.147-2.643c0-1.076,0.383-1.979,1.147-2.703
			c0.769-0.727,1.756-1.088,2.968-1.088c1.184,0,2.155,0.361,2.924,1.088c0.77,0.729,1.147,1.627,1.147,2.703
			c0,1.049-0.383,1.93-1.147,2.643c-0.769,0.715-1.74,1.068-2.924,1.068C80.675,160.289,79.687,159.934,78.919,159.219z"/>
		<path fill="#FDCE30" d="M98.362,159.219c-0.766-0.713-1.148-1.594-1.148-2.643c0-1.076,0.389-1.979,1.148-2.703
			c0.768-0.727,1.756-1.088,2.967-1.088c1.188,0,2.156,0.361,2.924,1.088c0.771,0.729,1.148,1.627,1.148,2.703
			c0,1.049-0.383,1.93-1.148,2.643c-0.768,0.715-1.736,1.068-2.924,1.068C100.117,160.289,99.128,159.934,98.362,159.219z"/>
	</g>
</g>
<g>
	<g>
		<path fill="#FDCE30" d="M1.149,188.219C0.381,187.508,0,186.626,0,185.578c0-1.076,0.384-1.978,1.148-2.703
			c0.768-0.727,1.755-1.089,2.965-1.089c1.184,0,2.158,0.362,2.926,1.089c0.768,0.728,1.148,1.627,1.148,2.703
			c0,1.048-0.384,1.93-1.148,2.642c-0.768,0.714-1.742,1.069-2.926,1.069C2.904,189.289,1.915,188.933,1.149,188.219z"/>
		<path fill="#FDCE30" d="M20.591,188.219c-0.767-0.712-1.148-1.594-1.148-2.642c0-1.076,0.385-1.978,1.148-2.703
			c0.768-0.727,1.756-1.089,2.966-1.089c1.185,0,2.156,0.362,2.925,1.089c0.768,0.728,1.147,1.627,1.147,2.703
			c0,1.048-0.383,1.93-1.147,2.642c-0.769,0.714-1.74,1.069-2.925,1.069C22.346,189.289,21.358,188.933,20.591,188.219z"/>
		<path fill="#FDCE30" d="M40.035,188.219c-0.768-0.712-1.147-1.594-1.147-2.642c0-1.076,0.383-1.978,1.147-2.703
			c0.769-0.727,1.755-1.089,2.965-1.089c1.186,0,2.158,0.362,2.926,1.089c0.768,0.728,1.148,1.627,1.148,2.703
			c0,1.048-0.384,1.93-1.148,2.642c-0.768,0.714-1.74,1.069-2.926,1.069C41.789,189.289,40.801,188.933,40.035,188.219z"/>
		<path fill="#FDCE30" d="M59.478,188.219c-0.769-0.712-1.149-1.594-1.149-2.642c0-1.076,0.384-1.978,1.149-2.703
			c0.767-0.727,1.754-1.089,2.965-1.089c1.184,0,2.158,0.362,2.925,1.089c0.769,0.728,1.149,1.627,1.149,2.703
			c0,1.048-0.385,1.93-1.149,2.642c-0.767,0.714-1.741,1.069-2.925,1.069C61.232,189.289,60.244,188.933,59.478,188.219z"/>
		<path fill="#FDCE30" d="M78.919,188.219c-0.769-0.712-1.147-1.594-1.147-2.642c0-1.076,0.383-1.978,1.147-2.703
			c0.769-0.727,1.756-1.089,2.968-1.089c1.184,0,2.155,0.362,2.924,1.089c0.77,0.728,1.147,1.627,1.147,2.703
			c0,1.048-0.383,1.93-1.147,2.642c-0.769,0.714-1.74,1.069-2.924,1.069C80.675,189.289,79.687,188.933,78.919,188.219z"/>
		<path fill="#FDCE30" d="M98.362,188.219c-0.766-0.712-1.148-1.594-1.148-2.642c0-1.076,0.389-1.978,1.148-2.703
			c0.768-0.727,1.756-1.089,2.967-1.089c1.188,0,2.156,0.362,2.924,1.089c0.771,0.728,1.148,1.627,1.148,2.703
			c0,1.048-0.383,1.93-1.148,2.642c-0.768,0.714-1.736,1.069-2.924,1.069C100.117,189.289,99.128,188.933,98.362,188.219z"/>
		<path fill="#FDCE30" d="M1.149,217.219C0.381,216.508,0,215.626,0,214.578c0-1.076,0.384-1.978,1.148-2.703
			c0.768-0.727,1.755-1.089,2.965-1.089c1.184,0,2.158,0.362,2.926,1.089c0.768,0.728,1.148,1.627,1.148,2.703
			c0,1.048-0.384,1.93-1.148,2.642c-0.768,0.714-1.742,1.069-2.926,1.069C2.904,218.289,1.915,217.933,1.149,217.219z"/>
		<path fill="#FDCE30" d="M20.591,217.219c-0.767-0.712-1.148-1.594-1.148-2.642c0-1.076,0.385-1.978,1.148-2.703
			c0.768-0.727,1.756-1.089,2.966-1.089c1.185,0,2.156,0.362,2.925,1.089c0.768,0.728,1.147,1.627,1.147,2.703
			c0,1.048-0.383,1.93-1.147,2.642c-0.769,0.714-1.74,1.069-2.925,1.069C22.346,218.289,21.358,217.933,20.591,217.219z"/>
		<path fill="#FDCE30" d="M40.035,217.219c-0.768-0.712-1.147-1.594-1.147-2.642c0-1.076,0.383-1.978,1.147-2.703
			c0.769-0.727,1.755-1.089,2.965-1.089c1.186,0,2.158,0.362,2.926,1.089c0.768,0.728,1.148,1.627,1.148,2.703
			c0,1.048-0.384,1.93-1.148,2.642c-0.768,0.714-1.74,1.069-2.926,1.069C41.789,218.289,40.801,217.933,40.035,217.219z"/>
		<path fill="#FDCE30" d="M59.478,217.219c-0.769-0.712-1.149-1.594-1.149-2.642c0-1.076,0.384-1.978,1.149-2.703
			c0.767-0.727,1.754-1.089,2.965-1.089c1.184,0,2.158,0.362,2.925,1.089c0.769,0.728,1.149,1.627,1.149,2.703
			c0,1.048-0.385,1.93-1.149,2.642c-0.767,0.714-1.741,1.069-2.925,1.069C61.232,218.289,60.244,217.933,59.478,217.219z"/>
		<path fill="#FDCE30" d="M78.919,217.219c-0.769-0.712-1.147-1.594-1.147-2.642c0-1.076,0.383-1.978,1.147-2.703
			c0.769-0.727,1.756-1.089,2.968-1.089c1.184,0,2.155,0.362,2.924,1.089c0.77,0.728,1.147,1.627,1.147,2.703
			c0,1.048-0.383,1.93-1.147,2.642c-0.769,0.714-1.74,1.069-2.924,1.069C80.675,218.289,79.687,217.933,78.919,217.219z"/>
		<path fill="#FDCE30" d="M98.362,217.219c-0.766-0.712-1.148-1.594-1.148-2.642c0-1.076,0.389-1.978,1.148-2.703
			c0.768-0.727,1.756-1.089,2.967-1.089c1.188,0,2.156,0.362,2.924,1.089c0.771,0.728,1.148,1.627,1.148,2.703
			c0,1.048-0.383,1.93-1.148,2.642c-0.768,0.714-1.736,1.069-2.924,1.069C100.117,218.289,99.128,217.933,98.362,217.219z"/>
		<path fill="#FDCE30" d="M1.149,246.219C0.381,245.507,0,244.626,0,243.577c0-1.076,0.384-1.979,1.148-2.703
			c0.768-0.727,1.755-1.088,2.965-1.088c1.184,0,2.158,0.361,2.926,1.088c0.768,0.729,1.148,1.627,1.148,2.703
			c0,1.049-0.384,1.93-1.148,2.643c-0.768,0.715-1.742,1.068-2.926,1.068C2.904,247.289,1.915,246.934,1.149,246.219z"/>
		<path fill="#FDCE30" d="M20.591,246.219c-0.767-0.713-1.148-1.594-1.148-2.643c0-1.076,0.385-1.979,1.148-2.703
			c0.768-0.727,1.756-1.088,2.966-1.088c1.185,0,2.156,0.361,2.925,1.088c0.768,0.729,1.147,1.627,1.147,2.703
			c0,1.049-0.383,1.93-1.147,2.643c-0.769,0.715-1.74,1.068-2.925,1.068C22.346,247.289,21.358,246.934,20.591,246.219z"/>
		<path fill="#FDCE30" d="M40.035,246.219c-0.768-0.713-1.147-1.594-1.147-2.643c0-1.076,0.383-1.979,1.147-2.703
			c0.769-0.727,1.755-1.088,2.965-1.088c1.186,0,2.158,0.361,2.926,1.088c0.768,0.729,1.148,1.627,1.148,2.703
			c0,1.049-0.384,1.93-1.148,2.643c-0.768,0.715-1.74,1.068-2.926,1.068C41.789,247.289,40.801,246.934,40.035,246.219z"/>
		<path fill="#FDCE30" d="M59.478,246.219c-0.769-0.713-1.149-1.594-1.149-2.643c0-1.076,0.384-1.979,1.149-2.703
			c0.767-0.726,1.754-1.088,2.965-1.088c1.184,0,2.158,0.361,2.925,1.088c0.769,0.729,1.149,1.627,1.149,2.703
			c0,1.049-0.385,1.93-1.149,2.643c-0.767,0.715-1.741,1.068-2.925,1.068C61.232,247.289,60.244,246.934,59.478,246.219z"/>
		<path fill="#FDCE30" d="M78.919,246.219c-0.769-0.713-1.147-1.594-1.147-2.643c0-1.076,0.383-1.979,1.147-2.703
			c0.769-0.727,1.756-1.088,2.968-1.088c1.184,0,2.155,0.361,2.924,1.088c0.77,0.729,1.147,1.627,1.147,2.703
			c0,1.049-0.383,1.93-1.147,2.643c-0.769,0.715-1.74,1.068-2.924,1.068C80.675,247.289,79.687,246.934,78.919,246.219z"/>
		<path fill="#FDCE30" d="M98.362,246.219c-0.766-0.713-1.148-1.594-1.148-2.643c0-1.076,0.389-1.979,1.148-2.703
			c0.768-0.727,1.756-1.088,2.967-1.088c1.188,0,2.156,0.361,2.924,1.088c0.771,0.729,1.148,1.627,1.148,2.703
			c0,1.049-0.383,1.93-1.148,2.643c-0.768,0.715-1.736,1.068-2.924,1.068C100.117,247.289,99.128,246.934,98.362,246.219z"/>
	</g>
</g>
<g>
	<g>
		<path fill="#FDCE30" d="M1.149,275.219C0.381,274.508,0,273.626,0,272.578c0-1.076,0.384-1.978,1.148-2.703
			c0.768-0.727,1.755-1.089,2.965-1.089c1.184,0,2.158,0.362,2.926,1.089c0.768,0.728,1.148,1.627,1.148,2.703
			c0,1.048-0.384,1.93-1.148,2.642c-0.768,0.714-1.742,1.069-2.926,1.069C2.904,276.289,1.915,275.933,1.149,275.219z"/>
		<path fill="#FDCE30" d="M20.591,275.219c-0.767-0.712-1.148-1.594-1.148-2.642c0-1.076,0.385-1.978,1.148-2.703
			c0.768-0.727,1.756-1.089,2.966-1.089c1.185,0,2.156,0.362,2.925,1.089c0.768,0.728,1.147,1.627,1.147,2.703
			c0,1.048-0.383,1.93-1.147,2.642c-0.769,0.714-1.74,1.069-2.925,1.069C22.346,276.289,21.358,275.933,20.591,275.219z"/>
		<path fill="#FDCE30" d="M40.035,275.219c-0.768-0.712-1.147-1.594-1.147-2.642c0-1.076,0.383-1.978,1.147-2.703
			c0.769-0.727,1.755-1.089,2.965-1.089c1.186,0,2.158,0.362,2.926,1.089c0.768,0.728,1.148,1.627,1.148,2.703
			c0,1.048-0.384,1.93-1.148,2.642c-0.768,0.714-1.74,1.069-2.926,1.069C41.789,276.289,40.801,275.933,40.035,275.219z"/>
		<path fill="#FDCE30" d="M59.478,275.219c-0.769-0.712-1.149-1.594-1.149-2.642c0-1.076,0.384-1.978,1.149-2.703
			c0.767-0.727,1.754-1.089,2.965-1.089c1.184,0,2.158,0.362,2.925,1.089c0.769,0.728,1.149,1.627,1.149,2.703
			c0,1.048-0.385,1.93-1.149,2.642c-0.767,0.714-1.741,1.069-2.925,1.069C61.232,276.289,60.244,275.933,59.478,275.219z"/>
		<path fill="#FDCE30" d="M78.919,275.219c-0.769-0.712-1.147-1.594-1.147-2.642c0-1.076,0.383-1.978,1.147-2.703
			c0.769-0.727,1.756-1.089,2.968-1.089c1.184,0,2.155,0.362,2.924,1.089c0.77,0.728,1.147,1.627,1.147,2.703
			c0,1.048-0.383,1.93-1.147,2.642c-0.769,0.714-1.74,1.069-2.924,1.069C80.675,276.289,79.687,275.933,78.919,275.219z"/>
		<path fill="#FDCE30" d="M98.362,275.219c-0.766-0.712-1.148-1.594-1.148-2.642c0-1.076,0.389-1.978,1.148-2.703
			c0.768-0.727,1.756-1.089,2.967-1.089c1.188,0,2.156,0.362,2.924,1.089c0.771,0.728,1.148,1.627,1.148,2.703
			c0,1.048-0.383,1.93-1.148,2.642c-0.768,0.714-1.736,1.069-2.924,1.069C100.117,276.289,99.128,275.933,98.362,275.219z"/>
	</g>
</g>
</svg>
