<?xml version="1.0" encoding="utf-8"?>
<!-- Generator: Adobe Illustrator 16.0.0, SVG Export Plug-In . SVG Version: 6.00 Build 0)  -->
<!DOCTYPE svg PUBLIC "-//W3C//DTD SVG 1.1//EN" "http://www.w3.org/Graphics/SVG/1.1/DTD/svg11.dtd">
<svg version="1.1" id="Layer_1" xmlns="http://www.w3.org/2000/svg" xmlns:xlink="http://www.w3.org/1999/xlink" x="0px" y="0px"
	 width="81.418px" height="81.417px" viewBox="0 0 81.418 81.417" enable-background="new 0 0 81.418 81.417" xml:space="preserve">
<path fill="#EA2127" d="M180.908,38.057v0.33c0-0.137,0-0.246-0.027-0.357L180.908,38.057z"/>
<path fill="#181819" d="M38.396,56.37 M70.14,45.284c-2.563-0.004-5.093,0.588-7.39,1.719c-0.753-1.518-1.53-2.842-1.656-3.838
	c-0.154-1.158-0.32-1.848-0.142-3.22c0.179-1.377,0.98-3.326,0.968-3.467c-0.012-0.141-0.177-0.842-1.821-0.854
	c-1.646-0.012-3.059,0.318-3.224,0.753c-0.29,0.789-0.516,1.603-0.675,2.433c-0.292,1.488-3.286,6.816-4.979,9.595
	c-0.562-1.084-1.032-2.037-1.135-2.803c-0.153-1.16-0.318-1.85-0.141-3.227c0.179-1.376,0.982-3.326,0.97-3.466
	c-0.015-0.137-0.179-0.838-1.822-0.854c-1.641-0.012-3.058,0.322-3.224,0.754c-0.165,0.434-0.344,1.453-0.676,2.431
	c-0.33,0.982-4.317,9.85-5.36,12.156c-0.536,1.172-0.995,2.115-1.325,2.756c-0.052,0.1-0.09,0.164-0.116,0.217
	c0.04-0.064,0.064-0.129,0.064-0.105c-0.28,0.549-0.447,0.854-0.447,0.854v0.014c-0.216,0.41-0.457,0.777-0.571,0.777
	c-0.076,0-0.242-1.068,0.038-2.533c0.598-3.086,2.013-7.877,1.999-8.043c-0.012-0.088,0.268-0.918-0.93-1.365
	c-1.16-0.418-1.579,0.283-1.682,0.283s-0.18,0.254-0.18,0.254s1.289-5.4-2.468-5.4c-2.346,0-5.607,2.572-7.212,4.904
	c-1.007,0.547-3.186,1.732-5.477,2.996c-0.881,0.482-1.784,0.979-2.639,1.449c-0.063-0.064-0.116-0.125-0.179-0.189
	c-4.56-4.867-12.98-8.307-12.624-14.846c0.127-2.381,0.957-8.639,16.191-16.232c12.488-6.218,22.471-4.51,24.189-0.713
	c2.471,5.416-5.337,15.495-18.304,16.945c-4.944,0.547-7.542-1.361-8.19-2.074c-0.677-0.753-0.777-0.793-1.033-0.652
	c-0.42,0.229-0.152,0.895,0,1.289c0.383,1.006,1.976,2.79,4.688,3.68c2.382,0.777,8.177,1.213,15.184-1.502
	c7.873-3.031,14.002-11.48,12.205-18.552c-1.83-7.188-13.748-9.544-25.015-5.545c-6.713,2.384-13.974,6.129-19.196,11.01
	C0.6,28.882-0.393,33.94,0.016,36.058c1.449,7.503,11.795,12.396,15.934,16.015c-0.203,0.117-0.395,0.217-0.573,0.318
	c-2.075,1.035-9.96,5.162-11.936,9.52c-2.229,4.945,0.37,8.484,2.075,8.973c5.326,1.477,10.778-1.189,13.708-5.559
	s2.573-10.078,1.222-12.676c-0.012-0.041-0.037-0.064-0.05-0.105c0.536-0.318,1.083-0.635,1.631-0.953
	c1.058-0.625,2.09-1.201,2.991-1.695c-0.507,1.377-0.877,3.031-1.068,5.428c-0.229,2.803,0.93,6.436,2.434,7.859
	c0.663,0.625,1.465,0.641,1.962,0.641c1.757,0,2.549-1.453,3.427-3.186c1.083-2.117,2.037-4.574,2.037-4.574
	s-1.197,6.648,2.078,6.648c1.196,0,2.395-1.541,2.93-2.332v0.014c0,0,0.026-0.049,0.091-0.154c0.126-0.189,0.188-0.305,0.188-0.305
	v-0.037c0.486-0.83,1.543-2.727,3.135-5.863c2.064-4.051,4.037-9.109,4.037-9.109c0.191,1.113,0.455,2.211,0.79,3.287
	c0.358,1.211,1.109,2.537,1.707,3.826c-0.483,0.66-0.776,1.043-0.776,1.043s0.006,0.02,0.014,0.023
	c-0.383,0.512-0.816,1.059-1.263,1.594c-1.629,1.938-3.567,4.156-3.821,4.793c-0.307,0.748-0.23,1.313,0.355,1.744
	c0.434,0.334,1.199,0.381,2,0.316c1.466-0.1,2.496-0.459,2.994-0.688c0.916-0.326,1.781-0.781,2.573-1.35
	c1.593-1.172,2.562-2.855,2.47-5.07c-0.05-1.223-0.444-2.447-0.93-3.596c0.141-0.201,0.294-0.418,0.436-0.635
	c2.52-3.682,4.469-7.725,4.469-7.725c0.191,1.111,0.455,2.211,0.792,3.285c0.304,1.035,0.903,2.168,1.452,3.279
	c-2.371,1.92-3.836,4.15-4.346,5.617c-0.942,2.715-0.203,3.938,1.186,4.217c0.625,0.129,1.517-0.166,2.179-0.443
	c0.985-0.33,1.911-0.807,2.751-1.418c1.592-1.172,3.133-2.814,3.031-5.045c-0.037-1.008-0.319-2.014-0.688-2.98
	c1.999-0.842,4.598-1.301,7.91-0.918c7.096,0.83,8.484,5.264,8.217,7.111s-1.758,2.879-2.255,3.186
	c-0.497,0.305-0.65,0.418-0.612,0.648c0.064,0.33,0.294,0.318,0.715,0.24c0.584-0.1,3.719-1.502,3.857-4.928
	c0.206-4.334-3.96-9.102-11.34-9.061L70.14,45.284z M15.453,63.719c-2.342,2.561-5.631,3.531-7.043,2.713
	c-1.517-0.881-0.919-4.65,1.973-7.377c1.758-1.658,4.025-3.189,5.529-4.131c0.344-0.201,0.841-0.508,1.451-0.879
	c0.103-0.064,0.152-0.088,0.152-0.088c0.117-0.076,0.244-0.141,0.371-0.217C18.941,57.614,17.925,61.028,15.453,63.719
	L15.453,63.719z M32.572,52.073c-0.814,2.002-2.532,7.1-3.58,6.83c-0.889-0.23-1.438-4.115-0.177-7.938
	c0.636-1.924,1.987-4.221,2.791-5.109c1.284-1.441,2.7-1.9,3.032-1.326C35.084,45.284,33.082,50.825,32.572,52.073L32.572,52.073z
	 M46.717,58.827c-0.344,0.176-0.662,0.293-0.814,0.205c-0.115-0.064,0.141-0.307,0.141-0.307s1.77-1.9,2.471-2.766
	c0.408-0.508,0.879-1.107,1.387-1.771c0,0.063,0.014,0.127,0.014,0.205c-0.018,2.279-2.209,3.82-3.201,4.434H46.717z M57.622,56.342
	c-0.256-0.178-0.218-0.777,0.636-2.639c0.332-0.725,1.096-1.949,2.422-3.121c0.149,0.443,0.232,0.906,0.242,1.377
	c-0.012,2.867-2.064,3.936-3.298,4.383H57.622z"/>
</svg>
