<?xml version="1.0" encoding="utf-8"?>
<!-- Generator: Adobe Illustrator 16.0.0, SVG Export Plug-In . SVG Version: 6.00 Build 0)  -->
<!DOCTYPE svg PUBLIC "-//W3C//DTD SVG 1.1//EN" "http://www.w3.org/Graphics/SVG/1.1/DTD/svg11.dtd">
<svg version="1.1" id="Layer_1" xmlns="http://www.w3.org/2000/svg" xmlns:xlink="http://www.w3.org/1999/xlink" x="0px" y="0px"
	 width="81.418px" height="81.417px" viewBox="0 0 81.418 81.417" enable-background="new 0 0 81.418 81.417" xml:space="preserve">
<path fill="#EA2127" d="M180.908,38.057v0.33c0-0.137,0-0.246-0.027-0.357L180.908,38.057z"/>
<g>
	<g>
		<polygon fill="#181819" points="80.729,9.008 80.729,72.399 60.719,80.728 0.689,60.518 60.719,69.439 60.719,0.688 		"/>
		<path id="path887_9_" fill="#181819" d="M39.709,12.398l-18.39,18.17l-11.07-8.33l-4.56,1.52l11.26,11.13l-11.26,11.14l4.56,1.52
			l11.07-8.34l18.38,18.18l11.02-4.68v-35.63L39.709,12.398z M39.709,44.418l-12.65-9.53l12.65-9.52V44.418z"/>
	</g>
</g>
<path fill="#FCCD32" d="M0.689,15.039v45.479l60.03,8.921V0.688L0.689,15.039z M50.719,52.708l-11.02,4.68l-18.38-18.18l-11.07,8.34
	l-4.56-1.52l11.26-11.14l-11.26-11.13l4.56-1.52l11.07,8.33l18.39-18.17l11.01,4.68V52.708z"/>
<polygon fill="#FCCD32" points="39.709,25.369 39.709,44.418 27.059,34.889 "/>
</svg>
