<?xml version="1.0" encoding="utf-8"?>
<!-- Generator: Adobe Illustrator 16.0.0, SVG Export Plug-In . SVG Version: 6.00 Build 0)  -->
<!DOCTYPE svg PUBLIC "-//W3C//DTD SVG 1.1//EN" "http://www.w3.org/Graphics/SVG/1.1/DTD/svg11.dtd">
<svg version="1.1" id="Layer_1" xmlns="http://www.w3.org/2000/svg" xmlns:xlink="http://www.w3.org/1999/xlink" x="0px" y="0px"
	 width="81.418px" height="81.417px" viewBox="0 0 81.418 81.417" enable-background="new 0 0 81.418 81.417" xml:space="preserve">
<g>
	<g>
		<path fill="#FCCD32" d="M81.484,40.694c0,22.54-18.25,40.79-40.76,40.79c-0.74,0-1.48-0.029-2.2-0.061
			c-0.16-0.029-0.33-0.029-0.47-0.029c-0.13-0.02-0.271-0.02-0.41-0.051c-21.11-1.539-37.71-19.159-37.71-40.649
			c0-22.51,18.25-40.76,40.79-40.76c21.44,0,39,16.55,40.62,37.57c0.031,0.409,0.061,0.85,0.08,1.26
			C81.453,39.404,81.484,40.034,81.484,40.694z"/>
	</g>
</g>
<path fill="#EA2127" d="M180.908,38.057v0.33c0-0.137,0-0.246-0.027-0.357L180.908,38.057z"/>
<g>
	<path fill="#181819" d="M13.035,56.843l11.209-17.115L14.086,24.042h7.741l6.576,10.539l6.447-10.539h7.669L32.322,39.972
		L43.53,56.843h-7.988L28.269,45.5l-7.29,11.344H13.035L13.035,56.843z"/>
	<path fill="#181819" d="M66.382,56.843h-5.84v-3.492c-0.967,1.357-2.109,2.367-3.43,3.029c-1.322,0.666-2.652,0.996-3.994,0.996
		c-2.732,0-5.068-1.098-7.018-3.299c-1.941-2.201-2.92-5.266-2.92-9.207c0-4.025,0.951-7.086,2.846-9.183
		c1.889-2.096,4.283-3.143,7.178-3.143c2.656,0,4.955,1.104,6.893,3.309V24.042h6.285V56.843L66.382,56.843z M49.601,44.447
		c0,2.535,0.355,4.371,1.053,5.504c1.016,1.643,2.432,2.461,4.252,2.461c1.449,0,2.678-0.615,3.693-1.844
		c1.014-1.232,1.52-3.072,1.52-5.516c0-2.73-0.494-4.695-1.477-5.898c-0.982-1.2-2.244-1.798-3.779-1.798
		c-1.492,0-2.744,0.59-3.746,1.776C50.106,40.32,49.601,42.091,49.601,44.447z"/>
</g>
</svg>
