<?xml version="1.0" encoding="utf-8"?>
<!-- Generator: Adobe Illustrator 16.0.0, SVG Export Plug-In . SVG Version: 6.00 Build 0)  -->
<!DOCTYPE svg PUBLIC "-//W3C//DTD SVG 1.1//EN" "http://www.w3.org/Graphics/SVG/1.1/DTD/svg11.dtd">
<svg version="1.1" id="Layer_1" xmlns="http://www.w3.org/2000/svg" xmlns:xlink="http://www.w3.org/1999/xlink" x="0px" y="0px"
	 width="81.418px" height="81.417px" viewBox="0 0 81.418 81.417" enable-background="new 0 0 81.418 81.417" xml:space="preserve">
<path fill="#EA2127" d="M180.908,38.057v0.33c0-0.137,0-0.246-0.027-0.357L180.908,38.057z"/>
<g>
	<g>
		<path fill="#FCCD32" d="M12.472,53.078l-4.27,1.563L7.974,67.342l14.783-5.4C17.683,60.243,13.982,57.248,12.472,53.078"/>
		<path fill="#FCCD32" d="M14.707,39.641l-14.82,5.415l8.315,9.585l4.27-1.561C10.967,48.925,11.896,44.234,14.707,39.641"/>
		<path fill="#FCCD32" d="M39.646,21.305c-18.873,6.893-31.041,21.12-27.175,31.772l68.34-24.965
			C76.942,17.461,58.517,14.411,39.646,21.305"/>
		<path fill="#FCCD32" d="M53.636,59.888c18.87-6.893,31.06-21.056,27.173-31.771L12.467,53.078
			C16.356,63.798,34.763,66.783,53.636,59.888"/>
		<path fill="#FCCD32" d="M80.809,28.113L12.472,53.078c1.337,3.69,6.442,5.508,13.6,5.508c6.982,0,15.917-1.726,25.233-5.128
			C70.176,46.565,83.45,35.401,80.809,28.113"/>
		<path fill="#FCCD32" d="M67.208,22.608c-6.979,0-15.917,1.726-25.232,5.13C23.105,34.63,9.83,45.791,12.472,53.078l68.34-24.965
			C79.472,24.422,74.369,22.608,67.208,22.608"/>
		<g>
			<g>
				<path fill="#181819" d="M63.432,68.017c-2.012,0-4.976-1.815-8.817-5.396c-4.541-4.238-9.742-10.444-14.651-17.478
					c-4.904-7.034-8.935-14.063-11.35-19.799c-2.631-6.249-3.006-10.09-1.116-11.419c0.438-0.299,0.957-0.45,1.485-0.438
					c1.538,0,4.537,1.144,10.076,6.598l0.124,0.119l-0.019,0.17c-0.037,0.394-0.07,0.787-0.102,1.178L39,22.322l-0.544-0.546
					c-5.97-6.015-8.595-6.662-9.45-6.662c-0.243,0-0.437,0.047-0.577,0.146c-0.82,0.577-0.874,3.4,1.676,9.454
					c2.373,5.631,6.345,12.556,11.185,19.496c4.846,6.943,9.967,13.058,14.433,17.221c4.809,4.488,6.977,4.973,7.687,4.973
					c0.243,0,0.439-0.051,0.591-0.155c0.863-0.608,0.863-3.631-1.979-10.149l-0.132-0.3l0.285-0.155
					c0.283-0.156,0.563-0.31,0.819-0.458l0.345-0.194l0.158,0.36c2.016,4.619,3.9,10.492,1.429,12.229
					C64.486,67.878,63.965,68.031,63.432,68.017L63.432,68.017z M63.432,67.304v0.357V67.304z"/>
				<path fill="#181819" d="M54.093,59.695l-0.026,0.352c-0.479,5.901-1.734,12.998-5.012,13.288
					c-0.068,0.005-0.136,0.005-0.199,0.005c-2.226,0-4.332-3.188-6.256-9.475c-1.825-5.95-3.239-13.936-3.981-22.488
					c-0.746-8.551-0.736-16.663,0.029-22.84c0.834-6.73,2.422-10.245,4.722-10.449c0.068-0.007,0.139-0.009,0.207-0.009
					c1.616,0,4.048,1.827,6.536,10.343l-1.623,0.312c-0.831-2.842-1.737-5.155-2.636-6.751c-0.832-1.468-1.642-2.278-2.277-2.278
					c-0.021,0-0.041,0-0.064,0.003c-0.997,0.089-2.448,2.504-3.256,9.029c-0.753,6.066-0.762,14.058-0.027,22.499
					c0.736,8.443,2.126,16.31,3.919,22.152c0.799,2.616,1.68,4.773,2.543,6.235c0.794,1.351,1.563,2.094,2.165,2.094
					c0.02,0,0.041,0,0.06-0.005c0.954-0.08,2.753-2.598,3.51-11.449L54.093,59.695z"/>
			</g>
		</g>
	</g>
</g>
</svg>
